<?xml version="1.0" encoding="utf-8"?>
<!-- Generator: Adobe Illustrator 13.0.2, SVG Export Plug-In . SVG Version: 6.00 Build 14948)  -->
<!DOCTYPE svg PUBLIC "-//W3C//DTD SVG 1.1//EN" "http://www.w3.org/Graphics/SVG/1.1/DTD/svg11.dtd">
<svg version="1.1" id="Layer_1" xmlns="http://www.w3.org/2000/svg" xmlns:xlink="http://www.w3.org/1999/xlink" x="0px" y="0px"
	 width="681.989px" height="720.932px" viewBox="0 0 681.989 720.932" enable-background="new 0 0 681.989 720.932"
	 xml:space="preserve">
<g>
	<path fill="#FFDE23" d="M340.995,681.073c187.797,0,340.062-152.25,340.062-340.062c0-187.828-152.266-340.078-340.062-340.078
		C153.182,0.932,0.932,153.182,0.932,341.01C0.932,528.807,153.182,681.073,340.995,681.073"/>
	<path fill="none" stroke="#000000" stroke-width="1.8639" d="M340.995,681.073c187.797,0,340.062-152.25,340.062-340.062
		c0-187.828-152.266-340.078-340.062-340.078C153.182,0.932,0.932,153.182,0.932,341.01
		C0.932,528.807,153.182,681.073,340.995,681.073L340.995,681.073z"/>
	<path fill="#FBAE5E" d="M324.323,344.667c0.359-1.297,0.359-2.516,0-3.266"/>
	<path fill="#FFC42C" d="M258.37,13.167c9.422,4.609,19.562-3.5,29.453-0.781c7.156-2.172,14.328-3.5,21.031-7.328
		c2.406-1.469,5.938-0.453,8.734-0.609l2.406,4.516c-2.797,0.156-5.844-0.781-8.25,0.703c-6.719,3.891-13.109,8.562-20.188,8.422
		c-9.891-0.25-20.562,1.547-30.078-2.891"/>
	<path fill="#FFC42C" d="M398.526,7.479c12,3.438,25.625,7.469,29.516,20.328c-0.938-1.703-1.875-3.344-2.797-5.062
		c1.25,0.312,2.016,1.25,2.406,2.422l3.75,6.547c-3.75-3.969-6.312-8.656-8.656-13.562c0.938,1.703,1.875,3.5,2.812,5.219
		c-4.359-7.781-16.062-5.766-23.297-9.344"/>
	<path fill="#FFC42C" d="M580.588,104.62c1.625,5.703,5.844,9.672,9.344,14.109c-1.25-1.641-2.578-3.281-3.812-4.906
		c-1.344,3.109-3.984,5.828-7.328,6.859l3.734,6.453c3.594-1.234,8.172-4.531,6.938-8.25c-1.562-4.766-4.594-9.047-8.422-12.547
		c1.094,1.641,2.188,3.188,3.281,4.828"/>
	<path fill="#FFC42C" d="M632.948,216.823c2.406-0.625,4.828-1.797,6.141-3.672c3.203-4.516,2.031-10.906,6.312-14.969
		c2.797,4.844,6.625,9.828,6.234,15.75l-3.734-6.469c0-3.266-0.625-6.531-2.5-9.281c5.062,7.172,0.094,14.672-2.719,21.438
		c-0.781,1.797-3.594,3.047-6,3.734"/>
	<path fill="#FFC42C" d="M674.057,343.948c1.406,17.844-6.391,35.203-20.781,45.969l3.719,6.469
		c14.422-10.672,22.219-28.047,20.812-45.891"/>
	<path fill="#FFC42C" d="M661.62,433.698c-9.047,6.844-21.344,10.594-26.094,21.812c-5.766,13.625-3.438,28.266-3.844,42.453
		l3.75,6.469c0.406-14.266-2.016-28.906,3.812-42.391c4.844-11.219,16.922-15.094,26.125-21.797"/>
	<path fill="#FFC42C" d="M439.729,641.854c0.234,9.203,9.422,15.281,17.984,16.219c2.891,0.297,5.938,0.859,8.344-0.938
		c11.453-8.172,22.281-14.969,32.891-23.141l-3.75-6.453c-10.594,8.25-21.266,15.969-33.031,22.734
		c-7.172,4.141-17.078,0.469-22.438-5.844c1.25,1.719,2.5,3.5,3.75,5.234v-1.266"/>
	<path fill="#FFC42C" d="M357.463,660.542c-2.891,5.922,0.391,12.625,5.75,15.281c5.859,2.875,12.781,0.859,19.344,1.25l-3.75-6.562
		c-7.172-1.156-16.438,2.75-22.125-3.094c1.094,1.625,2.188,3.188,3.281,4.812c-0.703-1.922,1.953-3.188,1.25-5.125"/>
	<path fill="#FFC42C" d="M330.042,668.042c-11.203,2.5-22.266,2.5-33.641-0.156c-2.5-0.625-4.75-2.797-6.953-4.516l3.75,6.469
		c2.266,1.703,4.359,3.875,6.938,4.516c11.297,2.797,22.438,2.562,33.656,0.234"/>
	<path fill="#FFC42C" d="M239.042,646.838c-0.609,3.594-3.188,6.766-6.547,7.156c-4.578,0.484-10.359,2.047-13.016-2.719
		c1.094,1.719,2.281,3.359,3.359,5.062c-1.781-2.578-3.656-5.203-5.453-7.781c1.016,1.719,1.953,3.344,2.969,5.047
		c-1.953-3.031-3.5-6.312-5.922-9.109l3.734,6.469c0.703,0.875,1.484,1.781,2.188,2.641c-1.016-1.703-1.953-3.328-2.969-5.047
		c1.797,2.578,3.672,5.203,5.453,7.781c-1.078-1.703-2.266-3.344-3.359-5.062c2.438,8.812,8.75,11.141,16.766,9.266
		c3.422-0.781,5.922-3.656,6.547-7.156"/>
	<path fill="#FFC42C" d="M110.667,564.573c-3.906,9.906,3.203,19.484,8.859,26.938l-2.797-4.656
		c2.891,8.656,10.453,16.125,19.969,14.172l-3.75-6.547c-6.469,0.938-13.328-1.234-16.219-7.625l2.797,4.672
		c-2.562-4.125-4.969-8.266-7.922-12.156c0.859,0.938,1.703,1.875,2.562,2.812c-1.641-3.516-0.859-7.484,0.234-11.062"/>
	<path fill="#FFC42C" d="M53.323,487.292c-9.422,6.312-4.906,20.734,1.641,27.344c-1.031-1.703-1.938-3.344-2.953-5.062
		c1.625,2.203,3.328,4.453,4.984,6.625l-3.75-6.469c-0.375-0.062-0.859-0.062-1.234-0.141c1.016,1.703,1.922,3.344,2.953,5.047
		c-1.875-3.109-3.422-6.453-5.844-9.172c1.016,1.625,1.953,3.266,2.953,4.906c0.312-5.609-1.703-13.562,5-16.531"/>
	<path fill="#FFC42C" d="M39.62,462.37c-6.078,5.609-11.859-2.188-16.219-6.781c0.938,1.469,1.797,2.953,2.734,4.438
		c-1.328-2.016-3.031-4.438-2.5-6.469c1.562-5.516,5.859-10.359,4.297-16.047c-1.875-7-7.484-11.844-12.547-16.812
		c1,1.703,2.094,3.328,3.109,5.062c-0.156-1.5-0.062-2.969-0.062-4.453l-3.75-6.469c-0.703,8.891,7.469,15.125,12.922,21.125
		c-1-1.734-1.938-3.359-2.953-5.078c0.156,5.844-1.312,10.75-2.812,16.203c-1.797,6.312,1.016,11.766,5,16.375
		c3.812,4.422,10.984,10.75,16.516,5.453"/>
	<path fill="#FFC42C" d="M5.963,324.01c-0.281,16.75-11.031,48,8.656,58.828c-1.266-1.734-2.438-3.516-3.656-5.219l3.719,6.453
		c-1.328-7.328-6.562-9.578-10.469-14.891c1.25,1.578,0.5,3.047,1.75,4.609c-1.312-14.641,2.812-28.75,3.734-43.234"/>
	<path fill="#FFC42C" d="M52.073,166.948c0.953,20.188-14.562,35.516-24.531,52.578c-0.938,1.562-1.641,3.297-1.641,5.219
		l3.734,6.484c0-1.953,0.703-3.672,1.656-5.234c9.875-16.984,25.391-32.312,24.531-52.5"/>
	<path fill="#FFC42C" d="M140.104,73.463c-9.578,10.062-17.984,19.938-30.297,28.438c-2.25,1.469-3.344,4.516-5.219,6.859
		c-4.219,4.984-10.359,5.766-15.5,9.109l3.734,6.469c5.141-3.266,11.281-4.125,15.5-9.109c1.875-2.344,2.953-5.297,5.219-6.859
		c12.234-8.5,20.656-18.312,30.312-28.359"/>
	<path fill="#FFC42C" d="M470.901,30.495c2.656,1.328,6,0.594,8.141,2.375c2.953,2.406,4.328,6.188,6,9.672
		c-1.094-1.953-2.141-3.875-3.234-5.828c0.578,0.953,1.438,1.609,2.375,2.078c1.438,0.703,3.125,0.734,4.484,1.641
		c4.094,2.609,7.141,6.5,11.797,7.172c17.297,2.453,30.781,14.203,38.281,28.969l-3.719-6.453c-0.125-0.281-0.281-0.547-0.391-0.828
		c1.016,1.953,2.047,3.938,3.078,5.891c-7.797-11.25-19.438-18.703-33.469-21.047c-4.328-0.75-7.469-3.922-11.031-6.781
		c-2.094-1.672-5.125-1.156-7-3.375c-2.562-2.969-4-6.391-5.797-9.734c1.094,1.953,2.172,3.844,3.266,5.797
		c-2.031-2.609-6.312-1.281-9.031-3.078"/>
	<path fill="#FFC42C" d="M558.776,85.963c5.922,6.672,12.438,13.266,19.812,18.047l3.75,6.484
		c-7.344-4.812-13.938-11.359-19.812-18.062"/>
	<path fill="#FFC42C" d="M578.713,123.354c2.344,0.594,4.875,0.375,7.016,1.219c4.453,1.672,8.875,2.453,13.516,3.703
		c5.688,1.484,8.516,6.766,10.984,12.031c-1.062-1.906-2.109-3.859-3.156-5.766c4.094,3.938,4.172,8.75,3.578,13.828
		c-0.078,0.938,0.281,2.062,0.828,3c-1.062-1.859-2.109-3.781-3.172-5.641c1.406,2.594,2.781,5.219,4.172,7.812
		c-1-1.828-1.969-3.609-2.984-5.438c2.484,3.234,4.516,6.656,6.375,10.281c-0.891-1.672-1.797-3.312-2.688-4.984
		c1.562,2.578,2.922,5.234,4.391,7.828c-1-1.859-2.047-3.703-3.062-5.578c1.844,3.984,5.5,7.547,5.344,12.25
		c-1.125-1.953-2.219-3.906-3.359-5.859c2.062,3.312,3.641,6.859,5.297,10.359c-1.078-1.938-2.172-3.859-3.266-5.797
		c1.328,2.359,2.688,4.734,4.016,7.125c-0.938-1.875-1.875-3.734-2.797-5.609c6.5,4.875,15.766,3.969,19.422,14.641l-3.734-6.453
		c-0.047-0.219-0.125-0.422-0.156-0.641c1.047,2.109,2.062,4.172,3.125,6.281c-4.953-2.531-10.062-4.094-14.859-7.469
		c-2.797-1.953-3.375-5.188-5.016-7.875c1.094,1.938,2.188,3.859,3.266,5.797c-1.625-3.531-4.359-6.453-5.281-10.359
		c1.125,1.953,2.219,3.906,3.344,5.859c-3.594-3.438-3.188-8.203-5.344-12.25c1.016,1.875,2.062,3.719,3.078,5.578
		c-1.328-2.391-2.641-4.766-3.969-7.141c1.094,1.922,2.219,3.875,3.312,5.766c-2.062-2.75-3.547-5.828-5.266-8.844
		c0.984,1.828,1.953,3.703,2.922,5.547c-2.406-3.438-4.594-6.984-6.266-10.828c1.062,1.859,2.094,3.781,3.156,5.641
		c-1.766-3.078-4.094-5.844-4.594-9.5c-0.359-2.5,1.062-4.875,0.188-7.328c1.047,1.906,2.094,3.859,3.156,5.766
		c-1.406-2.453-2.797-4.906-4.203-7.375c0.938,1.828,1.906,3.688,2.828,5.516c-1.859-2.344-4.656-3.562-7.578-4.172
		c-4.172-0.828-7.906-1.953-11.797-3.234c-2.234-0.75-4.703-0.672-7.016-1.203"/>
	<path fill="#FFC42C" d="M654.76,234.307c1.672,10.094,4.109,20.297,10.203,28.734c-1-1.781-2.062-3.531-3.078-5.328
		c1.797,3.203,3.391,6.5,5.922,9.203c1.75,1.781,4.172,2.656,5.172,5.094c-1.125-1.922-2.281-3.812-3.422-5.719
		c0.156,3.219-1.094,6.188-1.453,9.375c-1,9.172-0.031,18.047,0.703,27.047c0.359,4.281,3.781,7.516,6.672,10.625
		c-1.125-1.953-2.25-3.859-3.375-5.797c-0.766,4.125-2.938,8.016-2.109,12.297c0.766,3.938,3.688,6.734,5.953,9.938
		c-1.25-1.953-2.5-3.844-3.734-5.797l3.734,6.469c-0.5-4.484-3.938-7.172-6.234-10.562c1.25,1.906,2.531,3.859,3.781,5.766
		c0.188-3.984,2.406-7.766,1.953-11.578c-0.547-4.234-3.828-7.469-6.734-10.625c1.156,1.906,2.312,3.859,3.5,5.75
		c0.266-9.016-1.359-17.891-0.359-27.062c0.359-3.188,2.078-6.188,1.219-9.297c-1.062-3.906-3.016-7.5-6.094-10.062
		c-1.891-1.547-3.688-3.078-5.094-5.062c1.016,1.797,2.078,3.547,3.078,5.344c-1.438-2.5-2.922-4.938-4.359-7.438
		c1.156,1.906,2.297,3.797,3.453,5.719c-2.828-6.5-4.422-13.547-5.562-20.562"/>
	<path fill="#FFC42C" d="M215.995,26.76c-3.234,1.875-5.797,4.453-9.469,5.734c-6.109,2.109-11.016,6.344-17.531,8.172
		c-4.578,1.344-7.516,6.25-7.234,11.266l3.734,6.469c-0.281-5,2.641-9.938,7.25-11.266c6.5-1.828,11.375-6.062,17.516-8.141
		c3.719-1.25,6.188-3.938,9.484-5.766"/>
	<path fill="#FFC42C" d="M662.229,399.463c2.297,9.078,0.859,18.453,1.25,27.688c-2.312,4.375-3.594,9.188-6.406,13.328
		c-10.391,6.969-11.797,20.719-12.406,32.172c-0.078,1.328-0.484,2.734-0.969,4.047c-1.766,4.359-4.062,8.266-5.703,12.703
		c-1.547,4.203-3.562,8.375-7.547,10.984c-5.734,3.781-12.266,4.016-18.266,6.578l3.734,6.469
		c5.797-2.219,11.984-2.969,17.531-6.047c4.391-2.438,6.656-7.031,8.297-11.516c2.062-5.766,6.219-10.641,6.578-16.75
		c0.625-10.828,1.562-23,10.406-30.438c4.656-3.969,5.609-10.125,8.5-15.062c-0.391-9.234,1.047-18.625-1.25-27.703"/>
	<path fill="#FFC42C" d="M597.417,545.307c-4.234,7.438-10.969,12.5-18.109,17.672c-2.578,1.891-4.781,4.062-6.266,6.797
		c-3.781,7.078-9.156,12.672-13.328,19.297c-8.688,8.266-19.078,14.734-29.922,19.688c-4.812,0.266-9.609,0.031-14.438,0.109
		l3.734,6.469c4.828-0.031,9.625,0.078,14.453-0.094c10.781-5.016,21.609-10.656,29.594-19.969c5.188-6,9.812-11.953,13.641-19
		c1.484-2.734,3.672-4.922,6.234-6.781c7.172-5.234,13.953-10.25,18.156-17.734"/>
	<path fill="#FFC42C" d="M449.088,649.37c-0.984,1.25-2.344,1.984-3.75,2.609c-12.531,5.531-26.25,6.5-38.797,11.484l3.75,6.516
		c12-4.578,24.797-6.047,36.922-10.641c2.062-0.766,4.125-1.719,5.609-3.516"/>
	<path fill="#FFC42C" d="M144.948,604.495c5.641,12.359,17.891,20.484,31,24.203c0.906,0.266,1.516,1.047,2.109,1.828
		c-1.125-1.953-2.266-3.906-3.391-5.844c1.406,4.969,2.109,10.078,6.578,13.703c7.016,0.344,14.266-0.234,21,2.141
		c0.781,0.281,1.531,1.016,2.172,1.672c-1.156-1.859-2.297-3.781-3.453-5.641c3.297,5.844,7.594,12.891,14.422,14.922l-3.75-6.469
		c-4.484-1.094-7.516-5.297-10.672-8.453c1.156,1.859,2.297,3.781,3.453,5.641c-1.734-2.922-2.719-6.703-5.984-8.016
		c-6.906-2.859-14.5-1.672-21.781-2.453c1.125,1.938,2.25,3.891,3.375,5.844c-1.125-5.641-2.859-11.609-7.781-15.438
		c-10.781-2.188-19.547-9.219-27.047-16.906c1.156,1.922,2.312,3.812,3.484,5.734"/>
	<path fill="#FFC42C" d="M62.042,520.37c0.516,3.812,3.391,6.469,4.953,9.75c-1.172-1.953-2.297-3.859-3.469-5.812
		c2.391,4.625,5.375,8.797,8.766,12.703c-1.125-1.953-2.219-3.859-3.359-5.828c1.922,4.297,4.797,7.844,7.719,11.375
		c-1.125-1.922-2.219-3.844-3.344-5.797c2.062,5.797,6.578,9.359,11.594,12.203c-1.188-1.828-2.359-3.656-3.562-5.484
		c0.375,3.219-1.031,6.422-0.281,9.5c0.625,2.656,2.266,5.016,4.25,6.922c1.984,1.828,5.094-0.5,7.438,1.25
		c-1.125-1.922-2.297-3.781-3.422-5.688c1,4.984,2.484,13.203,9.109,11.875c-1.125-1.938-2.297-3.891-3.422-5.828
		c2.016,6.109,5.375,12.141,11.625,14.484c-1.031-1.797-2.094-3.594-3.141-5.375c2.406,3.234,3.672,7.281,7.016,9.828l-3.75-6.484
		c-1.391-0.812-2.062-2.328-3.266-3.344c1.047,1.781,2.109,3.578,3.141,5.375c-1.609-2.469-2.922-5.094-5.016-7.125
		c-1.469-1.438-3.781-1.828-5.094-3.578c1.125,1.922,2.25,3.844,3.375,5.797c-1.359-3.781-2.844-7.484-6.062-10.094
		c-0.859-0.703-2.922,0.312-3.781-1.125c1.25,1.953,2.453,3.844,3.688,5.797c0.281-4.547-3.531-7.984-5.609-11.641
		c-2.016,0-4,0.078-6.031-0.156c-0.5-0.094-0.969-0.469-1.359-0.828c1.234,1.922,2.5,3.828,3.734,5.734
		c1.156-6.031,1.797-12.734-4.234-16.859c-2.469-1.672-4.844-3.172-6.938-5.156c1.125,1.953,2.219,3.875,3.344,5.797
		c-2.141-4.078-4.641-7.922-7.719-11.375c1.141,1.969,2.234,3.875,3.359,5.828c-2.297-4.688-5.5-8.75-8.766-12.703
		c1.172,1.953,2.297,3.859,3.469,5.812c-1.406-2.422-2.812-4.812-4.219-7.219c1.141,1.859,2.266,3.781,3.391,5.641
		c-0.25-0.547-0.5-1.078-0.375-1.703"/>
	<path fill="#FFFFFF" d="M340.995,670.823c182.141,0,329.812-147.672,329.812-329.812S523.135,11.198,340.995,11.198
		S11.167,158.87,11.167,341.01S158.854,670.823,340.995,670.823"/>
	<path d="M231.729,569.542c-2.75-2.062-6.062-4.078-10.219-6.406c-8.688-4.844-16.812-6.422-23.391-4.641
		c-6.391,1.812-12.031,6.484-16.094,13.75c-4.031,7.219-4.641,13.734-2.641,19.641c1.891,5.812,6.719,10.953,15,15.562
		c4.562,2.547,8.938,4.484,12.828,5.953L231.729,569.542z M203.776,605.917c-1.719-0.516-4.109-1.516-7.078-3.188
		c-12.188-6.797-14.484-16.672-8.469-27.281c6.734-12.031,17.281-15.266,29.562-8.312c2.266,1.25,4.359,2.438,5.672,3.516
		L203.776,605.917z"/>
	<polygon points="157.417,554.713 172.901,567.01 162.87,579.651 146.417,566.604 142.979,570.948 164.651,588.151 196.401,548.135 
		173.854,530.229 170.401,534.573 187.745,548.354 176.292,562.76 160.792,550.463 	"/>
	<polygon points="164.495,523.573 159.948,518.698 143.057,534.463 129.917,520.417 125.932,524.151 139.073,538.198 
		126.682,549.807 112.463,534.573 108.417,538.354 127.213,558.463 	"/>
	<polygon points="101.979,492.307 113.213,508.604 99.917,517.776 88.01,500.479 83.448,503.635 99.151,526.401 141.213,497.401 
		124.87,473.682 120.323,476.838 132.87,495.057 117.698,505.51 106.479,489.213 	"/>
	<path d="M117.088,458.76l-19.734,9.312c-7.672,3.625-13.188,6.328-18.859,9.422l-0.172-0.172
		c3.938-4.609,7.766-10.188,11.375-15.844l16.5-25.734l-2.859-6.047l-46.188,21.844l2.656,5.625l19.391-9.156
		c7.125-3.375,12.688-6.172,18.578-9.641l0.188,0.172c-3.797,4.406-7.312,9.406-11.125,15.328l-16.391,25.781l3.109,6.562
		l46.188-21.828L117.088,458.76z"/>
	<path d="M100.12,427.87c1-3.125,0.969-8.719-0.391-13.453c-3.312-11.594-11.516-15.234-19.094-13.062
		c-7.219,2.062-9.969,7.328-10.875,16.578c-0.688,7.531-2.078,11.172-6.688,12.484c-3.344,0.969-8.094-0.453-10-7.141
		c-1.266-4.438-0.812-8.125-0.312-9.922l-5.672-0.266c-0.641,2.453-0.734,6.516,0.672,11.469
		c2.719,9.562,10.219,14.266,17.859,12.094c6.859-1.953,9.656-8.125,10.297-16.984c0.578-7.328,2.531-10.734,7.062-12.031
		c5.031-1.422,9.453,1.406,11.328,7.891c1.234,4.359,1.016,8.859,0.016,12.219L100.12,427.87z"/>
	<polygon points="60.057,364.307 62.432,383.932 46.417,385.901 43.87,365.057 38.385,365.713 41.729,393.182 92.448,386.963 
		88.948,358.385 83.448,359.042 86.151,381.026 67.854,383.245 65.463,363.62 	"/>
	<polygon points="90.385,305.542 91.417,298.948 46.463,291.932 48.885,276.51 43.338,275.651 37.51,313.042 43.057,313.885 
		45.448,298.526 	"/>
	<polygon points="74.729,245.417 68.792,264.292 53.385,259.463 59.667,239.432 54.385,237.776 46.088,264.167 94.823,279.479 
		103.463,252.01 98.182,250.354 91.542,271.463 73.963,265.948 79.901,247.073 	"/>
	<path d="M117.01,208.385c-0.047,2.938-1.156,6.984-3,10.641c-5.578,11.031-15.922,13.859-27.156,8.188
		c-11.969-6.062-15.219-16.594-9.828-27.281c1.906-3.812,4.328-6.578,6.5-8.203l-4.047-3.906c-1.594,1.125-4.656,4.172-7.5,9.797
		c-7.141,14.125-2.406,28.641,11.938,35.906c15.031,7.562,28,2.062,34.469-10.797c2.812-5.531,3.938-10.484,3.922-13.141
		L117.01,208.385z"/>
	<polygon points="86.182,174.76 127.276,205.104 131.245,199.729 111.979,185.51 126.651,165.62 145.932,179.838 149.885,174.479 
		108.776,144.135 104.807,149.51 122.01,162.198 107.338,182.088 90.135,169.401 	"/>
	<path d="M158.182,167.167l-15.172-15.703c-5.891-6.109-10.203-10.484-14.953-14.844l0.094-0.203
		c5.641,2.234,12.172,4.062,18.656,5.672l29.688,7.391l4.797-4.641l-35.484-36.734l-4.469,4.297l14.906,15.422
		c5.469,5.688,9.891,10.047,15.078,14.547l-0.125,0.188c-5.375-2.188-11.234-3.891-18.078-5.625l-29.688-7.266l-5.219,5.062
		l35.469,36.75L158.182,167.167z"/>
	<polygon points="153.854,100.62 184.854,141.229 190.167,137.182 159.167,96.573 	"/>
	<path d="M223.276,108.042c-1.625,2.453-4.719,5.266-8.234,7.359c-10.625,6.312-20.875,3.125-27.297-7.703
		c-6.828-11.547-3.906-22.172,6.406-28.297c3.656-2.172,7.172-3.203,9.875-3.375l-1.312-5.484
		c-1.969,0.094-6.172,1.031-11.594,4.219c-13.609,8.094-17.469,22.859-9.25,36.703c8.578,14.469,22.484,16.812,34.859,9.453
		c5.359-3.188,8.953-6.734,10.359-8.984L223.276,108.042z"/>
	<path d="M254.182,85.698l10.844,13.047l6.578-2.531l-34.578-41.469l-7.422,2.859l2.094,53.906l6.359-2.438l-0.781-16.922
		L254.182,85.698z M236.698,86.87l-0.609-15.594c-0.188-3.25-0.547-6.531-0.969-9.516l0.219-0.094c1.75,2.5,3.547,5.047,5.75,7.781
		l10,11.922L236.698,86.87z"/>
	<polygon points="274.823,95.62 302.698,89.713 301.542,84.307 280.182,88.838 270.713,44.276 264.182,45.667 	"/>
	<polygon points="345.088,36.979 343.917,88.213 350.76,88.354 351.917,37.12 	"/>
	<path d="M366.62,89.917l3.016-21.609c1.188-8.422,1.953-14.5,2.453-20.938l0.25-0.031c1.719,5.844,4.297,12.078,7.031,18.188
		l12.484,27.922l6.594,0.938l7.062-50.609l-6.156-0.844l-2.953,21.25c-1.094,7.812-1.797,13.984-2.141,20.828l-0.234,0.047
		c-1.594-5.578-3.875-11.25-6.719-17.703L374.729,39.51l-7.188-1.016l-7.062,50.594L366.62,89.917z"/>
	<polygon points="401.229,95.026 407.62,96.963 414.338,74.854 432.76,80.448 434.338,75.229 415.917,69.635 420.854,53.385 
		440.792,59.448 442.401,54.135 416.057,46.167 	"/>
	<path d="M454.448,115.792c11.625,5.719,25.375,2.016,33.109-13.688c6.703-13.594,3.328-27.172-9.25-33.375
		c-12.25-6.016-25.906-0.922-33.062,13.609c-6.844,13.875-3.031,27.406,9.141,33.422L454.448,115.792z M456.963,111.026
		c-9.312-4.594-10.219-16.125-5.469-25.766c4.891-9.922,14.312-16.703,24.156-11.844c9.875,4.859,9.922,16.719,5.438,25.844
		c-5.125,10.406-14.688,16.422-24.047,11.797L456.963,111.026z"/>
	<path d="M477.401,127.573l5.312,3.891l13.094-17.844l5,3.672c4.703,3.734,5.391,7.531,2.453,14.109
		c-2.656,5.938-4.359,10.156-4.516,11.812l5.5,4.047c0.359-2.172,2.312-6.875,5.172-13.594c2.094-5.047,2.359-9.375,0.031-12.766
		l0.125-0.188c5.359,1.656,11.484,0.625,15.438-4.766c2.375-3.234,3.219-6.953,2.5-10.203c-0.875-4.203-3.781-8.031-9.484-12.203
		c-3.609-2.641-7.797-5.156-10.891-6.562L477.401,127.573z M509.745,94.604c1.094,0.422,3.031,1.484,5.609,3.359
		c5.609,4.125,7.766,9.281,3.875,14.594c-3.453,4.703-9.344,5.188-15.031,1.016l-5.438-3.984L509.745,94.604z"/>
	<path d="M541.354,184.432l4.484,4.734l34.891-37.438l-5.781-6.094L550.76,156.01c-6.25,2.766-11.562,5.312-16.25,7.859
		l-0.094-0.109c2.922-4.641,5.844-9.719,8.938-15.578l11.953-23.328l-5.781-6.109l-39.531,32.547l4.328,4.562l16.844-14.078
		c5.906-4.969,12.344-10.547,17.078-14.797l0.094,0.109c-3.406,5.219-6.781,11.141-10.406,17.891l-11.938,22.781l3.438,3.625
		l24.203-10.5c6.891-2.969,12.969-5.922,18.516-8.672l0.094,0.109c-4.562,4.312-10.531,10.594-15.438,15.781L541.354,184.432z"/>
	<path d="M572.151,202.182l-10.484,13.328l3.844,5.922l33.281-42.516l-4.344-6.656l-52.266,13.344l3.719,5.719l16.359-4.328
		L572.151,202.182z M567.323,185.307l15.125-3.875c3.141-0.875,6.25-1.906,9.109-2.953l0.125,0.188
		c-2.078,2.25-4.188,4.547-6.406,7.25l-9.547,12.266L567.323,185.307z"/>
	<polygon points="569.698,234.026 572.448,240.12 613.932,221.495 620.338,235.745 625.448,233.463 609.963,198.948 
		604.823,201.229 611.198,215.417 	"/>
	<polygon points="629.073,243.557 580.542,259.526 582.635,265.87 631.167,249.901 	"/>
	<path d="M588.042,293.245c2.5,12.734,13.75,21.422,30.969,18.031c14.859-2.922,23.625-13.844,20.922-27.594
		c-2.625-13.375-14.969-21.156-30.875-18.031c-15.172,2.969-23.641,14.219-21.016,27.531V293.245z M593.354,292.354
		c-2-10.188,6.594-17.906,17.172-19.969c10.859-2.141,21.953,1.25,24.047,12.031c2.109,10.797-7.281,18.047-17.25,20
		c-11.391,2.219-21.953-1.703-23.969-11.984V292.354z"/>
	<path d="M594.229,326.432l21.438-0.391c8.344-0.172,14.359-0.438,20.672-1.359v0.234c-5.391,2.703-11.047,6.328-16.562,10.125
		l-25.141,17.266l0.125,6.906l50.766-0.969l-0.125-6.828l-21.328,0.406c-7.844,0.141-14.031,0.328-20.812,0.641v-0.219
		c5.219-2.469,10.438-5.609,16.328-9.453l25.375-16.859l-0.141-7.312l-50.719,0.984L594.229,326.432z"/>
	<path d="M586.354,429.667c-0.516-2.906-0.188-7.078,0.953-11c3.375-11.891,13.016-16.625,25.109-13.172
		c12.906,3.672,18.078,13.438,14.797,24.938c-1.172,4.094-3.031,7.266-4.859,9.25l4.719,3.094c1.359-1.438,3.781-5,5.531-11.031
		c4.344-15.234-3.031-28.609-18.469-33.031c-16.188-4.625-27.875,3.219-31.844,17.062c-1.703,6-1.906,11.047-1.359,13.656
		L586.354,429.667z"/>
	<polygon points="591.651,471.87 600.088,453.979 614.682,460.885 605.729,479.87 610.745,482.229 622.557,457.229 576.354,435.417 
		564.057,461.463 569.073,463.823 578.51,443.792 595.167,451.667 586.713,469.542 	"/>
	<path d="M554.87,476.026l17.984,12.375c7,4.828,12.094,8.25,17.609,11.594l-0.078,0.203c-5.984-1.062-12.719-1.562-19.406-1.859
		l-30.562-1.344l-3.781,5.484l42.062,28.984l3.516-5.109l-17.656-12.172c-6.5-4.469-11.688-7.859-17.672-11.234l0.078-0.234
		c5.703,1.078,11.781,1.594,18.828,1.922l30.531,1.25l4.125-5.984l-42.078-28.984L554.87,476.026z"/>
	<polygon points="527.12,511.588 522.526,516.432 555.557,547.698 544.823,559.026 548.901,562.87 574.885,535.401 570.807,531.542 
		560.12,542.838 	"/>
	<polygon points="506.635,570.698 522.198,558.479 532.167,571.198 515.651,584.151 519.073,588.495 540.838,571.432 
		509.307,531.229 486.651,548.995 490.073,553.354 507.495,539.682 518.854,554.198 503.276,566.401 	"/>
	<path d="M477.963,554.432l-5.781,3.188l10.672,19.391l-5.438,2.984c-5.359,2.688-9.094,1.703-13.812-3.719
		c-4.281-4.938-7.391-8.234-8.812-9.094l-5.984,3.312c1.812,1.234,5.25,4.969,10.156,10.406c3.703,4.031,7.5,6.078,11.547,5.406
		l0.125,0.203c-3.797,4.156-5.406,10.156-2.188,15.984c1.922,3.516,4.938,5.859,8.203,6.578c4.172,0.969,8.891-0.062,15.047-3.469
		c3.906-2.156,7.953-4.891,10.531-7.094L477.963,554.432z M494.245,597.667c-0.859,0.812-2.641,2.125-5.422,3.672
		c-6.109,3.375-11.688,3.141-14.859-2.641c-2.828-5.109-0.766-10.641,5.391-14.062l5.922-3.234L494.245,597.667z"/>
	<path d="M336.588,632.932c7.547,0,13.656-6.109,13.656-13.656c0-7.562-6.109-13.688-13.656-13.688
		c-7.562,0-13.672,6.125-13.672,13.688C322.917,626.823,329.026,632.932,336.588,632.932"/>
	<path fill="#82AADA" d="M267.417,120.995c0,9.344-6.031,20.438-13.078,25.047c-7.188,4.656-24.312,8.594-35.531,17.016
		c-18.688,14.953-32.719,36.781-34.594,60.141c-0.625,7.484-14.766,30.547-6.219,38.031c4.969,4.359,9.016,9.328,12.766,12.141
		c3.75,1.875,8.406,1.875,12.156,0c1.859-0.938,4.562-4.719,5.609-7.469c8.719-23.391,10.281-44.875,23.375-67.312
		c1.859-1.891,10.156-11.484,12.141-12.156c16.828-5.609,12.156-5.609,22.438-14.031c4.688-3.734,11.203-6.547,14.016-14.953
		c2.156-6.453,2.812-13.078,2.812-18.688c0,3.719-3.797,10.938-6.859,13.766c-9.031,8.422-19.312,13.328-31.469,14.266
		c-2.938,0.234-5.797,6.859-9.359,4.672c-4.047-2.5-0.906-2.5,0-4.672c2.812,0.953,4.703-0.938,6.562-1.859
		c6.547-4.688,16.188-9.344,19.938-15.906C265.854,141.557,267.417,129.401,267.417,120.995"/>
	<path fill="none" stroke="#0077BE" stroke-width="1.8639" d="M267.417,120.995c0,9.344-6.031,20.438-13.078,25.047
		c-7.188,4.656-24.312,8.594-35.531,17.016c-18.688,14.953-32.719,36.781-34.594,60.141c-0.625,7.484-14.766,30.547-6.219,38.031
		c4.969,4.359,9.016,9.328,12.766,12.141c3.75,1.875,8.406,1.875,12.156,0c1.859-0.938,4.562-4.719,5.609-7.469
		c8.719-23.391,10.281-44.875,23.375-67.312c1.859-1.891,10.156-11.484,12.141-12.156c16.828-5.609,12.156-5.609,22.438-14.031
		c4.688-3.734,11.203-6.547,14.016-14.953c2.156-6.453,2.812-13.078,2.812-18.688c0,3.719-3.797,10.938-6.859,13.766
		c-9.031,8.422-19.312,13.328-31.469,14.266c-2.938,0.234-5.797,6.859-9.359,4.672c-4.047-2.5-0.906-2.5,0-4.672
		c2.812,0.953,4.703-0.938,6.562-1.859c6.547-4.688,16.188-9.344,19.938-15.906C265.854,141.557,267.417,129.401,267.417,120.995
		L267.417,120.995z"/>
	<path fill="#478DCB" d="M261.526,144.667c0,1.875-5.016,2.5-5.656,2.5c-10.578,5.609-20.547,9.359-30.547,15.578
		c-13.688,8.109-21.656,21.812-31.016,34.906c-4.359,7.469-6.359,15.578-5.734,23.688c0.625,4.359,7.469,4.359,11.844,6.234
		c6.234,1.219,11.844,2.484,18.078,1.859c3.734-8.719,4.359-18.062,7.469-26.797c3.109-7.484,8.109-13.719,15.578-16.828
		c0.641,0,2.5-1.875,3.109-1.875c1.891-0.609,2.5-0.609,3.75-0.609c3.109-1.25,3.156-2.5,5.031-4.375
		c8.094-5.594,18.031-11.844,23.641-19.953c1.875-1.859,3.109-4.359,2.484-6.859c-9.344,9.359-21.188,16.828-34.906,16.828
		c-1.25,0-4.359,3.125-6.219,3.75c-1.859,1.25-5,1.25-6.234-0.625c-0.625-2.484-0.625-5.594,0.625-7.484
		c0.609-1.234,4.359,0,6.219-1.234c5.609-6.234,15.016-9.344,21.25-14.344C260.917,147.776,261.526,146.542,261.526,144.667"/>
	<path fill="#82AADA" d="M339.026,567.088c7.922-1.281,46.812-2.891,79.422-16.062c31.5-12.734,58.953-34.828,63.562-41.75
		c12.469-18.719,21.188-31.188,25.562-49.25c2.422-10.031,14.953-38.016,8.703-41.125c-6.219-3.125-21.797-11.844-25.547-14.969
		c-3.734-3.109-9.703-6.219-13.078,3.75c-1.656,4.875-13.094,57.953-34.281,78.516c-22.5,21.859-78.5,34.484-104.344,34.484
		c-30.484,0-81.828-12.625-104.344-34.484c-21.188-20.562-40.609-84.859-34.281-78.516c-4.359-4.359-9.344-6.859-13.078-3.75
		c-3.75,3.125-19.328,11.844-25.562,14.969c-6.234,3.109,6.312,31.094,8.734,41.125c4.359,18.062,13.078,30.531,25.547,49.25
		c4.609,6.922,32.062,29.016,63.578,41.75C292.229,564.198,331.104,568.354,339.026,567.088"/>
	<path fill="none" stroke="#0077BE" stroke-width="1.8639" d="M339.026,567.088c7.922-1.281,46.812-2.891,79.422-16.062
		c31.5-12.734,58.953-34.828,63.562-41.75c12.469-18.719,21.188-31.188,25.562-49.25c2.422-10.031,14.953-38.016,8.703-41.125
		c-6.219-3.125-21.797-11.844-25.547-14.969c-3.734-3.109-9.703-6.219-13.078,3.75c-1.656,4.875-13.094,57.953-34.281,78.516
		c-22.5,21.859-78.5,34.484-104.344,34.484c-30.484,0-81.828-12.625-104.344-34.484c-21.188-20.562-40.609-84.859-34.281-78.516
		c-4.359-4.359-9.344-6.859-13.078-3.75c-3.75,3.125-19.328,11.844-25.562,14.969c-6.234,3.109,6.312,31.094,8.734,41.125
		c4.359,18.062,13.078,30.531,25.547,49.25c4.609,6.922,32.062,29.016,63.578,41.75
		C292.229,564.198,331.104,568.354,339.026,567.088L339.026,567.088z"/>
	<path fill="#478DCB" d="M339.088,564.26c6.969-1.109,47.031-3.516,75.719-15.094c27.719-11.219,49.234-26.188,57.344-34.922
		c5.109-5.484,22.328-23.359,26.188-39.25c2.109-8.828,21.062-50.859,15.562-53.594c-5.484-2.766-19.469-11.766-22.75-14.531
		c-3.312-2.719-8.547-5.484-11.531,3.312c-0.781,2.312-6.156,31.203-16.828,51.719c-8.969,17.281-16.328,27.609-26.172,34.266
		c-21.188,14.344-74.797,27.25-97.531,27.25c-36.859,0-82.672-11.953-111.266-39.703c-18.641-18.094-35.469-81-29.906-75.422
		c-3.844-3.828-7.297-7.094-10.594-4.359c-3.281,2.766-16.672,17.734-22.156,20.469c-5.484,2.75,5.547,27.375,7.672,36.203
		c3.844,15.906,15.359,29.094,26.328,45.547c6.891,10.359,22.328,25.469,61.094,41.125
		C288.948,558.87,332.104,565.37,339.088,564.26"/>
	<path fill="#FFDE23" d="M189.198,402.073c-0.609,5-3.734,8.109-1.234,11.828c2.484,3.75,8.094,11.25,10.594,14.969
		c3.109,4.984,6.219,13.094,1.25,15.578c-1.25,0-10.609,3.734-11.219,3.125c-7.797-11.312-12.797-22.656-16.844-33.031
		c-0.625-1.25,3.75-5,4.375-5C179.229,407.682,184.213,403.932,189.198,402.073"/>
	<path fill="none" stroke="#0077BE" stroke-width="1.8639" d="M189.198,402.073c-0.609,5-3.734,8.109-1.234,11.828
		c2.484,3.75,8.094,11.25,10.594,14.969c3.109,4.984,6.219,13.094,1.25,15.578c-1.25,0-10.609,3.734-11.219,3.125
		c-7.797-11.312-12.797-22.656-16.844-33.031c-0.625-1.25,3.75-5,4.375-5C179.229,407.682,184.213,403.932,189.198,402.073
		L189.198,402.073z"/>
	<path fill="#FFDE23" d="M192.932,232.542c3.984,0,8.156-5.906,11.844-4.984c4.984,1.234,5.609,4.984,5.609,8.734
		c0,4.734-1.25,7.469-3.734,11.219c-3.125,4.969-6.531,9.031-11.219,13.719c-4.375,4.359-0.641,8.078,2.484,13.688
		c-9.984-1.234-13.703-7.469-17.453-11.828c-1.859-3.109-1.25-6.859,0-9.359c3.109-8.719,6.234-10.578,8.719-20.562
		C189.182,233.167,192.323,232.542,192.932,232.542"/>
	<path fill="none" stroke="#0077BE" stroke-width="1.8639" d="M192.932,232.542c3.984,0,8.156-5.906,11.844-4.984
		c4.984,1.234,5.609,4.984,5.609,8.734c0,4.734-1.25,7.469-3.734,11.219c-3.125,4.969-6.531,9.031-11.219,13.719
		c-4.375,4.359-0.641,8.078,2.484,13.688c-9.984-1.234-13.703-7.469-17.453-11.828c-1.859-3.109-1.25-6.859,0-9.359
		c3.109-8.719,6.234-10.578,8.719-20.562C189.182,233.167,192.323,232.542,192.932,232.542L192.932,232.542z"/>
	<path fill="#82AADA" d="M165.51,337.87c0.531,9.438,3.406,49.938,11.859,78.172c3.094,10.328,19.891,29.922,16.047,30.828
		c-9.938,2.359-21.234,11.125-33.516,23.141c0,0-6-0.969-8.078-5.547c-2.109-4.562-18.047-36.625-21.516-46.938
		c-12.188-36.297-16.359-59.438-14.031-74.656c0.859-5.609-5-34.281,21.188-87.25c4.812-9.766,17.438-37.406,25.531-44.875
		c3.703-3.422,6.875-1.891,6.875-1.891c3.734,4.391,39.344,18.828,35.516,19.797c-7.484,1.859-17.453,25.719-21.188,32.562
		c-2.172,4-20.359,48.453-18.703,76.656"/>
	<path fill="none" stroke="#0077BE" stroke-width="1.8639" d="M165.51,337.87c0.531,9.438,3.406,49.938,11.859,78.172
		c3.094,10.328,19.891,29.922,16.047,30.828c-9.938,2.359-21.234,11.125-33.516,23.141c0,0-6-0.969-8.078-5.547
		c-2.109-4.562-18.047-36.625-21.516-46.938c-12.188-36.297-16.359-59.438-14.031-74.656c0.859-5.609-5-34.281,21.188-87.25
		c4.812-9.766,17.438-37.406,25.531-44.875c3.703-3.422,6.875-1.891,6.875-1.891c3.734,4.391,39.344,18.828,35.516,19.797
		c-7.484,1.859-17.453,25.719-21.188,32.562c-2.172,4-20.359,48.453-18.703,76.656H165.51z"/>
	<path fill="#478DCB" d="M162.588,337.948c0.281,4.75-0.75,45.109,9.281,72.844c3.5,9.656,16.703,33.656,15.297,33.656
		c-9,0-18.688,9.781-29.516,20.359c0,0-3.391-2.625-5.234-6.656c-1.844-4.016-19.016-40.094-21.906-49.219
		c-6.625-20.938-11.906-53.922-9.875-67.328c0.75-4.922-5.75-29.422,17.281-76.047c4.25-8.594,12.984-35.156,20.109-41.734
		c3.25-3,9.672-12.156,9.672-12.156c2.484,9.969,36.406,15.359,33.031,16.219c-6.578,1.625-20.812,35.969-24,42.062
		C169.885,283.026,161.135,313.12,162.588,337.948"/>
	<path fill="#82AADA" d="M410.667,120.995c0,9.344,6.031,20.438,13.078,25.047c7.188,4.656,24.312,8.594,35.531,17.016
		c18.688,14.953,32.703,36.781,34.594,60.141c0.609,7.484,14.75,30.547,6.219,38.031c-4.969,4.359-9.031,9.328-12.766,12.141
		c-3.75,1.875-8.422,1.875-12.156,0c-1.875-0.938-4.578-4.719-5.609-7.469c-8.734-23.391-10.281-44.875-23.391-67.312
		c-1.859-1.891-10.141-11.484-12.141-12.156c-16.812-5.609-12.156-5.609-22.422-14.031c-4.688-3.734-11.219-6.547-14.031-14.953
		c-2.141-6.453-2.797-13.078-2.797-18.688c0,3.719,3.797,10.938,6.859,13.766c9.031,8.422,19.297,13.328,31.469,14.266
		c2.938,0.234,5.781,6.859,9.344,4.672c4.047-2.5,0.922-2.5,0-4.672c-2.797,0.953-4.688-0.938-6.547-1.859
		c-6.547-4.688-16.203-9.344-19.938-15.906C412.213,141.557,410.667,129.401,410.667,120.995"/>
	<path fill="none" stroke="#0077BE" stroke-width="1.8639" d="M410.667,120.995c0,9.344,6.031,20.438,13.078,25.047
		c7.188,4.656,24.312,8.594,35.531,17.016c18.688,14.953,32.703,36.781,34.594,60.141c0.609,7.484,14.75,30.547,6.219,38.031
		c-4.969,4.359-9.031,9.328-12.766,12.141c-3.75,1.875-8.422,1.875-12.156,0c-1.875-0.938-4.578-4.719-5.609-7.469
		c-8.734-23.391-10.281-44.875-23.391-67.312c-1.859-1.891-10.141-11.484-12.141-12.156c-16.812-5.609-12.156-5.609-22.422-14.031
		c-4.688-3.734-11.219-6.547-14.031-14.953c-2.141-6.453-2.797-13.078-2.797-18.688c0,3.719,3.797,10.938,6.859,13.766
		c9.031,8.422,19.297,13.328,31.469,14.266c2.938,0.234,5.781,6.859,9.344,4.672c4.047-2.5,0.922-2.5,0-4.672
		c-2.797,0.953-4.688-0.938-6.547-1.859c-6.547-4.688-16.203-9.344-19.938-15.906C412.213,141.557,410.667,129.401,410.667,120.995
		L410.667,120.995z"/>
	<path fill="#478DCB" d="M412.932,133.448c0,9.359,3.766,11.141,10.812,15.734c7.172,4.672,24.312,9.875,35.531,18.281
		c18.688,14.953,29.266,32.375,31.141,55.734c0.609,7.484,18.203,30.547,9.672,38.031c-4.984,4.359-9.047,9.328-12.766,12.141
		c-3.75,1.875-8.422,1.875-12.156,0c-1.859-0.938-4.594-4.719-5.609-7.469c-8.719-23.391-5.609-44.875-18.688-67.312
		c-1.891-1.891-10.188-11.484-12.172-12.156c-16.828-5.609-12.156-5.609-22.438-14.031c-4.672-3.734-11.203-6.547-14.016-14.953
		c-2.156-6.453-5.516-4.047-5.516-9.672c0,3.75,1.828,4.469,4.875,7.328c9.062,8.422,19.344,13.312,31.5,14.266
		c2.938,0.219,5.766,6.844,9.344,4.656c4.031-2.484,6.391-5.031,5.469-7.234c-2.797,0.953-4.688-0.938-6.547-1.859
		c-6.547-4.688-16.219-9.344-19.938-15.891C417.682,141.557,412.932,141.87,412.932,133.448"/>
	<path fill="#FFDE23" d="M488.87,402.073c0.625,5,3.75,8.109,1.25,11.828c-2.484,3.75-8.109,11.25-10.594,14.969
		c-3.125,4.984-6.219,13.094-1.266,15.578c1.266,0,10.609,3.734,11.234,3.125c7.797-11.312,12.781-22.656,16.828-33.031
		c0.625-1.25-3.734-5-4.375-5C498.838,407.682,493.87,403.932,488.87,402.073"/>
	<path fill="none" stroke="#0077BE" stroke-width="1.8639" d="M488.87,402.073c0.625,5,3.75,8.109,1.25,11.828
		c-2.484,3.75-8.109,11.25-10.594,14.969c-3.125,4.984-6.219,13.094-1.266,15.578c1.266,0,10.609,3.734,11.234,3.125
		c7.797-11.312,12.781-22.656,16.828-33.031c0.625-1.25-3.734-5-4.375-5C498.838,407.682,493.87,403.932,488.87,402.073
		L488.87,402.073z"/>
	<path fill="#FFDE23" d="M485.135,232.542c-3.984,0-8.156-5.906-11.844-4.984c-5,1.234-5.625,4.984-5.625,8.734
		c0,4.734,1.25,7.469,3.75,11.219c3.109,4.969,6.531,9.031,11.219,13.719c4.359,4.359,0.625,8.078-2.5,13.688
		c9.984-1.234,13.719-7.469,17.469-11.828c1.859-3.109,1.234-6.859,0-9.359c-3.125-8.719-6.234-10.578-8.734-20.562
		C488.87,233.167,485.745,232.542,485.135,232.542"/>
	<path fill="none" stroke="#0077BE" stroke-width="1.8639" d="M485.135,232.542c-3.984,0-8.156-5.906-11.844-4.984
		c-5,1.234-5.625,4.984-5.625,8.734c0,4.734,1.25,7.469,3.75,11.219c3.109,4.969,6.531,9.031,11.219,13.719
		c4.359,4.359,0.625,8.078-2.5,13.688c9.984-1.234,13.719-7.469,17.469-11.828c1.859-3.109,1.234-6.859,0-9.359
		c-3.125-8.719-6.234-10.578-8.734-20.562C488.87,233.167,485.745,232.542,485.135,232.542L485.135,232.542z"/>
	<path fill="#82AADA" d="M512.557,337.87c-0.547,9.438-3.422,49.938-11.875,78.172c-3.078,10.328-19.875,29.922-16.031,30.828
		c9.938,2.359,21.219,11.125,33.516,23.141c0,0,5.984-0.969,8.062-5.547c2.109-4.562,18.047-36.625,21.516-46.938
		c12.203-36.297,16.359-59.438,14.047-74.656c-0.859-5.609,4.984-34.281-21.188-87.25c-4.828-9.766-17.453-37.406-25.547-44.875
		c-3.703-3.422-6.859-1.891-6.859-1.891c-3.75,4.391-39.344,18.828-35.531,19.797c7.484,1.859,17.453,25.719,21.203,32.562
		C496.042,265.213,514.213,309.667,512.557,337.87"/>
	<path fill="none" stroke="#0077BE" stroke-width="1.8639" d="M512.557,337.87c-0.547,9.438-3.422,49.938-11.875,78.172
		c-3.078,10.328-19.875,29.922-16.031,30.828c9.938,2.359,21.219,11.125,33.516,23.141c0,0,5.984-0.969,8.062-5.547
		c2.109-4.562,18.047-36.625,21.516-46.938c12.203-36.297,16.359-59.438,14.047-74.656c-0.859-5.609,4.984-34.281-21.188-87.25
		c-4.828-9.766-17.453-37.406-25.547-44.875c-3.703-3.422-6.859-1.891-6.859-1.891c-3.75,4.391-39.344,18.828-35.531,19.797
		c7.484,1.859,17.453,25.719,21.203,32.562C496.042,265.213,514.213,309.667,512.557,337.87L512.557,337.87z"/>
	<path fill="#478DCB" d="M516.229,337.87c-0.547,9.438-3.422,49.938-11.859,78.172c-3.094,10.328-19.859,27.5-16.031,28.422
		c9.938,2.359,15.453,7.984,27.75,20c0,0,5.953-0.969,8.062-5.531c2.094-4.562,16.766-31.094,20.234-41.406
		c12.203-36.297,16.375-59.438,14.047-74.656c-0.859-5.609,4.984-34.281-21.188-87.25c-4.812-9.766-14.609-33.656-22.719-41.156
		c-3.688-3.406-6.859-0.75-6.859-0.75c-1.875,6.359-31.781,15.078-27.984,16.047c7.5,1.875,14.109,24.609,17.859,31.453
		C499.713,265.213,517.901,309.667,516.229,337.87"/>
	<polygon fill="#FFDE23" points="169.604,241.932 174.276,233.713 180.995,237.526 176.042,246.26 178.354,247.557 184.87,236.057 
		163.62,223.995 156.823,235.979 159.135,237.276 164.354,228.073 172.01,232.432 167.354,240.667 	"/>
	<path fill="#FFDE23" d="M144.526,260.042l14.594-1.516l7.578,11.797l1.547-3.297l-3.75-5.453c-1.031-1.484-1.781-2.531-2.781-3.75
		l0.047-0.109c1.453-0.031,2.875-0.125,4.703-0.25l6.547-0.484l1.578-3.297l-14,1.328l-7.984-12.031l-1.547,3.266l3.609,4.938
		c1.391,2.031,2.266,3.234,3.25,4.469l-0.031,0.062c-1.594,0.078-3.141,0.203-5.562,0.469l-6.219,0.547L144.526,260.042z"/>
	<path fill="#FFDE23" d="M139.182,283.526c-0.141-1.406,0.172-3.375,0.844-5.219c2.047-5.547,6.797-7.469,12.469-5.375
		c6.016,2.219,8.141,7.062,6.141,12.438c-0.688,1.891-1.703,3.344-2.641,4.234l2.141,1.641c0.703-0.625,1.969-2.234,3.016-5.047
		c2.641-7.125-0.406-13.766-7.609-16.422c-7.547-2.781-13.422,0.547-15.797,6.984c-1.016,2.797-1.297,5.203-1.141,6.453
		L139.182,283.526z"/>
	<polygon fill="#FFDE23" points="144.151,308.338 146.417,299.151 153.901,301.01 151.495,310.76 154.057,311.385 157.245,298.542 
		133.526,292.682 130.213,306.057 132.792,306.682 135.323,296.417 143.87,298.526 141.588,307.713 	"/>
	<polygon fill="#FFDE23" points="127.057,316.682 125.682,330.229 128.307,330.51 129.37,320.135 151.057,322.338 151.385,319.151 	
		"/>
	<polygon fill="#FFDE23" points="125.276,340.26 125.885,354.26 127.588,354.182 127.135,343.588 149.62,342.604 149.463,339.182 	
		"/>
	<polygon fill="#FFDE23" points="143.463,373.323 142.088,363.979 149.729,362.87 151.167,372.807 153.792,372.432 151.885,359.323 
		127.713,362.838 129.698,376.463 132.307,376.088 130.792,365.588 139.51,364.338 140.87,373.682 	"/>
	<path fill="#FFDE23" d="M132.12,389.635l10.141-2.484c3.938-0.984,6.766-1.719,9.734-2.625l0.062,0.094
		c-2.297,1.797-4.594,4.047-6.828,6.344l-10.203,10.5l0.766,3.094l23.75-5.828l-0.703-2.906l-9.969,2.453
		c-3.656,0.891-6.547,1.672-9.625,2.734l-0.078-0.094c2.188-1.703,4.312-3.719,6.672-6.125l10.141-10.516l-0.828-3.391
		l-23.734,5.828L132.12,389.635z"/>
	<path fill="#FFDE23" d="M147.042,426.745c-1.016-0.984-2.031-2.719-2.672-4.547c-1.953-5.594,0.516-10.094,6.188-12.062
		c6.062-2.109,10.781,0.266,12.656,5.672c0.656,1.906,0.812,3.656,0.641,4.953l2.688-0.078c0.141-0.938,0.109-3-0.891-5.828
		c-2.484-7.156-9.062-10.344-16.312-7.828c-7.609,2.656-10.016,8.953-7.75,15.469c0.984,2.797,2.312,4.844,3.219,5.703
		L147.042,426.745z"/>
	<polygon fill="#FFDE23" points="165.401,441.635 161.401,433.073 168.401,429.807 172.635,438.901 175.026,437.792 
		169.417,425.807 147.276,436.151 153.104,448.635 155.495,447.51 151.026,437.917 158.995,434.182 162.995,442.776 	"/>
	<path fill="#FFDE23" d="M535.338,419.885c1.203-0.984,2.672-3.219,3.375-5.469c1.734-5.484-0.609-9.109-4.203-10.234
		c-3.422-1.078-5.906,0.328-8.703,3.766c-2.25,2.828-3.766,3.922-5.953,3.234c-1.578-0.484-3.109-2.281-2.125-5.484
		c0.672-2.109,1.797-3.453,2.484-4.047l-2.188-1.594c-0.906,0.812-2.016,2.406-2.75,4.766c-1.422,4.531,0.344,8.391,3.969,9.531
		c3.25,1.016,6-0.703,8.562-4.094c2.156-2.781,3.828-3.625,5.969-2.953c2.391,0.75,3.422,3.047,2.469,6.109
		c-0.656,2.078-1.922,3.812-3.203,4.891L535.338,419.885z"/>
	<polygon fill="#FFDE23" points="534.12,381.448 532.088,390.682 524.542,389.042 526.698,379.213 524.12,378.667 521.276,391.588 
		545.151,396.823 548.104,383.37 545.526,382.807 543.245,393.151 534.651,391.26 536.667,382.01 	"/>
	<path fill="#FFDE23" d="M550.026,372.792l0.359-3.125l-10.516-1.219l0.328-2.953c0.453-2.844,1.859-4.016,5.297-4.359
		c3.094-0.297,5.25-0.594,5.984-0.906l0.375-3.234c-1,0.359-3.406,0.672-6.875,1.062c-2.609,0.328-4.453,1.234-5.312,3l-0.125-0.016
		c-0.562-2.641-2.469-4.938-5.625-5.297c-1.922-0.219-3.641,0.312-4.828,1.375c-1.531,1.344-2.438,3.469-2.844,6.828
		c-0.234,2.125-0.281,4.453-0.141,6.062L550.026,372.792z M528.667,367.135c-0.078-0.547-0.094-1.625,0.062-3.125
		c0.375-3.328,2.031-5.422,5.156-5.062c2.781,0.328,4.359,2.641,3.984,6.016l-0.375,3.203L528.667,367.135z"/>
	<path fill="#FFDE23" d="M551.417,336.479l-23.938-8.828v3.422l12.656,4.172c3.359,1.125,6.594,2.125,9.562,2.812v0.062
		c-2.953,0.703-6.125,1.625-9.578,2.672l-12.609,3.875v3.5l23.906-8.188V336.479z"/>
	<polygon fill="#FFDE23" points="526.838,324.745 551.057,321.542 550.635,318.37 526.432,321.588 	"/>
	<path fill="#FFDE23" d="M541.963,292.698c0.891,1.094,1.75,2.891,2.203,4.797c1.406,5.734-1.484,9.984-7.328,11.406
		c-6.25,1.516-10.688-1.312-12.062-6.875c-0.469-1.984-0.453-3.734-0.156-5l-2.688-0.156c-0.234,0.891-0.391,2.953,0.297,5.891
		c1.797,7.344,8.016,11.172,15.484,9.359c7.812-1.891,10.844-7.922,9.203-14.609c-0.703-2.891-1.844-5.047-2.656-5.984
		L541.963,292.698z"/>
	<polygon fill="#FFDE23" points="524.385,275.26 527.62,284.151 520.354,286.792 516.932,277.354 514.448,278.245 518.979,290.682 
		541.932,282.338 537.229,269.385 534.745,270.307 538.354,280.26 530.088,283.26 526.854,274.37 	"/>
	<polygon fill="#FFDE23" points="222.729,486.292 204.37,502.385 206.479,504.792 224.838,488.682 	"/>
	<path fill="#FFDE23" d="M213.667,512.745l7-7.766c2.719-3.016,4.656-5.219,6.594-7.625l0.109,0.047
		c-0.891,2.766-1.547,5.938-2.109,9.094l-2.531,14.406l2.391,2.125l16.359-18.125l-2.203-1.984l-6.891,7.625
		c-2.516,2.797-4.453,5.062-6.422,7.672l-0.094-0.047c0.844-2.625,1.484-5.484,2.078-8.812l2.5-14.391l-2.578-2.328l-16.359,18.141
		L213.667,512.745z"/>
	<polygon fill="#FFDE23" points="253.26,513.198 240.823,534.245 243.588,535.854 256.01,514.823 	"/>
	<path fill="#FFDE23" d="M255.698,541.979l4.188-9.547c1.625-3.734,2.797-6.422,3.844-9.328l0.141,0.016
		c0.031,2.906,0.406,6.109,0.859,9.281l2.125,14.469l2.922,1.281l9.812-22.375l-2.719-1.203l-4.109,9.406
		c-1.516,3.453-2.641,6.203-3.703,9.297h-0.125c0-2.781-0.297-5.672-0.781-9l-2.172-14.453l-3.172-1.406l-9.828,22.391
		L255.698,541.979z"/>
	<polygon fill="#FFDE23" points="277.01,548.963 280.088,549.823 283.026,539.167 291.901,541.604 292.604,539.104 283.729,536.635 
		285.885,528.807 295.495,531.463 296.198,528.917 283.51,525.417 	"/>
	<path fill="#FFDE23" d="M308.776,557.167c6.141,0.859,11.828-2.906,12.969-11.203c0.984-7.172-2.578-12.844-9.219-13.766
		c-6.469-0.891-11.906,3.5-12.969,11.172c-1,7.328,2.766,12.891,9.188,13.781L308.776,557.167z M309.213,554.62
		c-4.922-0.688-7.062-5.781-6.375-10.875c0.734-5.25,3.984-9.734,9.203-9.016c5.203,0.719,7.031,6.094,6.375,10.906
		c-0.781,5.5-4.203,9.672-9.156,8.984H309.213z"/>
	<path fill="#FFDE23" d="M325.682,558.463l3.438,0.078l0.172-10.297l2.766,0.047c2.641,0.156,3.875,1.406,4.5,4.703
		c0.531,2.969,1,5.016,1.359,5.688l3.031,0.047c-0.469-0.906-1-3.219-1.75-6.562c-0.562-2.469-1.656-4.188-3.5-4.859v-0.094
		c2.922-0.797,5.312-2.844,5.375-5.953c0.031-1.859-0.656-3.5-1.844-4.547c-1.5-1.359-3.688-2.047-7.078-2.094
		c-2.141-0.047-4.453,0.125-6.062,0.422L325.682,558.463z M329.51,536.573c0.5-0.141,1.5-0.297,2.953-0.266
		c3.141,0.062,5.266,1.641,5.219,5.172c-0.047,3.141-2.109,5.172-5.281,5.109l-3.047-0.047L329.51,536.573z"/>
	<path fill="#FFDE23" d="M373.432,556.057l3.094-0.328l-4.016-24.141l-4,0.406l-3.109,12.188c-0.781,3.188-1.359,5.938-1.75,8.469
		h-0.062c-0.906-2.469-1.984-5.047-3.312-7.938l-5.344-11.328l-4,0.406l0.797,24.484l3-0.312l-0.422-10.5
		c-0.172-3.688-0.406-7.75-0.641-10.781h0.062c0.984,2.812,2.25,5.828,3.75,9.156l5.172,11.172l2.375-0.234l3.078-12.234
		c0.891-3.484,1.531-6.641,2.094-9.547h0.062c0.312,2.984,0.953,7.078,1.484,10.438L373.432,556.057z"/>
	<path fill="#FFDE23" d="M391.807,543.963l4.359,6.844l3.25-0.812l-13.891-21.75l-3.688,0.922l-2.266,25.703l3.156-0.766
		l0.656-8.062L391.807,543.963z M383.432,543.479l0.656-7.453c0.094-1.562,0.109-3.125,0.109-4.578l0.109-0.016
		c0.688,1.281,1.391,2.594,2.266,4.031l4.031,6.266L383.432,543.479z"/>
	<polygon fill="#FFDE23" points="409.526,545.557 412.51,544.385 404.62,524.12 411.588,521.417 410.62,518.917 393.745,525.479 
		394.729,527.979 401.651,525.292 	"/>
	<polygon fill="#FFDE23" points="414.573,516.651 425.588,538.479 428.448,537.042 417.432,515.229 	"/>
	<path fill="#FFDE23" d="M445.635,528.088c5.156-3.406,6.953-9.984,2.328-16.969c-4-6.062-10.406-7.938-16-4.25
		c-5.453,3.594-6.641,10.469-2.375,16.953c4.062,6.172,10.594,7.875,16.016,4.281L445.635,528.088z M444.276,525.917
		c-4.141,2.75-9.109,0.344-11.953-3.953c-2.906-4.422-3.438-9.938,0.953-12.828c4.406-2.906,9.312-0.078,11.984,4
		c3.047,4.625,3.219,10.016-0.953,12.781H444.276z"/>
	<path fill="#FFDE23" d="M461.542,515.26l-7.109-7.641c-2.766-2.969-4.781-5.078-7.031-7.219l0.062-0.109
		c2.672,1.125,5.766,2.047,8.875,2.875l14.109,3.781l2.344-2.172l-16.656-17.891l-2.172,2.031l7,7.516
		c2.562,2.75,4.656,4.891,7.078,7.078l-0.047,0.094c-2.547-1.094-5.328-1.953-8.594-2.828l-14.109-3.734l-2.547,2.375l16.641,17.891
		L461.542,515.26z"/>
	<line fill="#478DCB" x1="509.542" y1="145.917" x2="509.542" y2="139.698"/>
	<path fill="#0077BE" d="M206.682,227.542c3.328,1.625,3.797,4.844,3.797,8.078c0,4.734-1.25,7.484-3.734,11.219
		c-3.125,4.984-6.531,9.031-11.219,13.719c-4.375,4.359-0.438,7.984,2.688,13.594c1.594-0.172,3.359-0.734,4.797-1.453
		c1.859-0.922,4.578-4.703,5.594-7.469c4.469-11.953,7.047-23.422,10.266-34.766"/>
	<path fill="#0077BE" d="M471.135,228.776c-3.328,1.625-3.781,4.859-3.781,8.094c0,4.734,1.234,7.469,3.719,11.219
		c3.125,4.969,6.547,9.031,11.219,13.703c4.375,4.375,0.438,8-2.688,13.609c-1.594-0.172-3.344-0.734-4.781-1.453
		c-1.859-0.938-4.594-4.703-5.609-7.484c-4.469-11.938-7.047-23.406-10.266-34.766"/>
	<polyline fill="#0077BE" points="255.635,233.198 267.854,219.698 177.667,166.792 228.37,258.26 242.167,246.37 436.698,445.807 
		424.479,459.26 514.682,512.198 463.963,420.729 450.198,432.62 	"/>
	<polyline fill="#FFC42C" points="430.995,460.213 452.401,452.338 506.76,505.526 	"/>
	<polyline fill="#FFDE23" points="464.448,427.26 456.026,448.463 507.838,504.135 	"/>
	<polyline fill="#FFDE23" points="261.104,218.76 239.698,226.62 185.338,173.448 	"/>
	<polyline fill="#FFC42C" points="227.635,251.713 236.057,230.51 184.245,174.838 	"/>
	<polyline fill="#FFDE23" points="240.854,231.917 245.479,229.135 453.323,442.917 451.62,447.557 446.62,449.838 238.76,236.463 	
		"/>
	<polyline fill="#FFDE23" points="460.213,330.604 501.87,322.01 341.729,161.885 332.963,203.354 	"/>
	<polygon fill="none" stroke="#0077BE" stroke-width="1.8639" points="460.213,330.604 501.87,322.01 341.729,161.885 
		332.963,203.354 460.213,330.604 	"/>
	<polyline fill="#FFDE23" points="204.401,330.135 169.245,343.948 322.885,498.854 331.667,457.385 	"/>
	<polygon fill="none" stroke="#0077BE" stroke-width="1.8639" points="204.401,330.135 169.245,343.948 322.885,498.854 
		331.667,457.385 204.401,330.135 	"/>
	<polyline fill="#FFDE23" points="342.635,211.401 334.042,169.76 173.917,329.87 215.385,338.651 	"/>
	<polygon fill="none" stroke="#0077BE" stroke-width="1.8639" points="342.635,211.401 334.042,169.76 173.917,329.87 
		215.385,338.651 342.635,211.401 	"/>
	<polyline fill="#FFDE23" points="468.354,337.26 509.995,345.87 349.87,505.979 341.088,464.526 	"/>
	<polygon fill="none" stroke="#0077BE" stroke-width="1.8639" points="468.354,337.26 509.995,345.87 349.87,505.979 
		341.088,464.526 468.354,337.26 	"/>
	<polyline fill="#FFDE23" points="166.76,356.885 196.229,371.026 240.12,340.167 196.167,308.385 166.135,323.245 	"/>
	<polyline fill="none" stroke="#0077BE" stroke-width="1.8639" points="166.76,356.885 196.229,371.026 240.12,340.167 
		196.167,308.385 166.135,323.245 	"/>
	<polyline fill="#FFDE23" points="511.729,318.635 486.354,306.557 442.463,337.401 486.432,369.182 511.526,356.104 	"/>
	<polyline fill="none" stroke="#0077BE" stroke-width="1.8639" points="511.729,318.635 486.354,306.557 442.463,337.401 
		486.432,369.182 511.526,356.104 	"/>
	<polyline fill="#FFDE23" points="354.213,519.182 370.838,484.51 339.979,440.635 308.198,484.573 325.495,519.495 	"/>
	<path fill="none" stroke="#0077BE" stroke-width="1.8639" d="M354.213,519.182l16.625-34.672l-30.859-43.875l-31.781,43.938
		l17.297,34.922 M360.901,518.713c-8.391,1.297-15.922,1.969-21.875,1.969c-6.141,0-13.094-0.516-20.516-1.5 M510.354,313.042
		c1.688,8.719,2.641,17.359,2.203,24.844c-0.219,3.656-0.781,11.984-1.891,22.453 M166.573,319.651
		c-0.938,6.422-1.391,12.641-1.047,18.203c0.219,3.766,0.797,12.484,1.953,23.359"/>
	<polyline fill="#FFDE23" points="341.042,236.651 372.838,192.698 341.042,128.463 310.198,192.776 	"/>
	<polygon fill="none" stroke="#0077BE" stroke-width="1.8639" points="341.042,236.651 372.838,192.698 341.042,128.463 
		310.198,192.776 341.042,236.651 	"/>
	<path fill="#FFC42C" d="M203.838,307.963l20.094,17.281l13.562-12.625c0,0,2.344-14.484-2.344-18.219
		c-4.672-3.734-15.891-0.922-15.891-0.922"/>
	<path fill="#FFC42C" d="M227.026,283.823l13.266,4.5l6.828,12.797l1.109-0.172c0,0,2.344-14.484-2.328-18.234
		c-4.688-3.75-15.891-0.938-15.891-0.938"/>
	<path fill="#FFC42C" d="M267.885,242.979l12.609,5.141l7.469,12.141l13.562-12.625c0,0,2.344-14.469-2.344-18.219
		c-4.656-3.719-15.875-0.922-15.875-0.922"/>
	<path fill="#FFC42C" d="M291.057,218.838l13.281,4.5l6.812,12.797l1.109-0.172c0,0,2.344-14.484-2.312-18.219
		c-4.688-3.75-15.906-0.953-15.906-0.953"/>
	<polyline fill="#FFC42C" points="319.76,189.229 340.323,224.76 349.682,211.667 330.026,173.354 	"/>
	<path fill="#EE3338" d="M341.526,198.838c3.766,0,6.828-3.031,6.828-6.828c0-3.766-3.062-6.797-6.828-6.797
		s-6.828,3.031-6.828,6.797C334.698,195.807,337.76,198.838,341.526,198.838"/>
	<path fill="none" stroke="#EE3338" stroke-width="1.8639" d="M341.526,198.838c3.766,0,6.828-3.031,6.828-6.828
		c0-3.766-3.062-6.797-6.828-6.797s-6.828,3.031-6.828,6.797C334.698,195.807,337.76,198.838,341.526,198.838L341.526,198.838z"/>
	<polyline fill="#FFC42C" points="353.417,185.495 335.635,162.104 338.448,149.026 	"/>
	<path fill="#FFC42C" d="M372.12,198.588l7.469,8.406c0,0,11.219,27.125,7.5,33.656c-3.75,6.547-12.172,0.938-12.172,0.938
		l-17.766-20.578"/>
	<path fill="#FFC42C" d="M396.417,223.823c1.859,10.281,0.938,24.297-3.75,28.047c-4.672,3.75,1.875,7.484,1.875,7.484
		s9.344-4.688,10.281-13.094C405.776,237.854,396.417,223.823,396.417,223.823"/>
	<path fill="#FFC42C" d="M428.198,263.088v30.844c0,0,1.875,7.484,5.625,5.609c3.734-1.859,13.062-8.406,13.062-16.828
		c0-8.406-14.016-26.172-14.016-26.172"/>
	<path fill="#FFC42C" d="M458.135,283.651c0.938,6.562-1.875,28.984-9.359,27.109c-7.469-1.859,5.609,8.422,5.609,8.422
		s9.359-10.281,9.359-16.828S458.135,283.651,458.135,283.651"/>
	<path fill="#FFC42C" d="M356.213,458.463l13.078,21.5l24.328-24.297c0,0,2.797-14.969-1.891-18.688
		c-4.672-3.75-18.688,2.797-18.688,2.797"/>
	<path fill="#FFC42C" d="M393.62,419.213l20.562-20.578c0,0,8.406-4.672,14.016-0.922c5.625,3.719,7.484,14.953,4.672,18.688
		c-2.797,3.75-21.484,20.578-21.484,20.578s-0.953-6.562-4.688-12.156C402.963,419.213,393.62,419.213,393.62,419.213"/>
	<path fill="#FFC42C" d="M436.62,380.87c11.516,0,11.219,6.547,14.969,12.156c4.125,6.219,9.328-2.797,9.328-2.797"/>
	<polyline fill="#FFC42C" points="314.151,483.713 328.167,516.417 339.385,518.292 325.37,492.12 	"/>
	<polyline fill="#FFC42C" points="327.245,465.026 355.292,507.088 359.963,499.604 	"/>
	<path fill="#EE3338" d="M339.51,478.432c-3.766,0-6.828,3.062-6.828,6.828s3.062,6.812,6.828,6.812c3.75,0,6.812-3.047,6.812-6.812
		S343.26,478.432,339.51,478.432"/>
	<path fill="none" stroke="#EE3338" stroke-width="1.8639" d="M339.51,478.432c-3.766,0-6.828,3.062-6.828,6.828
		s3.062,6.812,6.828,6.812c3.75,0,6.812-3.047,6.812-6.812S343.26,478.432,339.51,478.432L339.51,478.432z"/>
	<polyline fill="#FFC42C" points="224.417,353.76 202.917,368.729 222.542,391.167 234.682,364.979 	"/>
	<polyline fill="#FFC42C" points="243.104,373.401 235.62,405.182 240.292,410.792 252.463,384.62 	"/>
	<path fill="#FFC42C" d="M277.682,407.995l14.031,12.156c0,0-1.859,8.406-6.547,13.078c-4.672,4.672-3.734,18.703-5.609,15.891
		s-21.5-20.562-21.5-20.562"/>
	<path fill="#FFC42C" d="M300.12,433.229c0.953,7.469-1.859,25.234-6.547,26.188c-4.656,0.922,2.812,8.406,2.812,8.406
		s7.484-11.219,8.422-16.828C305.729,445.385,300.12,433.229,300.12,433.229"/>
	<path fill="#FFC42C" d="M467.463,323.854l-17.766,12.156l21.516,18.703c0,0-5.609-8.422-6.562-14.969
		C463.729,333.213,467.463,323.854,467.463,323.854"/>
	<path fill="#FFC42C" d="M476.823,319.167l10.266-7.469l14.031,44.875c0,0-4.672-14.016-12.141-19.641
		C481.479,331.323,476.823,319.167,476.823,319.167"/>
	<path fill="#EE3338" d="M480.292,337.87c0,3.766,3.047,6.828,6.812,6.828s6.812-3.062,6.812-6.828c0-3.75-3.047-6.812-6.812-6.812
		S480.292,334.12,480.292,337.87"/>
	<path fill="none" stroke="#EE3338" stroke-width="1.8639" d="M480.292,337.87c0,3.766,3.047,6.828,6.812,6.828
		s6.812-3.062,6.812-6.828c0-3.75-3.047-6.812-6.812-6.812S480.292,334.12,480.292,337.87L480.292,337.87z"/>
	<polyline fill="#FFC42C" points="167.385,327.588 169.245,343.948 168.323,353.76 193.557,364.042 193.557,341.604 	"/>
	<path fill="#FFC42C" d="M206.651,332.276c11.203,2.797,17.766,14.016,17.766,14.016l-6.562,6.547"/>
	<path fill="#EE3338" d="M202.323,339.698c0-3.766-3.047-6.828-6.828-6.828c-3.766,0-6.797,3.062-6.797,6.828
		c0,3.75,3.031,6.812,6.797,6.812C199.276,346.51,202.323,343.448,202.323,339.698"/>
	<path fill="none" stroke="#EE3338" stroke-width="1.8639" d="M202.323,339.698c0-3.766-3.047-6.828-6.828-6.828
		c-3.766,0-6.797,3.062-6.797,6.828c0,3.75,3.031,6.812,6.797,6.812C199.276,346.51,202.323,343.448,202.323,339.698
		L202.323,339.698z"/>
	<polyline fill="#0077BE" points="428.932,233.01 417.057,219.213 508.604,168.667 455.542,258.776 442.073,246.51 242.401,440.823 
		254.292,454.62 162.729,505.167 215.807,415.073 229.26,427.307 	"/>
	<polyline fill="#FFC42C" points="247.729,455.401 226.542,446.979 170.823,498.729 	"/>
	<polyline fill="#FFDE23" points="215.135,421.588 222.995,442.995 169.76,497.323 	"/>
	<polyline fill="#FFDE23" points="443.729,232.12 439.198,229.229 225.854,437.51 227.432,442.213 232.37,444.62 445.713,236.713 	
		"/>
	<polyline fill="#FFDE23" points="423.838,218.432 445.026,226.87 500.76,175.104 	"/>
	<polyline fill="#FFC42C" points="456.432,252.26 448.588,230.854 501.823,176.526 	"/>
	<path fill="#BCCFEB" d="M341.51,430.651c0,0-49-33.188-58.422-49.406c0,0-15.047-21.594-18.844-31.125
		c-5.797-14.484-9.391-22.266-11.906-35.891c-4.25-22.797-0.812-42.734-0.812-42.734c44.156,7.781,69.562-3.969,89.984-19.516
		c20.422,15.547,45.828,27.297,89.969,19.516c0,0,3.453,19.938-0.797,42.734c-2.547,13.625-6.125,21.406-11.906,35.891
		c-3.812,9.531-18.828,31.125-18.828,31.125C390.495,397.463,341.51,430.651,341.51,430.651"/>
	<path fill="none" stroke="#0077BE" stroke-width="2.924" d="M341.51,430.651c0,0-49-33.188-58.422-49.406
		c0,0-15.047-21.594-18.844-31.125c-5.797-14.484-9.391-22.266-11.906-35.891c-4.25-22.797-0.812-42.734-0.812-42.734
		c44.156,7.781,69.562-3.969,89.984-19.516c20.422,15.547,45.828,27.297,89.969,19.516c0,0,3.453,19.938-0.797,42.734
		c-2.547,13.625-6.125,21.406-11.906,35.891c-3.812,9.531-18.828,31.125-18.828,31.125
		C390.495,397.463,341.51,430.651,341.51,430.651L341.51,430.651z"/>
	<path fill="#478DCB" d="M341.573,425.323c0,0-45.969-31.234-54.844-46.484c0,0-14.281-20.344-17.875-29.297
		c-5.453-13.625-8.828-20.969-11.203-33.797c-4-21.453-1.875-39.938-1.875-39.938c41.547,7.312,66.594-4,85.797-18.656
		c19.203,14.656,43.844,26.281,85.391,18.969c0,0,2.547,18.172-1.469,39.641c-2.391,12.828-5.734,20.156-11.188,33.781
		c-3.594,8.969-17.875,29.297-17.875,29.297C387.557,394.088,341.573,425.323,341.573,425.323"/>
	<path fill="#0077BE" d="M346.823,291.292c2.766,1.516,1.625,5.328,3.438,7.516c-0.672,4.672,1.516,8.484,3.719,12
		c2.375,1.25,5.141-0.188,7.438,1.25c1.406,0.484,2.375-0.766,2.844-1.703c0.969-1.438,0.391-3.625,0.578-5.156
		c-1.344-2.203-3.156-4.281-2.281-7.234c0.375-2.672,3.422-3.062,5.344-4.312h43.25c3.906,0.406,8.094,0.203,12.188,0.203
		c0.859-0.75,2.016-0.375,2.859,0c-0.562,2.297-0.656,4.953-3.234,6.016c-1.234,0.75-3.234,1.125-3.422,2.938
		c-3.047,3.25-7.344,4.109-11.531,4.953c-1.328,3.719-5.25,4.859-8.859,4.969c-1.25,1.906-2.203,4.562-4.688,5.141
		c-1.219,2.094-3.234,4.766-5.422,5.531c-1.141,2.281-3.438,4.281-5.922,4.766c-1.031,2.75-3.891,4.094-6.469,4.672
		c-1.719,3.625-6,2.078-8.75,3.906c-2.781,0.844-6.594-0.484-8.406,2.375c-0.297,1.344-1.594,2.469-0.844,4.016
		c2.578,2.266,3.516,5.141,4.953,7.891c1.891,0.953,3.812-1.031,5.719-1.625c1.328,0.109,2.375-1.797,3.516-0.656
		c-0.938,2.391-0.469,4.875,0.875,6.859c0.938,1.344,2.844,1.422,3.422,2.766c-0.672,1.516-4.391,1.062-2.672,3.062
		c2.297,0.469,5.438-1.062,7.328,0.75c-0.375,2-2.75,3.422-1.891,5.812c0.656,1.438,2.297,2.578,1.891,4.281
		c-1.328,0.859-3.516,0.578-4.75-0.375c-1.734,0.203-3.25,0.484-5.062,0.375c-0.188,0.297-0.75,0.672-0.281,1.047
		c1.234,1.156,3.047,1.047,4.469,2c-0.188,0.672-1.047,0.953-1.609,1.438c-3.141,1.906-2.656,5.641-2.656,8.672
		c-1.922,0.859-3.438-1.328-5.062-2c-3.609-1.141-6.75-3.25-10.578-4c-1.328-2,0.094-6.484-3.25-6.297
		c-2.469,1.531-5.141,2.969-8.078,2.594c-3.922,1.125-8.688,0.266-12.219-1.547c-4.375-1.125-6.75,2.484-10.469,3.062
		c-0.391,0.469-0.672,1.141-0.281,1.703c0.375,1.047,2.188,2.016,1.125,3.25c-6.844,0.75-13.344,0.75-20.562,0.672
		c4.078-3.438,8.938-6.109,13.047-9.547c1.438-0.375,2.375-1.703,3.812-2.078c0.484,0.938,0.188,2.375,1.516,2.938
		c1.734-0.375,3.734-0.469,4.766-2.078c-0.094-0.391-0.281-0.781-0.656-1.062c-1.047-0.094-1.812,0.203-2.766,0.391
		c-0.766-1.438-1.234-2.969-2.375-4.109h-5.828c-2.469,0.953,0.672,5.25-2.766,4.578c-5.234-1.812-10.094-4.469-15.234-6.656
		c5.422-1.734,11.047-3.547,16.766-4.781c1.141,1.156-0.391,3.344,1.625,4.094c1.984-0.938,5.438,0.578,6.281-1.906
		c0.953-2.281,3.922-0.547,4.484-2.562c-1.344-1.062-3.047-2.203-4.781-1.719c-1.219,1.062-0.375,3.812-2.469,3.625
		c-4.094-4.109-7.422-8.188-11.422-12.203c0.188-0.281,8,0.281,11.625,0.484c1.891-2.469,4.281-5.344,6.672-7.547
		c0.078-1.422-0.766-1.75-1.344-3.609c-0.656-0.859-0.766-2.281-1.906-2.859c-2.578,1.531-4.672-1.531-7.047,0
		c-2.953,0.656-4.109-2.859-6.969-2.375c-0.844-0.562-2.188-1.156-1.891-2.484c-1.906-0.672-4.203-0.484-5.719-2.188
		c-1.25-3.141-5.531-2.562-6.484-6c-1.234-2-4.859-2.297-4.484-5.344c-1.422-0.953-3.328-0.656-4.484-2.391
		c-0.938-2.078-1.891-4.188-4.562-4.266c-2.188-0.781-4.766-2.297-5.703-4.672c-2.969-1.25-6.109-1.922-8.875-3.734
		c-1.047-1.609-2.672-2.469-4.484-2.562c-0.375-2.953-5.422-3.531-3.812-7.25l0.766-1.328l16.781,0.281l23.328,0.188
		c5.734,0,10.859,0.766,16.781,0.672c2.672-0.188,3.719,2.484,4.672,4.281c1.328,4.203-1.906,8.109-0.562,12.391
		c0.172,0.766,0.938,1.328,1.594,1.734c2.781-1.266,6.219-0.484,9.078-0.672c2.562-1.625,5.891-4.391,5.516-7.547
		c-1.438-1.609-3.625-2-5.516-1.703c-0.859,0.469-0.594,1.328-0.859,2c-1.25,0.578-1.812-0.859-2.391-1.719
		c-1.047-2.297-0.281-4.484,0.672-6.672c1.984-2.188,4.766-3.328,7.234-4.953c4.297,0.094,9.156-0.953,12.688,1.344"/>
	<path fill="none" stroke="#0077BE" stroke-width="0.9747" d="M346.823,291.292c2.766,1.516,1.625,5.328,3.438,7.516
		c-0.672,4.672,1.516,8.484,3.719,12c2.375,1.25,5.141-0.188,7.438,1.25c1.406,0.484,2.375-0.766,2.844-1.703
		c0.969-1.438,0.391-3.625,0.578-5.156c-1.344-2.203-3.156-4.281-2.281-7.234c0.375-2.672,3.422-3.062,5.344-4.312h43.25
		c3.906,0.406,8.094,0.203,12.188,0.203c0.859-0.75,2.016-0.375,2.859,0c-0.562,2.297-0.656,4.953-3.234,6.016
		c-1.234,0.75-3.234,1.125-3.422,2.938c-3.047,3.25-7.344,4.109-11.531,4.953c-1.328,3.719-5.25,4.859-8.859,4.969
		c-1.25,1.906-2.203,4.562-4.688,5.141c-1.219,2.094-3.234,4.766-5.422,5.531c-1.141,2.281-3.438,4.281-5.922,4.766
		c-1.031,2.75-3.891,4.094-6.469,4.672c-1.719,3.625-6,2.078-8.75,3.906c-2.781,0.844-6.594-0.484-8.406,2.375
		c-0.297,1.344-1.594,2.469-0.844,4.016c2.578,2.266,3.516,5.141,4.953,7.891c1.891,0.953,3.812-1.031,5.719-1.625
		c1.328,0.109,2.375-1.797,3.516-0.656c-0.938,2.391-0.469,4.875,0.875,6.859c0.938,1.344,2.844,1.422,3.422,2.766
		c-0.672,1.516-4.391,1.062-2.672,3.062c2.297,0.469,5.438-1.062,7.328,0.75c-0.375,2-2.75,3.422-1.891,5.812
		c0.656,1.438,2.297,2.578,1.891,4.281c-1.328,0.859-3.516,0.578-4.75-0.375c-1.734,0.203-3.25,0.484-5.062,0.375
		c-0.188,0.297-0.75,0.672-0.281,1.047c1.234,1.156,3.047,1.047,4.469,2c-0.188,0.672-1.047,0.953-1.609,1.438
		c-3.141,1.906-2.656,5.641-2.656,8.672c-1.922,0.859-3.438-1.328-5.062-2c-3.609-1.141-6.75-3.25-10.578-4
		c-1.328-2,0.094-6.484-3.25-6.297c-2.469,1.531-5.141,2.969-8.078,2.594c-3.922,1.125-8.688,0.266-12.219-1.547
		c-4.375-1.125-6.75,2.484-10.469,3.062c-0.391,0.469-0.672,1.141-0.281,1.703c0.375,1.047,2.188,2.016,1.125,3.25
		c-6.844,0.75-13.344,0.75-20.562,0.672c4.078-3.438,8.938-6.109,13.047-9.547c1.438-0.375,2.375-1.703,3.812-2.078
		c0.484,0.938,0.188,2.375,1.516,2.938c1.734-0.375,3.734-0.469,4.766-2.078c-0.094-0.391-0.281-0.781-0.656-1.062
		c-1.047-0.094-1.812,0.203-2.766,0.391c-0.766-1.438-1.234-2.969-2.375-4.109h-5.828c-2.469,0.953,0.672,5.25-2.766,4.578
		c-5.234-1.812-10.094-4.469-15.234-6.656c5.422-1.734,11.047-3.547,16.766-4.781c1.141,1.156-0.391,3.344,1.625,4.094
		c1.984-0.938,5.438,0.578,6.281-1.906c0.953-2.281,3.922-0.547,4.484-2.562c-1.344-1.062-3.047-2.203-4.781-1.719
		c-1.219,1.062-0.375,3.812-2.469,3.625c-4.094-4.109-7.422-8.188-11.422-12.203c0.188-0.281,8,0.281,11.625,0.484
		c1.891-2.469,4.281-5.344,6.672-7.547c0.078-1.422-0.766-1.75-1.344-3.609c-0.656-0.859-0.766-2.281-1.906-2.859
		c-2.578,1.531-4.672-1.531-7.047,0c-2.953,0.656-4.109-2.859-6.969-2.375c-0.844-0.562-2.188-1.156-1.891-2.484
		c-1.906-0.672-4.203-0.484-5.719-2.188c-1.25-3.141-5.531-2.562-6.484-6c-1.234-2-4.859-2.297-4.484-5.344
		c-1.422-0.953-3.328-0.656-4.484-2.391c-0.938-2.078-1.891-4.188-4.562-4.266c-2.188-0.781-4.766-2.297-5.703-4.672
		c-2.969-1.25-6.109-1.922-8.875-3.734c-1.047-1.609-2.672-2.469-4.484-2.562c-0.375-2.953-5.422-3.531-3.812-7.25l0.766-1.328
		l16.781,0.281l23.328,0.188c5.734,0,10.859,0.766,16.781,0.672c2.672-0.188,3.719,2.484,4.672,4.281
		c1.328,4.203-1.906,8.109-0.562,12.391c0.172,0.766,0.938,1.328,1.594,1.734c2.781-1.266,6.219-0.484,9.078-0.672
		c2.562-1.625,5.891-4.391,5.516-7.547c-1.438-1.609-3.625-2-5.516-1.703c-0.859,0.469-0.594,1.328-0.859,2
		c-1.25,0.578-1.812-0.859-2.391-1.719c-1.047-2.297-0.281-4.484,0.672-6.672c1.984-2.188,4.766-3.328,7.234-4.953
		c4.297,0.094,9.156-0.953,12.688,1.344H346.823z"/>
	<path fill="#FFDE23" d="M346.245,292.807c-0.297,1.703,1.344,2.484,1.719,3.812c0.469,5.047,1.516,9.812,4,14.109
		c-4.281,0.484-8.484-0.297-12.859,0c-2.016-0.484-4.203,0.266-6.203-0.781c0.859-2.078,3.422-3.031,3.422-5.422
		c0-0.766-0.188-1.906,0.875-1.906c0.938,0.188,2-0.188,2.188-1.234c0.375-2-3.906-2.578-1.516-4.578
		c1.125-1.422,2.562-2.375,4.266-1.719c0.594,0.297,1.25,0,1.547-0.578c0.188-1.141-1.156-0.75-1.734-1.328
		c-2,1.812-3.891-1.422-5.812,0.188c-1.234-0.078-2.75,0.281-3.422-0.859c1.344-2,4-0.375,6.016-1.422
		C341.463,291.088,344.323,290.807,346.245,292.807"/>
	<path fill="#FFDE23" d="M282.307,293.651c1.438,0.969,1.234,3.047,3.047,3.828c0.297,0.562-0.281,1.234-0.859,1.234
		c-6.953,1.047-14.375,0.094-21.25-0.578c-1.609-0.844-3.328-1.516-4.094-3.422c0-0.578-0.469-1.234,0.188-1.719
		C267.245,293.479,274.385,293.479,282.307,293.651"/>
	<path fill="#FFDE23" d="M314.51,294.432c1.234,0.766,2.953,1.328,3.328,2.859c1.344,4.469-2.484,9.328,0.297,13.719
		c1.141,1.719,3.891,2.094,2.562,4.672c-1.422,0.672-3.047-0.391-4.297-1.25c-6.75-3.891,1.734-15.156-7.328-16.562
		c-6.859,0-13.344,0.375-20.578,0c-1.625-0.781-4.203-1.625-4.094-4l0.656-0.484c9.828-0.188,19.922,0.938,29.453,1.031"/>
	<path fill="#FFDE23" d="M335.682,296.995c-0.109,0.859,0.766,1.812,0.188,2.562c-1.812-1.891-3.812-0.75-6-1.047
		c-1.531-0.172-1.641,2.859-2.953,1.344c-0.484-1.625,0-3.234,1.234-4.484c1.141-1.516,2,0.672,3.047,0.859
		c0.859,0.281,2.094,0.391,2.766-0.078c-0.578-1.266-2.281-0.391-3.141-1.438c-0.109-0.203-0.859-0.672-0.297-1.062
		C332.713,293.557,334.245,295.76,335.682,296.995"/>
	<path fill="#FFDE23" d="M399.135,295.088c0.484,1.531-1.719,2.781-2.766,3.641c-1.234,0.547-2.859,0.844-4.281,0.469
		c-4.578-0.672-10.297,0.672-15.062-0.469c-2.375,0.844-6.375-0.672-7.625,2.562c0.188,4.469,1.625,9.625-1.719,13.141
		c-1.438,1.531-3.328,1.922-5.141,2.578c-0.375-0.172-0.953,0-1.156-0.469c0.109-1.047-0.375-2.766,1.156-3.25
		c1.438,0,2.484-1.609,3.141-2.562c1.234-3.344,0.109-7.047-1.703-9.812c-0.297-1.344-0.297-3.047,0.656-4.109
		c4.094-2.938,9.609-0.75,14.391-1.906C385.604,295.198,392.182,294.995,399.135,295.088"/>
	<path fill="#FFDE23" d="M423.432,295.76c0.375,1.906-1.812,2.578-2.844,3.625c-7.078,1.234-15.266,1.422-22.125-0.188
		c0.188-1.438,1.719-2.281,2.375-3.625c6.781-0.953,14.109,0.484,20.781-0.484C422.198,295.292,422.948,295.198,423.432,295.76"/>
	<path fill="#FFC42C" d="M299.463,299.854c0.188,0.469,0.766,0.766,0.484,1.438c-1.438,1.125-3.344,0.453-5.156,0.844
		c-2.109,0.484-4-0.578-5.438-2.281l0.188-0.672C292.87,299.479,296.417,299.182,299.463,299.854"/>
	<path fill="#FFC42C" d="M311.651,300.917l-0.859,0.844c-3.328-0.078-8.391,1.344-10-2.078c1.422-0.672,3.344,0,4.859-0.484
		C307.838,299.682,310.213,298.729,311.651,300.917"/>
	<path fill="#FFC42C" d="M287.932,299.854c0.297,2,3.234,2,3.156,3.625c-7.828,1.328-17.453,2.938-24.406-1.344
		c-0.672-0.578-1.156-1.234-1.328-1.906c1.812-0.953,4,0.188,6,0.297C276.792,301.182,282.682,300.229,287.932,299.854"/>
	<path fill="#FFDE23" d="M334.151,300.432v0.109h-1.625v-0.484C333.12,300.151,333.776,299.76,334.151,300.432"/>
	<path fill="#FFC42C" d="M381.604,300.229c0.484,0.094,0.562,0.672,0.562,1.141c-2.672,3.156-7.609,1.234-11.031,1.719
		c-0.578-0.484-0.578-1.344-0.109-1.812C374.088,299.854,377.979,300.323,381.604,300.229"/>
	<path fill="#FFC42C" d="M393.417,300.526c0.672,1.812-1.703,2.281-2.656,3.141c-2.578,0.859-5.25-0.188-7.719-0.578
		c-1.25-0.859,0.672-1.344,0.672-2.188l0.672-0.484"/>
	<path fill="#FFC42C" d="M417.432,301.385c0.766,0.375,0,0.859,0,1.234c-4.859,3.922-11.047,4.016-17.438,3.25
		c-2.375-0.781-5.047-0.578-7.234-1.703c1.234-1.062,2.266-2.594,3.219-3.625C402.948,301.87,410.182,302.432,417.432,301.385"/>
	<path fill="#FFDE23" d="M302.698,303.479v1.234c-1.156,0-2.297-0.281-3.234,0.953c-2.391,0.094-5.062,0.188-6.219-1.812
		c1.812-1.047,3.734-0.281,5.734-0.75C300.12,302.995,302.026,301.76,302.698,303.479"/>
	<path fill="#FFDE23" d="M312.323,303.651c0.375,0.875-0.562,1.531-1.234,1.719c-2.203,0.109-4.875,1.062-6.875-0.562
		c-0.469-0.281-1.047-1.047-0.281-1.516C306.792,304.229,309.651,302.229,312.323,303.651"/>
	<path fill="#FFDE23" d="M388.838,305.401c0.672,1.141-1.031,1.609-1.703,2.188c-2.672,0.578-6.219,0.656-7.922-1.344
		c0.375-0.844,1.047-1.703,1.703-2.281C383.323,305.01,386.167,304.917,388.838,305.401"/>
	<path fill="#FFDE23" d="M378.557,305.573c-1.641,1.906-4.391,1.156-6.594,1.719c-0.938-0.375-1.047-1.422-0.938-2.484l0.266-0.266
		h7.266"/>
	<path fill="#FFDE23" d="M295.651,306.917c0.469,0.375,0.469,1.141,0.188,1.516c-6.109,2.109-14.391,3.719-19.719-1.328v-0.672
		c4.75,0,10,0.188,14.281-1.625C292.698,304.245,293.651,306.917,295.651,306.917"/>
	<path fill="#FFDE23" d="M399.62,307.104c2.281-0.094,4.375,0.656,6.375,0.656c0.203,1.156-1.422,1.812-2.281,2.391
		c-5.141,2.469-11.438,0.578-16.391-0.859c0-0.859,1.25-1.047,1.812-1.703c0.766-1.641,2.469-2.672,4.188-1.719
		C395.135,306.807,397.62,306.917,399.62,307.104"/>
	<path fill="#FFDE23" d="M305.463,307.385c0.109,0.859,0,1.719-0.859,1.906c-2.469,0.203-5.328,0.578-7.25-1.125
		c-0.484-1.156,0.781-1.25,1.438-1.438C301.167,307.948,303.557,304.917,305.463,307.385"/>
	<path fill="#FFDE23" d="M312.323,307.588c-0.109,0.656-0.375,1.328-1.047,1.516c-2,0.281-4-0.078-4.953-1.719
		c1.141-0.953,2.281-0.188,3.625-0.656C310.792,306.917,312.323,306.245,312.323,307.588"/>
	<path fill="#FFDE23" d="M384.167,309.292c0.375,1.516-1.891,2.188-2.859,2.953c-1.516-0.484-3.141-0.484-4.281-1.516
		c-0.109-1.062,0-2,0.672-2.781C379.979,308.057,381.979,308.995,384.167,309.292"/>
	<path fill="#FFDE23" d="M376.167,308.807c-0.188,0.859-0.859,1.625-1.625,2c-1.328-0.188-2.484,1.234-3.703,0.188
		c0-0.953-0.188-1.891,0.672-2.562C373.12,308.807,374.838,307.667,376.167,308.807"/>
	<path fill="#FFDE23" d="M299.838,310.729c0.484,0.656,1.047,1.625,0.656,2.562c-4.375,1.812-10.188,3.812-14.766,1.531
		c-0.562-0.766-1.047-1.531-0.844-2.578c1.422-0.656,3.422-0.094,4.938-0.562c3.047-0.391,5.828-2.188,9.156-1.516"/>
	<path fill="#FFDE23" d="M312.323,310.807c-0.109,1.047-1.234,1.047-1.906,1.625c-2.875,0.375-6.281,2.375-8.578-0.391
		c-0.375-0.938,0.562-1.344,1.234-1.344c2.953-1.125,5.719-0.172,8.875-0.172"/>
	<path fill="#FFDE23" d="M396.385,312.729c0.844,0.094,0.469,1.234,0.375,1.703c-2.75,3.734-7.719,1.734-11.156,1.062
		c-0.938-1.156-3.406-0.094-3.328-2.203c1.719-0.859,2.859-3.609,5.141-2.453C390.182,312.057,393.338,312.917,396.385,312.729"/>
	<path fill="#FFDE23" d="M379.901,313.104c0.281,0.188,0.188,0.562,0.188,0.859c-1.047,1.141-2.672,1.438-4.094,1.031
		c-1.344-0.672-3.25-0.672-3.812-2.266c1.906-0.672,4.484-1.734,6.188,0"/>
	<path fill="#FFDE23" d="M314.432,313.963c-1.047,2.281-4.109,2.766-6.391,3.438c-1.328-0.109-2.578-0.484-3.234-1.734
		c0.172-1.609,2.281-0.484,3.234-1.031c1.906-0.391,3.531-1.641,5.531-1.906"/>
	<path fill="#FFDE23" d="M373.026,315.104c1.328,0.484,2.484,1.25,4,1.25c0.281,0.266,0.109,0.641,0.109,1.047
		c-1.438,1.234-3.812,1.234-5.625,0.656c-0.969-0.656-2.594-0.578-2.969-2.094c0-1.047,0.672-1.906,1.438-2.562
		C371.307,313.292,371.885,314.729,373.026,315.104"/>
	<path fill="#FFDE23" d="M304.229,316.995c-0.188,1.625-2.188,2.016-3.438,2.781c-3.031,0.562-6.938,2.656-9.531-0.188
		c-0.469-0.578-0.844-1.156-0.75-2.016c0.953-0.75,2.469-0.094,3.422-0.578c2.578-0.656,5.141-1.328,7.438-2.766
		C303.667,313.479,303.088,316.151,304.229,316.995"/>
	<path fill="#FFDE23" d="M384.838,316.823l6.594,1.609c0.75,0.281,0.266,0.953,0.172,1.531c-1.234,2.562-4.188,1.406-6.391,1.703
		c-2.375-0.953-5.141-1.516-6.859-3.625c0.203-1.328,0.969-2.375,2.188-2.938C382.557,314.338,383.401,316.432,384.838,316.823"/>
	<path fill="#FFDE23" d="M317.088,316.542c-0.297,2.484-3.141,3.438-4.953,4.578c-1.531,0.094-3.047,0.188-3.906-1.344
		c0.078-0.375-0.188-0.953,0.281-1.234c2.469-0.109,4.484-1.531,6.578-2.672C315.87,315.87,316.713,315.682,317.088,316.542"/>
	<path fill="#FFDE23" d="M372.542,319.588c0.672,0.188,0.859,1.031,0.484,1.516c-1.141,1.156-2.672,1.812-4.297,1.25
		c-1.516-1.062-4.109-2.109-4.297-4.297c0.969-0.859,2.219-1.328,3.453-0.859C368.917,318.807,370.917,319.026,372.542,319.588"/>
	<path fill="#FFC42C" d="M320.901,318.432c0.188,2.562-2.562,4.297-4.281,5.812c-1.422,0.375-2.969,0.109-3.906-1.047
		c0.266-1.984,2.75-1.906,3.906-3.422C317.573,318.542,319.87,315.963,320.901,318.432"/>
	<path fill="#FFC42C" d="M366.729,322.729c0.766,0.672,2.188,0.484,1.812,2c-1.047,1.047-2.766,1.234-4.297,0.859
		c-0.953-0.672-2.188-1.344-2.656-2.562c-0.109-1.344-0.766-3.547,0.469-4.484C364.354,318.917,364.432,321.963,366.729,322.729"/>
	<path fill="#FFDE23" d="M307.557,320.62c0.484,0.859-0.281,1.641-0.766,2.188c-1.125,1.438-2.75,1.531-4.078,2.484
		c-2.391,0.469-5.625,0.781-7.344-1.625c-0.766-1.609,1.234-1.031,1.906-1.703c3.25,0,5.812-1.719,8.578-3.234
		C307.01,318.62,307.01,319.963,307.557,320.62"/>
	<path fill="#FFDE23" d="M383.901,322.729c0.953,0.188,2.094,0.094,2.859,0.672c0,1.047-0.859,1.812-1.719,2.375
		c-3.328,2-6.578-0.484-9.25-2.094c-0.75-0.656-2-1.719-1.328-2.859c0.469-0.859,1.328-1.531,2.188-1.719
		C378.854,320.62,381.338,321.87,383.901,322.729"/>
	<path fill="#FFDE23" d="M311.651,323.573c-0.109,2.297-2.672,3.344-4.109,4.781c-1.328,0.859-3.031,1.344-4.656,0.859
		c-0.672-0.672-2.188-0.672-2.094-2.109c3.234-0.672,6-2.469,8.562-4.75C310.213,322.542,311.276,322.542,311.651,323.573"/>
	<path fill="#FFC42C" d="M320.901,323.026c0.188,1.141,0.484,2.844-0.859,3.438c-0.844-0.391-1.984,0.078-2.578-0.859
		c0.594-1.141,1.922-2.297,3.062-2.875"/>
	<path fill="#FFDE23" d="M376.463,325.963c1.625,0.672,3.516,1.234,4.844,2.188c0,1.328-1.516,2-2.469,2.391
		c-3.422,1.719-5.609-1.812-8-3.531c-0.672-0.766-0.969-1.609-1.047-2.562c0.953-0.969,2.188-1.156,3.438-1.266"/>
	<path fill="#FFDE23" d="M315.948,325.963c-0.859,2.672-3.438,5.812-6.375,6.484c-1.547,0.188-2.484-0.781-3.734-1.156
		c0.484-1.516,2.188-1.328,3.25-2.281C311.37,327.776,312.792,323.667,315.948,325.963"/>
	<path fill="#FFC42C" d="M363.792,326.635c0.094,0.469-0.375,0.766-0.672,0.859c-0.844,0-1.438,0.172-1.703-0.672
		c-0.109-0.578,0.078-1.234,0.656-1.422C362.823,325.479,363.495,325.963,363.792,326.635"/>
	<path fill="#FFC42C" d="M373.213,330.917c0.562,0.375,1.234,0.375,1.703,1.047c0.391,1.438-1.219,1.328-1.891,2
		c-1.625,0.484-3.438,0.109-4.594-0.938c-1.125-1.812-2.75-3.328-2.75-5.531c0.859-0.766,2.094-0.766,3.234-0.859
		C370.167,328.151,371.588,329.588,373.213,330.917"/>
	<path fill="#FFC42C" d="M320.245,328.151c0.094,2.766-2.391,4.188-4.297,5.812c-0.938,0.562-2.297,0.375-3.234,0.188
		c-0.391-0.297-1.25-0.188-0.859-1.047c2.953-1.328,4.094-6.953,7.812-5.25"/>
	<path fill="#FFC42C" d="M366.354,332.432c0.766,0.672,2.109,1.531,1.531,2.562c-1.641,1.344-4.094,0.594-5.641-0.266
		c-1.328-1.328-1.125-3.438-0.859-5.141c0.672-1.156,1.812-0.859,2.859-0.859"/>
	<path fill="#FFC42C" d="M321.276,333.026c-0.109,0.766-0.484,1.516-1.234,1.812c-0.656,0.078-1.234,0-1.719-0.484
		c0.109-1.234,0.953-1.812,1.719-2.562C320.713,331.792,321.276,332.354,321.276,333.026"/>
	<path fill="#FFDE23" d="M360.729,347.401c0.281,1.625,2.562,2.672,2,4.484c-1.047,0.562-1.891,1.516-3.234,1.141
		c-1.344-2.391-2.281-4.844-2.578-7.719C357.776,342.26,359.87,346.354,360.729,347.401"/>
	<path fill="#FFDE23" d="M325.573,345.307c-0.188,1.703-0.375,3.438-1.234,4.844c-1.25,1.156-2.875,0.672-4.297,0.297
		c0.578-2.375,3.234-4,4.484-6C325.198,344.26,325.385,344.823,325.573,345.307"/>
	<path fill="#FFDE23" d="M328.62,347.885c0.281,1.234,0.375,2.859-0.859,3.625c-0.469-0.094-1.141,0.297-1.328-0.375
		c0.078-1.438-0.484-3.25,0.484-4.391C327.76,346.557,328.432,347.213,328.62,347.885"/>
	<path fill="#FFDE23" d="M356.729,351.135c0.188,0.562,0.484,1.141,0.375,1.703c-0.938,0.578-2.094,0-2.297-0.938
		c1.062-1.531-0.562-3.812,1.25-4.688C356.542,348.463,356.542,349.792,356.729,351.135"/>
	<path fill="#FFDE23" d="M352.635,353.62c-0.484,0.172-0.859,0.656-1.516,0.469c-1.438-1.703,1.703-2.859,2.188-4.469
		c0.375,0,0.766-0.672,1.047,0C354.542,351.229,353.495,352.385,352.635,353.62"/>
	<path fill="#FFDE23" d="M332.245,352.838c-0.109,0.672-0.562,0.859-1.047,1.234c-1.438-0.375-1.531-2-1.922-3.047
		c-0.078-0.484,0.391-0.859,0.859-0.75C330.713,351.213,331.854,351.885,332.245,352.838"/>
	<path fill="#FFDE23" d="M371.307,350.651c0.203,0.672,0.484,1.703-0.281,2.188h-0.375
		C370.354,352.182,370.354,350.76,371.307,350.651"/>
	<path fill="#FFDE23" d="M369.604,351.698c0.188,1.516-0.766,2.578-2,3.25c-0.562-0.109-1.234,0.266-1.625-0.406
		c0.188-1.328,0.766-2.656,2.094-3.406C368.557,351.323,369.495,350.838,369.604,351.698"/>
	<path fill="#FFDE23" d="M321.495,352.182c0,0.953-1.484,2.125-2.062,2.688c-2.531-0.953-9.844-4.125-9.844-4.125
		C310.885,350.745,319.463,351.854,321.495,352.182"/>
	<path fill="#FFDE23" d="M324.713,351.885c-0.375,0.094-0.188,0.469-0.188,0.844c0.969,0.391,0.969,1.734,0.672,2.594
		c-0.297,0.75-1.25,1.031-1.922,0.672c-0.75-0.594-1.047-1.438-0.672-2.297C322.713,352.729,323.854,351.401,324.713,351.885"/>
	<path fill="#FFDE23" d="M330.151,354.917c0,1.641-1.031,3.062-2.375,3.828c-0.469,0.281-1.141,0.109-1.734,0.109
		c-0.75-0.781,0-1.828,0-2.688c0.594-1.141,0.109-2.859,1.547-3.438C329.385,351.963,329.495,354.073,330.151,354.917"/>
	<path fill="#FFDE23" d="M318.963,356.932c0.109,1.047-0.141,2.375-0.469,3.969c-2.859-2.391-9.219-9.219-9.219-9.219
		C311.479,352.729,317.354,355.01,318.963,356.932"/>
	<path fill="#FFDE23" d="M364.463,353.62c0.094,0.953,0.094,1.891-0.672,2.562c-0.562,0.469-1.625,1.062-2.375,0.859
		c-0.781-0.766,0-1.719,0-2.578C362.073,353.62,363.417,352.385,364.463,353.62"/>
	<path fill="#FFDE23" d="M356.432,354.745c0.188,1.516,1.156,3.703-0.188,4.859c-1.438,0.375-2.297-0.75-3.141-1.625
		c-0.672-0.469-0.672-1.719-0.672-2.672C352.995,353.307,355.479,352.932,356.432,354.745"/>
	<path fill="#FFDE23" d="M371.979,354.917c-2.859,2.203-6.484,2.672-9.703,4.109c-0.969,1.422-2.484,1.156-3.828,1.422v-0.844
		c4.203-1.719,8.297-3.812,12.578-5.344C371.51,354.073,371.885,354.448,371.979,354.917"/>
	<path fill="#FFDE23" d="M335.682,356.26c0.375,1.719,1.328,4.188,0,5.531c-1.812,0.281-2.969-1.156-4-2.391
		c-0.672-0.859-1.047-2-0.672-3.141C331.963,353.776,334.635,354.37,335.682,356.26"/>
	<path fill="#FFDE23" d="M351.307,355.588c1.328,2-1.047,3.344-1.891,4.672c-0.672,0.672-1.266,1.234-2.297,1.047l-0.484-0.75
		C347.307,358.542,347.682,351.588,351.307,355.588"/>
	<path fill="#FFDE23" d="M360.542,355.135c-0.094,1.328-0.375,2.859-1.719,3.438c-0.391,0-0.656-0.109-0.844-0.391
		c0.078-1.344-0.391-3.047,1.047-3.719C359.682,354.276,360.167,354.651,360.542,355.135"/>
	<path fill="#FFDE23" d="M324.135,357.323v0.672c-1.531,0.656-2.562-1.156-4.109-0.969c-0.844-0.375-0.375-1.141,0-1.594
		C321.76,355.323,322.604,357.026,324.135,357.323"/>
	<path fill="#FFDE23" d="M373.698,358.557c0.375,0.844-0.484,1.328-0.969,1.703c-1.516,0-2.656-1.234-3.625-2.266
		c-0.078-0.594,0.688-0.672,1.062-0.969C371.588,356.745,373.026,357.213,373.698,358.557"/>
	<path fill="#FFDE23" d="M345.963,360.26c-0.375,0.297-0.281,1.141-1.031,0.859c-0.578-0.672-1.25-1.516-0.672-2.375
		C345.307,356.167,346.823,358.932,345.963,360.26"/>
	<path fill="#FFDE23" d="M339.104,360.932c1.031-1.328,2.766,0.484,3.703-1.047c0.875,0.094,1.328,1.141,1.625,1.906
		c0.109,1.328-0.859,1.812-1.703,2.578c-1.641,0.078-2.969-0.484-3.828-1.734c-0.281-0.562,0.672-1.047-0.172-1.328
		c-0.203,0.281-0.484,0.391-0.859,0.281c-0.875-0.656-0.484-1.984-0.297-2.844C339.104,358.26,338.807,360.073,339.104,360.932"/>
	<path fill="#FFDE23" d="M369.323,360.073c0.281,0.766-0.578,0.562-0.859,0.859c-2.297-1.531-4.969,3.438-5.734-0.484
		c1.438-1.234,3.141-1.891,4.953-1.594C368.354,359.12,369.026,359.401,369.323,360.073"/>
	<path fill="#FFDE23" d="M332.713,363.885c0.859,1.625-1.891,1.812-0.656,3.531c0,0.375,0,0.656-0.375,0.844
		c-1.531,0-0.969-2.375-2.578-2.672c-1.344-0.656-1.625,1.078-2.391,1.344c-0.469-1.047,0.766-2,1.516-2.562
		c0.672-0.109,1.344-0.375,1.641-1.047c-0.203-0.672-1.047-0.875-1.641-0.469c-0.469,0.469-0.844,1.141-1.703,0.844
		c-0.953-1.328,1.047-1.047,1.422-2.109c0.953-0.656,0.953-2.375,2.391-2.188C331.854,360.557,330.713,362.854,332.713,363.885"/>
	<path fill="#FFDE23" d="M352.823,361.135c1.156,1.438-1.609,2.281-0.188,3.438c0.766-0.109,1.719-0.109,2.094,0.672v0.656
		c-1.422-0.297-3.125,0.375-3.797,1.719c-0.109,0.172-0.391,0.172-0.484,0.172c-0.391-0.359,0-1.141-0.391-1.516
		c-1.141-0.953-1.609,1.344-2.75,0.297c-0.391-0.484-0.578-1.141-1.141-1.344c-0.781,0-1.531,0.094-2.109-0.172
		c0-0.594,0.672-0.875,1.062-1.359c1.125-0.078,2.375-0.078,2.859,1.141c0.562,0,1.422-0.266,1.891-0.938
		c0.188-1.141-0.562-2.203,0.188-3.141C350.823,359.807,352.635,359.62,352.823,361.135"/>
	<path fill="#FFDE23" d="M356.542,361.323c0.188,0.375-0.109,0.766-0.484,0.859c-0.469,0.375-1.031,0-1.328-0.375
		c-0.094-0.375,0-0.969,0.469-1.047C355.776,360.651,356.354,360.838,356.542,361.323"/>
	<path fill="#FFDE23" d="M362.917,363.026c0.109,0.578-0.281,1.156-0.859,1.344c-1.328,0-1.719-1.531-2.578-2.188
		c-0.188-1.047,0.859-0.859,1.516-0.859C361.682,361.807,362.542,362.182,362.917,363.026"/>
	<path fill="#FFDE23" d="M373.604,362.276c0.484,1.141-0.859,2.016-1.625,2.562c-1.328,0.297-2.562,0.406-3.906-0.078
		c-0.094-1.25,0.766-1.906,1.344-2.766C370.838,361.62,372.557,361.135,373.604,362.276"/>
	<path fill="#FFDE23" d="M312.463,361.213c-0.484,1.109-1.125,2.719-1.906,3.5c-2.016,0.094-11.406,0.719-11.406,0.719
		c-0.094,0.172,8.531,1.047,11.875,1.5c-0.094,0.484,1.469,4.516,0.797,4.609c-1.266-0.312-11.109-4.766-14.141-6.359
		C300.229,364.557,309.604,361.698,312.463,361.213"/>
	<path fill="#FFDE23" d="M367.401,362.182c0.375,0.844-0.562,1.516-0.672,2.375c-0.766,0.281-1.703,0.484-2.484,0.188
		c-0.656-1.328,1.234-1.797,1.922-2.469C366.62,362.37,366.917,361.995,367.401,362.182"/>
	<path fill="#FFDE23" d="M325.651,363.51c-0.094,0.953,0.375,1.719-0.281,2.375c-1.047-0.281-1.344-1.891-2.562-2h-1.531
		c-0.109-0.859,0.562-1.141,1.156-1.609C323.651,362.37,325.088,362.276,325.651,363.51"/>
	<path fill="#FFDE23" d="M379.213,362.651c0.109,1.156-0.953,2.188-1.906,2.594l-1.141-0.203c-0.656-1.156,0.859-2.016,1.719-2.766
		C378.354,362.479,378.932,361.995,379.213,362.651"/>
	<path fill="#FFDE23" d="M359.682,363.885c-0.656,0.953-2.188,0.953-3.141,1.703c-0.484-0.078-0.859-0.266-1.141-0.75
		c-0.391-0.844,0.469-1.328,1.062-1.703C357.385,362.651,359.12,362.651,359.682,363.885"/>
	<path fill="#FFDE23" d="M375.604,363.026c0.188,0.578-0.297,0.969-0.672,1.344h-0.656
		C374.276,363.698,374.745,362.651,375.604,363.026"/>
	<path fill="#FFDE23" d="M338.057,365.042c0.297,0.766,0.094,1.703,0.188,2.562c-1.156,1.25-2.562-1.047-4,0.188
		c-0.188-0.656-0.859-1.422-1.344-1.906C333.76,364.37,336.823,363.026,338.057,365.042"/>
	<path fill="#FFDE23" d="M323.463,365.213c0,1.453-0.375,3.344-1.703,3.828c-0.672-0.859-0.859-2.188-0.484-3.344
		C321.76,365.12,322.807,364.073,323.463,365.213"/>
	<path fill="#FFDE23" d="M319.12,364.729c0.188,0.469,0.391,1.812,0,1.891l-7.172,0.062c-0.375-0.297-0.125-1.406-0.125-1.812
		C313.87,364.729,319.12,364.729,319.12,364.729"/>
	<path fill="#FFDE23" d="M342.354,365.698c0.281,0.672-0.484,1.047-0.859,1.25c-0.859,0-1.922,0.078-2.188-0.672
		c-0.406-0.766,0.469-0.688,0.859-1.047C340.917,365.323,341.87,364.932,342.354,365.698"/>
	<path fill="#FFDE23" d="M359.979,365.885c0.375,1.047,0.188,2.297-0.484,3.156c-0.375,0.484-0.844,0.484-1.328,0.656
		c-0.375-1.328-0.859-3.625,0.281-4.484C359.12,365.213,359.87,365.213,359.979,365.885"/>
	<path fill="#FFDE23" d="M377.885,365.885c0.078,0.297,0.469,0.484,0.281,0.859l-0.469,0.391
		c-5.344,0.375-10.484-0.109-15.641,0.281c-0.469-0.281-0.578-0.766-0.469-1.344c1.328-1.031,3.031-0.078,4.578-0.188"/>
	<path fill="#FFDE23" d="M346.167,367.792c-0.969,0.578-0.859,2.297-2.297,1.922c-0.672-0.859-0.281-2.094,0-2.953
		C344.448,365.245,347.495,366.088,346.167,367.792"/>
	<path fill="#FFDE23" d="M354.542,367.323c0.094,1.438-0.109,2.766-1.234,3.719h-1.156c0-1.422-0.391-3.719,1.156-4.484
		C353.87,366.479,354.354,366.854,354.542,367.323"/>
	<path fill="#FFDE23" d="M357.12,366.745c0,0.188,0,0.484-0.188,0.562h-0.375C356.448,366.932,356.745,366.26,357.12,366.745"/>
	<path fill="#FFDE23" d="M329.651,367.323c0.203,1.438-0.953,2.297-1.219,3.531c-0.391,0-0.766,0.094-1.062-0.281
		c-0.078-1.438,0.188-2.953,1.062-3.812C328.995,366.667,329.37,366.948,329.651,367.323"/>
	<path fill="#FFDE23" d="M326.526,369.323c-0.094,0.484,0.391,1.141-0.281,1.438c-0.859,0-1.609-0.469-2.094-1.062
		c-0.297-0.562,0-1.234,0.562-1.516C325.573,367.995,326.151,368.667,326.526,369.323"/>
	<path fill="#FFDE23" d="M367.682,369.526v1.516c-1.328,0.672-2.562-0.188-3.219-1.344c0.172-0.562-0.297-1.422,0.562-1.516
		C366.245,367.807,367.213,368.557,367.682,369.526"/>
	<path fill="#FFDE23" d="M374.088,369.885c0.188,0.969-0.203,1.438-1.047,1.719c-1.516,0-2.859-0.672-4.094-1.422
		c-0.484-0.484,0.172-0.953,0.375-1.328C370.651,368.182,373.417,367.698,374.088,369.885"/>
	<path fill="#FFDE23" d="M379.698,369.698c0.844,0.578,0.094,1.625-0.672,1.719c-1.719,0.469-2.953-0.859-3.922-1.906
		c-0.078-0.469,0.109-1.047,0.484-1.25C377.213,368.26,378.932,368.073,379.698,369.698"/>
	<path fill="#FFDE23" d="M361.87,368.667c0.109,0.188-0.188,0.469-0.281,0.375c-0.281-0.094-0.578,0.094-0.75-0.188
		C361.01,368.37,361.588,368.37,361.87,368.667"/>
	<path fill="#FFDE23" d="M336.542,369.135c-0.109,1.25-0.375,2.672-1.531,3.141c-0.578-0.656-0.375-2.188-0.188-3.141
		C335.198,368.76,336.167,368.276,336.542,369.135"/>
	<path fill="#FFDE23" d="M350.245,369.526v0.469h-1.516c-0.375-0.469-0.109-1.141,0.297-1.328
		C349.479,368.745,350.057,368.932,350.245,369.526"/>
	<path fill="#FFDE23" d="M345.12,372.088c0.672,1.219-0.484,2.578-1.531,2.75c-1.906-0.094-4.844,1.141-5.906-1.047
		c0.391-1.531-0.188-3.812,1.906-4.266c0.953-0.219,1.719-1.156,2.766-0.484C342.635,370.448,343.963,371.229,345.12,372.088"/>
	<path fill="#FFDE23" d="M333.385,370.37c0.297,1.141-0.859,1.703-1.703,1.891l-1.531-0.172c-0.391-1.531,1.422-1.344,2.094-2.094
		C332.62,370.073,333.198,369.807,333.385,370.37"/>
	<path fill="#FFDE23" d="M361.213,370.557c0.281,0.672-0.484,1.156-0.859,1.328c-0.484,0-0.953-0.172-1.047-0.656
		C359.573,370.557,360.542,369.698,361.213,370.557"/>
	<path fill="#FFDE23" d="M350.542,372.573c0,0.672-0.484,1.344-1.141,1.438c-1.047-0.203-2.391,0.672-3.156-0.391
		c-0.297-1.344,0.672-2.375,1.719-2.859C349.198,370.573,350.338,371.526,350.542,372.573"/>
	<path fill="#FFDE23" d="M362.729,374.838c2.766,1.344,5.812,2.109,8.297,3.906c0.188,0.484-0.375,0.484-0.578,0.672
		c-1.609,0.578-2.391-0.859-3.609-1.328l-11.25-5.156c-0.969-0.453-1.234-1.703-0.188-2.078
		C357.87,371.995,360.448,373.135,362.729,374.838"/>
	<path fill="#FFDE23" d="M365.682,371.885c0.484,1.047-0.844,1.531-1.438,2.109c-1.141,0.562-2.266-0.203-2.859-1.25
		c0.375-1.031,1.531-1.141,2.203-1.703C364.542,370.854,365.213,371.323,365.682,371.885"/>
	<path fill="#FFDE23" d="M328.495,373.62l-8.25,3.969c-0.375-0.188-0.641-1.547-0.641-1.938l8.109-3.484
		C327.901,372.26,328.307,373.323,328.495,373.62"/>
	<path fill="#FFDE23" d="M369.979,373.432c0.281,1.328-1.234,1.703-1.906,2.297c-0.469,0.078-0.859,0.172-1.328,0.172
		c-0.391-0.375-0.688-0.766-0.578-1.219C367.307,374.01,368.745,372.385,369.979,373.432"/>
	<path fill="#FFDE23" d="M336.713,373.135c0.297,0.297-0.094,0.953-0.547,1.047c-0.219,0-0.406,0-0.484-0.188
		C335.682,373.526,336.167,372.854,336.713,373.135"/>
	<polyline fill="#FFDE23" points="318.963,371.87 317.87,376.542 303.417,382.51 	"/>
	<path fill="#FFDE23" d="M373.417,375.323c0.094,0.859-0.562,1.531-1.234,1.922c-0.766,0.266-1.922,0.266-2.578-0.391
		c-0.656-1.234,1.047-1.344,1.703-2.016C372.073,374.76,372.745,374.948,373.417,375.323"/>
	<path fill="#FFDE23" d="M358.448,376.37v1.906c-0.766,0.656-1.703-0.281-1.891-1.047c0.375-0.859-0.578-1.625,0.188-2.188
		C357.792,374.838,358.167,375.604,358.448,376.37"/>
	<path fill="#FFDE23" d="M361.01,377.026c0.203,0.672,0.375,1.828-0.172,2.391c-0.859,0.391-1.266-0.469-1.531-0.953
		c-0.109-0.766-0.484-1.797,0.188-2.469C360.057,376.182,360.838,376.37,361.01,377.026"/>
	<path fill="#FFDE23" d="M365.979,379.135c0.375,0.766,0.859,1.906,0.188,2.781c-0.938-0.109-1.812-0.594-2.75-0.875
		c-0.391-1.047-1.344-2.188-0.484-3.344C364.167,377.62,365.026,378.463,365.979,379.135"/>
	<polyline fill="#FFDE23" points="322.604,381.729 304.026,382.838 319.276,378.073 	"/>
	<path fill="#FFDE23" d="M370.651,381.51c0.188,0.672,0.375,1.719-0.188,2.188c-0.969,0.109-2-0.375-2.188-1.328
		c-0.203-0.375-0.203-1.031-0.203-1.516C368.838,379.698,370.354,380.667,370.651,381.51"/>
	<polyline fill="#FFDE23" points="324.026,338.354 324.026,325.401 322.37,325.401 322.37,335.62 	"/>
	<polyline fill="#FFDE23" points="325.385,325.401 325.385,341.823 327.042,344.182 327.042,325.401 	"/>
	<polyline fill="#FFDE23" points="328.401,325.401 328.401,345.385 330.042,347.76 330.042,325.401 	"/>
	<polyline fill="#FFDE23" points="331.401,325.401 331.401,349.198 333.057,351.213 333.057,325.401 	"/>
	<polyline fill="#FFDE23" points="334.417,325.401 334.417,352.542 336.073,354.667 336.073,325.401 	"/>
	<polyline fill="#FFDE23" points="337.417,325.401 337.417,355.745 339.088,357.76 339.088,325.401 	"/>
	<polyline fill="#FFDE23" points="324.026,338.354 324.026,325.401 322.37,325.401 322.37,335.62 	"/>
	<polyline fill="#FFC42C" points="325.385,325.401 325.385,341.823 327.042,344.182 327.042,325.401 	"/>
	<polyline fill="#FFDE23" points="328.401,325.401 328.401,345.385 330.042,347.76 330.042,325.401 	"/>
	<polyline fill="#FFC42C" points="331.401,325.401 331.401,349.198 333.057,351.213 333.057,325.401 	"/>
	<polyline fill="#FFDE23" points="334.417,325.401 334.417,352.542 336.073,354.667 336.073,325.401 	"/>
	<polyline fill="#FFC42C" points="337.417,325.401 337.417,355.745 339.088,357.76 339.088,325.401 	"/>
	<polyline fill="#FFDE23" points="358.37,338.37 358.37,325.417 360.026,325.417 360.026,335.635 	"/>
	<polyline fill="#FFC42C" points="357.01,325.417 357.01,341.838 355.354,344.198 355.354,325.417 	"/>
	<polyline fill="#FFDE23" points="354.01,325.417 354.01,345.401 352.354,347.776 352.354,325.417 	"/>
	<polyline fill="#FFC42C" points="350.995,325.417 350.995,349.213 349.338,351.229 349.338,325.417 	"/>
	<polyline fill="#FFDE23" points="347.995,325.417 347.995,352.557 346.323,354.698 346.323,325.417 	"/>
	<polyline fill="#FFC42C" points="344.979,325.417 344.979,355.76 343.323,357.776 343.323,325.417 	"/>
	<polyline fill="#FFDE23" points="340.432,325.401 340.432,358.245 341.198,358.963 342.088,358.245 342.088,325.401 	"/>
	<rect x="322.37" y="312.979" fill="#FFDE23" width="37.797" height="11.078"/>
	<path fill="#FFC42C" d="M325.01,314.385c3.344,2.141,5.141,3.344,6.188,7.25c-0.859-2.109-1.75-4.203-2.609-6.312
		c1.875,0.703,4.641-0.078,5.766,1.828l3.734,6.469c-0.219-0.516-0.625-1.125-1.078-1.094c-5.719,0.422-9-3.578-9.938-9.109
		c1.016,1.828,2.062,3.656,3.078,5.484c-0.547-0.188-0.969-0.5-1.391-0.859"/>
	<path fill="#FFC42C" d="M341.823,314.885c2.203,2.828,3.906,3.328,5.5,6.5c-1.094-1.922-2.172-3.828-3.266-5.781
		c1.312,2.375,2.594,4.719,3.938,7.094c-1.062-1.922-2.078-3.875-3.125-5.781c0.938,0.969,2.062,1.844,3.516,1.516l5.281,4.484
		c-4.734,0.266-7.438-4.75-9.609-7.312c1.094,1.953,2.172,3.859,3.266,5.781c-1.312-2.359-2.656-4.734-3.969-7.109
		c1.047,1.906,2.109,3.781,3.156,5.688c-0.391-0.406-0.703-0.828-0.938-1.281"/>
	<path fill="#FFC42C" d="M339.948,295.995c2.891,2.812,5.859,5.625,6.828,9.781c-1.062-1.938-2.109-3.891-3.172-5.844
		c1.594,2.531,2.938,5.266,4.406,7.875c-1.078-1.953-2.203-3.844-3.297-5.797c1.156,0.766,1.828,2.094,3.109,2.719l3.734,6.453
		c-3.734-2.438-5.531-6.641-7.484-10.516c1.094,1.922,2.188,3.828,3.281,5.734c-2.094-2.266-3-5.125-4.484-7.75
		c0.984,2.016,1.984,4.016,2.969,6.016c-0.672-0.797-1.672-1.219-2.141-2.203"/>
	<path fill="#FFC42C" d="M337.463,307.338c1.688,1.328,1.062-2.844,2.297-4.297c0.828-1,0.969-2.328,1.5-3.531
		c0.172-0.5,0.562-0.938,1.203-1.016l3.734,6.469c-0.625,0.078-1.016,0.516-1.203,1.016c-0.516,1.203-0.625,2.578-1.516,3.5
		c-1.297,1.328-3.016,3.078-5.391,1.734"/>
	<path d="M32.401,540.917l14.859-10.281l3.562,5.125l-14.844,10.297c-1.672,1.141-2.75,2.188-3.234,3.109
		c-0.953,1.547-0.688,3.344,0.734,5.406c1.422,2.031,3,2.891,4.781,2.562c1.047-0.141,2.375-0.781,4.062-1.938l14.828-10.297
		l3.562,5.141l-14.859,10.281c-2.562,1.781-4.859,2.781-6.844,2.969c-3.656,0.328-6.922-1.594-9.828-5.781
		c-2.891-4.188-3.531-7.938-1.969-11.234C28.104,544.479,29.823,542.698,32.401,540.917L32.401,540.917z"/>
	<polygon points="41.713,574.182 46.401,570.495 50.151,575.229 45.479,578.917 	"/>
	<path d="M66.635,589.307l4.062,4.234c-0.828,1.047-1.297,2.031-1.391,2.906c-0.156,1.578,0.625,3.25,2.328,5.016
		c1.031,1.078,2,1.828,2.844,2.266c1.656,0.828,3.078,0.688,4.281-0.469c0.703-0.672,0.938-1.516,0.734-2.516
		c-0.234-0.969-0.844-2.266-1.844-3.891l-1.719-2.781c-1.672-2.734-2.625-4.812-2.859-6.219c-0.391-2.375,0.438-4.531,2.516-6.562
		c1.891-1.828,4.156-2.656,6.75-2.453c2.609,0.188,5.203,1.625,7.828,4.328c2.172,2.266,3.453,4.766,3.797,7.5
		c0.359,2.734-0.562,5.234-2.75,7.469l-4.094-4.234c1.188-1.312,1.547-2.75,1.062-4.328c-0.312-1.047-0.984-2.109-2-3.156
		c-1.125-1.156-2.266-1.875-3.391-2.125c-1.125-0.266-2.109,0.016-2.922,0.797c-0.75,0.734-1,1.625-0.703,2.672
		c0.172,0.688,0.781,1.906,1.828,3.656l2.703,4.547c1.188,2,1.859,3.719,2,5.156c0.219,2.219-0.609,4.234-2.5,6.062
		c-1.938,1.859-4.266,2.672-6.969,2.406c-2.719-0.25-5.406-1.766-8.047-4.484c-2.672-2.797-4.172-5.594-4.453-8.406
		c-0.281-2.797,0.688-5.281,2.875-7.406L66.635,589.307z"/>
	<polygon points="83.042,618.37 87.073,613.979 91.526,618.057 87.495,622.463 	"/>
	<path d="M129.76,626.542l-4.547-3.406l-11.484,15.375l4.547,3.406c2.312,1.734,4.797,1.812,7.438,0.203
		c1.438-0.891,2.797-2.188,4.094-3.938c1.797-2.391,2.797-4.516,3-6.359C133.026,629.979,131.995,628.213,129.76,626.542
		L129.76,626.542z M133.667,623.073c1.453,1.109,2.531,2.188,3.266,3.219c1.25,1.781,1.828,3.797,1.766,6
		c-0.047,1.766-0.438,3.469-1.156,5.047c-0.719,1.594-1.531,3-2.469,4.25c-2.328,3.125-4.953,5.312-7.844,6.547
		c-3.891,1.656-7.625,1.172-11.172-1.5l-10.172-7.594l17.625-23.547L133.667,623.073z"/>
	<polygon points="165.417,643.963 162.667,648.385 149.713,640.338 146.417,645.635 158.276,653.026 155.588,657.37 
		143.713,649.979 139.713,656.401 153.276,664.823 150.479,669.307 131.838,657.698 147.385,632.729 	"/>
	<path d="M182.76,664.057c0.703-1.359,0.844-2.5,0.453-3.438s-1.203-1.719-2.469-2.359l-4.922-2.531l-3.953,7.703l4.938,2.547
		c1.25,0.625,2.375,0.812,3.391,0.531c1-0.266,1.859-1.094,2.562-2.438V664.057z M188.213,666.807
		c-1.594,3.094-3.469,4.891-5.672,5.375c-2.188,0.484-4.703,0-7.531-1.453l-5.453-2.812l-4.828,9.406l-5.438-2.781l13.422-26.172
		l11.234,5.766c2.609,1.344,4.312,3.062,5.172,5.203c0.844,2.141,0.547,4.609-0.906,7.453V666.807z"/>
	<path d="M204.588,669.885l-7.969,9.219l6.875,2.875L204.588,669.885z M183.01,685.432l21.031-23.094l6.422,2.688l-1.75,31.141
		l-6.141-2.562l0.578-6.297l-9.984-4.203l-4.203,4.781L183.01,685.432z"/>
	<path d="M235.479,680.401l-6.469-2.047l-2.391,7.531l6.312,1.984c1.234,0.406,2.234,0.562,2.953,0.438
		c1.281-0.188,2.172-1.062,2.641-2.641c0.562-1.688,0.375-3.016-0.5-3.922c-0.5-0.531-1.359-0.984-2.547-1.359V680.401z
		 M238.245,675.917c1.891,0.641,3.297,1.344,4.188,2.125s1.562,1.688,2,2.797c0.375,0.891,0.609,1.812,0.672,2.797
		c0.062,0.969-0.062,2-0.406,3.109c-0.438,1.344-1.172,2.531-2.266,3.609c-1.078,1.078-2.484,1.625-4.188,1.672
		c1.125,0.953,1.812,1.969,2.047,3.109c0.234,1.125,0.062,2.656-0.578,4.625l-0.594,1.891c-0.422,1.281-0.641,2.156-0.672,2.641
		c-0.062,0.781,0.125,1.422,0.578,1.938l-0.219,0.703l-6.469-2.062c0.016-0.672,0.047-1.203,0.094-1.625
		c0.109-0.828,0.266-1.672,0.516-2.5l0.781-2.609c0.547-1.797,0.625-3.078,0.203-3.859c-0.406-0.797-1.406-1.438-3.062-1.953
		l-5.719-1.812l-3.5,11l-5.719-1.812l8.891-28.031L238.245,675.917z"/>
	<polygon points="252.51,680.448 275.745,685.745 274.588,690.807 265.995,688.87 260.62,712.463 254.588,711.088 259.963,687.495 
		251.338,685.526 	"/>
	<path d="M290.667,710.213l8.375-22.203l8.781,1.203l-3.953,29.156l-5.672-0.781l2.656-19.703c0.094-0.562,0.203-1.375,0.344-2.391
		c0.156-1.016,0.281-1.812,0.344-2.344l-8.828,23.703l-5.922-0.797l-2.172-25.203c-0.078,0.547-0.188,1.344-0.312,2.375
		c-0.109,1.031-0.219,1.812-0.312,2.375l-2.656,19.719l-5.672-0.766l3.938-29.156l8.859,1.203L290.667,710.213z"/>
	<polygon points="337.854,690.167 337.635,695.292 322.463,694.635 322.151,701.823 336.057,702.448 335.838,707.573 
		321.932,706.963 321.62,713.932 337.51,714.62 337.292,719.745 314.557,718.76 315.838,689.229 	"/>
	<polygon points="346.62,720.932 345.448,691.885 351.651,691.635 363.76,711.213 362.932,691.198 368.057,690.979 369.245,720.026 
		363.323,720.26 350.901,699.729 351.745,720.745 	"/>
	<polygon points="372.338,689.963 395.979,687.057 396.635,692.213 387.901,693.292 390.854,717.323 384.713,718.073 
		381.76,694.042 372.995,695.12 	"/>
	<path d="M434.307,704.213c2.359-0.609,4.016-1.938,4.953-4.031c0.953-2.094,1.016-4.75,0.219-7.969
		c-0.812-3.188-2.125-5.484-3.953-6.891c-1.828-1.391-3.922-1.781-6.281-1.219c-2.359,0.609-4.031,1.953-4.984,4.047
		c-0.984,2.109-1.047,4.75-0.25,7.969s2.141,5.5,3.984,6.906c1.844,1.391,3.953,1.781,6.312,1.203V704.213z M445.417,690.713
		c1.312,5.141,0.844,9.406-1.344,12.859c-1.594,2.766-4.422,4.656-8.516,5.672c-4.078,1.031-7.469,0.703-10.172-0.969
		c-3.578-1.984-6.016-5.562-7.312-10.672c-1.312-5.234-0.844-9.5,1.375-12.859c1.594-2.75,4.438-4.656,8.516-5.672
		c4.078-1.031,7.469-0.703,10.188,0.969C441.698,681.932,444.104,685.495,445.417,690.713L445.417,690.713z"/>
	<polygon points="456.87,702.838 447.276,675.088 467.104,668.229 468.807,673.12 454.76,677.979 456.963,684.37 469.276,680.12 
		470.948,684.932 458.635,689.198 462.682,700.854 	"/>
	<path d="M497.557,660.135l-5.094,2.5l8.438,17.266l5.094-2.5c2.609-1.297,3.797-3.453,3.562-6.516
		c-0.109-1.703-0.656-3.5-1.609-5.469c-1.328-2.688-2.766-4.547-4.297-5.562c-1.547-1.031-3.578-0.922-6.094,0.297V660.135z
		 M496.26,655.088c1.641-0.781,3.109-1.234,4.375-1.422c2.156-0.297,4.188,0.078,6.141,1.156c1.562,0.859,2.891,1.984,3.969,3.359
		c1.078,1.359,1.969,2.734,2.656,4.109c1.703,3.516,2.453,6.844,2.234,9.953c-0.312,4.219-2.469,7.328-6.469,9.266l-11.391,5.562
		l-12.906-26.422L496.26,655.088z"/>
	<polygon points="529.963,635.229 532.651,639.698 519.588,647.542 522.792,652.885 534.776,645.713 537.401,650.088 
		525.417,657.26 529.323,663.76 542.995,655.542 545.713,660.073 526.87,671.37 511.729,646.151 	"/>
	<polygon points="553.932,655.87 536.885,631.963 553.963,619.792 556.948,623.995 544.838,632.62 548.776,638.135 559.37,630.573 
		562.323,634.729 551.729,642.307 558.901,652.338 	"/>
	<polygon points="575.229,602.276 578.573,606.26 566.901,616.057 570.917,620.838 581.604,611.87 584.885,615.792 574.182,624.76 
		579.042,630.557 591.276,620.292 594.667,624.354 577.838,638.479 558.932,615.948 	"/>
	<polygon points="601.417,617.948 580.667,597.088 585.229,592.557 608.026,598.838 593.526,584.292 597.588,580.245 
		618.354,601.088 613.995,605.432 590.729,599.088 605.479,613.901 	"/>
	<path d="M617.385,588.979l3.781-4.484c1.141,0.719,2.141,1.094,3.016,1.094c1.594,0,3.188-0.953,4.766-2.828
		c0.969-1.125,1.609-2.156,1.969-3.047c0.672-1.734,0.359-3.141-0.906-4.219c-0.734-0.625-1.578-0.781-2.547-0.484
		c-0.953,0.328-2.188,1.062-3.688,2.234l-2.594,1.984c-2.562,1.953-4.516,3.094-5.906,3.469c-2.328,0.641-4.578,0.016-6.766-1.859
		c-2.031-1.703-3.078-3.828-3.141-6.453c-0.078-2.625,1.094-5.344,3.531-8.203c2.031-2.391,4.375-3.906,7.062-4.531
		c2.672-0.641,5.25,0.031,7.703,1.953l-3.812,4.531c-1.422-1.062-2.891-1.281-4.406-0.641c-1.016,0.422-1.984,1.203-2.922,2.328
		c-1.047,1.25-1.641,2.438-1.781,3.594c-0.141,1.141,0.219,2.094,1.094,2.828c0.812,0.672,1.703,0.828,2.719,0.438
		c0.672-0.25,1.812-0.984,3.453-2.203l4.266-3.156c1.859-1.391,3.5-2.219,4.906-2.5c2.203-0.438,4.281,0.188,6.297,1.875
		c2.062,1.734,3.094,3.953,3.109,6.703c0.016,2.719-1.203,5.531-3.672,8.438c-2.5,2.969-5.125,4.703-7.906,5.297
		c-2.75,0.547-5.312-0.156-7.656-2.125L617.385,588.979z"/>
	<polygon points="632.37,535.104 636.62,538.135 627.76,550.542 632.838,554.167 640.963,542.792 645.12,545.76 636.995,557.12 
		643.151,561.51 652.432,548.526 656.745,551.604 643.995,569.479 620.042,552.385 	"/>
</g>
</svg>
