<?xml version="1.0" encoding="UTF-8" standalone="no"?>
<!-- Created with Inkscape (http://www.inkscape.org/) -->
<svg
   xmlns="http://www.w3.org/2000/svg"
   version="1.0"
   width="1000"
   height="970.15778">
  <g
     transform="translate(-362.85714,609.85957)"
     id="layer1">
    <g
       transform="matrix(2.8975503,0,0,-2.8975503,362.85321,360.29822)"
       id="g10"
       xml:space="preserve"
       style="font-style:normal;font-variant:normal;font-weight:normal;font-stretch:normal;letter-spacing:normal;word-spacing:normal;text-anchor:start;fill:none;fill-opacity:1;fill-rule:evenodd;stroke:#000;stroke-linecap:butt;stroke-linejoin:miter;stroke-miterlimit:10.43299961;stroke-dasharray:none;stroke-dashoffset:0;stroke-opacity:1">
<path
   d="M 48.871,159.77 L 48.658,158.5 L 48.468,157.23 L 48.303,155.97 L 48.165,154.71 L 48.054,153.46 L 48.01,152.83 L 47.973,152.21 L 47.944,151.58 L 47.923,150.96 L 47.911,150.33 L 47.906,149.71 C 47.906,131.3 58.418,111.92 81.09,98.449 C 103.76,84.977 155.1,71.832 172.52,50.477 C 189.94,71.832 241.28,84.977 263.95,98.449 C 286.63,111.92 297.14,131.3 297.14,149.71 C 297.14,152.88 296.81,156.04 296.26,159.28 L 296.81,159.56 L 295.82,164.49 C 300.43,178.62 307.98,184.86 316.86,184.86 C 325.73,184.86 328.68,179.28 330.65,171.72 C 332.63,164.16 332.63,159.89 335.25,155.29 C 337.88,150.69 345.44,135.91 345.11,132.29 C 344.78,128.68 341.82,124.08 339.53,122.77 C 337.23,121.45 331.97,119.15 331.97,119.15 C 334.27,105.35 330,89.246 314.23,75.449 C 298.45,61.648 274.14,48.832 244.24,36.676 C 214.34,24.52 199.88,21.234 172.61,0.20313 C 145.34,21.234 130.88,24.52 100.98,36.676 C 71.082,48.832 46.766,61.648 30.992,75.449 C 15.223,89.246 10.953,105.35 13.25,119.15 C 13.25,119.15 7.9922,121.45 5.6953,122.77 C 3.3945,124.08 0.4375,128.68 0.10938,132.29 C -0.21875,135.91 7.3359,150.69 9.9648,155.29 C 12.594,159.89 12.594,164.16 14.566,171.72 C 16.535,179.28 19.492,184.86 28.363,184.86 C 37.238,184.86 44.793,178.62 49.395,164.49 L 48.41,159.56 L 48.871,159.77 z"
   id="path12"
   style="fill:#fff;fill-rule:nonzero;stroke:#fff;stroke-width:0" />
<path
   d="M 48.313,159.36 L 47.816,160.67 L 47.311,161.94 L 46.799,163.18 L 46.278,164.39 L 45.75,165.56 L 45.214,166.7 L 44.67,167.8 L 44.117,168.86 L 43.557,169.89 L 42.988,170.88 L 42.411,171.83 L 41.825,172.74 L 41.231,173.61 L 40.629,174.45 L 40.018,175.24 L 39.398,175.99 L 38.77,176.7 L 38.133,177.37 L 37.488,178 L 36.833,178.58 L 36.17,179.12 L 35.498,179.62 L 34.816,180.07 L 34.126,180.48 L 33.426,180.84 L 32.718,181.15 L 32,181.42 L 31.273,181.64 L 30.536,181.81 L 29.79,181.93 L 29.034,182.01 L 28.27,182.03 C 20.055,182.03 17.098,173.49 17.098,170.86 C 17.098,168.23 19.723,161.99 23.34,159.69 L 29.91,171.84 C 35.168,167.9 38.781,164.62 38.125,156.73 C 37.469,148.84 31.223,141.29 26.297,135.05 C 21.367,128.8 15.453,122.56 15.453,110.73 C 15.453,98.902 22.352,86.742 34.184,76.23 C 46.012,65.715 63.098,55.859 78.211,48.957 C 93.324,42.059 116.98,34.172 132.43,26.941 C 147.87,19.715 162,12.156 172.51,3.6133 C 183.03,12.156 197.16,19.715 212.6,26.941 C 228.04,34.172 251.7,42.059 266.81,48.957 C 281.93,55.859 299.01,65.715 310.84,76.23 C 322.67,86.742 329.57,98.902 329.57,110.73 C 329.57,122.56 323.66,128.8 318.73,135.05 C 313.8,141.29 307.55,148.84 306.9,156.73 C 306.24,164.62 309.86,167.9 315.11,171.84 L 321.68,159.69 C 325.3,161.99 327.93,168.23 327.93,170.86 C 327.93,173.49 324.97,182.03 316.75,182.03 C 308.54,182.03 301.97,173.49 296.71,159.36 L 295.73,164.29 C 300.33,178.42 307.88,184.66 316.75,184.66 C 325.63,184.66 328.59,179.07 330.55,171.52 C 332.53,163.96 332.53,159.69 335.16,155.09 C 337.79,150.49 345.34,135.7 345.01,132.09 C 344.68,128.47 341.73,123.87 339.43,122.56 C 337.13,121.25 331.87,118.94 331.87,118.94 C 334.17,105.14 329.9,89.043 314.13,75.242 C 298.36,61.441 274.04,48.629 244.14,36.473 C 214.24,24.316 199.79,21.027 172.51,0 C 145.24,21.027 130.78,24.316 100.88,36.473 C 70.98,48.629 46.668,61.441 30.895,75.242 C 15.125,89.043 10.852,105.14 13.152,118.94 C 13.152,118.94 7.8945,121.25 5.5977,122.56 C 3.2969,123.87 0.33984,128.47 0.011719,132.09 C -0.31641,135.7 7.2383,150.49 9.8672,155.09 C 12.496,159.69 12.496,163.96 14.469,171.52 C 16.438,179.07 19.395,184.66 28.27,184.66 C 37.141,184.66 44.695,178.42 49.297,164.29 L 48.313,159.36 z"
   id="path14"
   style="fill:#ffd300;fill-rule:nonzero;stroke:#ffd300;stroke-width:0" />
<path
   d="M 172.43,334.82 L 72.449,334.82 L 37.621,299.33 C 51.422,276.99 58.977,264.83 58.977,223.43 C 58.977,185.65 47.805,167.9 47.805,149.5 C 47.805,131.1 58.32,111.71 80.992,98.242 C 103.66,84.773 155.01,71.629 172.43,50.273 C 189.84,71.629 241.18,84.773 263.86,98.242 C 286.53,111.71 297.04,131.1 297.04,149.5 C 297.04,167.9 285.87,185.65 285.87,223.43 C 285.87,264.83 293.43,276.99 307.23,299.33 L 272.4,334.82 L 172.43,334.82 z"
   id="path16"
   style="fill:#ffd300;fill-rule:nonzero;stroke:#ffd300;stroke-width:0" />
<path
   d="M 76.395,326.61 L 48.07,298.16 C 48.07,298.16 66.52,274.71 66.469,224.91 C 66.746,215.96 66.105,211.65 65.398,201.92 C 64.605,191.01 61.828,181.29 60.422,175.77 C 58.258,169.4 56.055,158.37 56.055,152.69 C 56.055,129.02 62.645,122.85 76.445,110.57 C 90.246,98.277 124.84,86.816 134.26,82.918 C 143.69,79.023 165.69,68.789 172.43,60.695 C 179.16,68.789 201.16,79.023 210.59,82.918 C 220.01,86.816 254.6,98.277 268.4,110.57 C 282.2,122.85 288.8,129.02 288.8,152.69 C 288.8,158.37 286.59,169.4 284.43,175.77 C 283.02,181.29 280.24,191.01 279.45,201.92 C 278.74,211.65 278.11,215.96 278.38,224.91 C 278.33,274.71 296.78,298.16 296.78,298.16 L 268.46,326.61 L 76.395,326.61 z"
   id="path18"
   style="fill:#000;fill-rule:nonzero;stroke-width:0" />
<path
   d="M 176,155.63 L 177.26,162.31 C 177.26,162.31 183.39,165.46 183.61,165.57 C 186.68,167.23 209.43,180.35 199.76,200.53 C 199.76,200.53 194.81,207.57 209.29,220.97 C 209.29,220.97 225,235.6 230.4,259.73 C 230.4,259.73 235.8,278.5 223.28,296.78 C 223.28,296.78 249.06,287.52 239.98,251.44 C 239.98,251.44 237.77,241.2 227.7,228.53 C 227.7,228.53 221.57,221.22 225.74,219.51 L 230.89,214.39 L 229.66,210.73 L 233.84,204.64 L 232.37,200.5 L 236.54,195.62 L 232.12,191.72 L 232.85,186.36 L 228.93,181.48 L 229.91,177.1 L 225.25,175.63 L 222.79,169.79 L 216.9,167.84 L 216.16,161.98 L 210.03,161.5 L 208.31,154.91 L 201.19,154.43 L 198.49,147.11 L 188.43,146.63 L 176.58,135.31 L 176.78,150.5 L 176,155.63 z"
   id="path20"
   style="fill:#c7c4c9;fill-rule:nonzero;stroke:#c7c4c9;stroke-width:0" />
<path
   d="M 176,155.63 L 177.26,162.31 C 177.26,162.31 183.39,165.46 183.61,165.57 C 186.68,167.23 209.43,180.35 199.76,200.53 C 199.76,200.53 194.81,207.57 209.29,220.97 C 209.29,220.97 225,235.6 230.4,259.73 C 230.4,259.73 235.8,278.5 223.28,296.78 C 223.28,296.78 249.06,287.52 239.98,251.44 C 239.98,251.44 237.77,241.2 227.7,228.53 C 227.7,228.53 221.57,221.22 225.74,219.51 L 230.89,214.39 L 229.66,210.73 L 233.84,204.64 L 232.37,200.5 L 236.54,195.62 L 232.12,191.72 L 232.85,186.36 L 228.93,181.48 L 229.91,177.1 L 225.25,175.63 L 222.79,169.79 L 216.9,167.84 L 216.16,161.98 L 210.03,161.5 L 208.31,154.91 L 201.19,154.43 L 198.49,147.11 L 188.43,146.63 L 176.58,135.31 L 176.78,150.5 L 176,155.63 z"
   id="path22"
   style="stroke:#a8a8a8;stroke-width:0.3096" />
<path
   d="M 228.93,222.19 L 228.95,222.22 L 229,222.29 L 229.09,222.41 L 229.21,222.57 L 229.36,222.79 L 229.54,223.04 L 229.75,223.34 L 229.99,223.69 L 230.26,224.07 L 230.54,224.49 L 230.86,224.96 L 231.19,225.46 L 231.92,226.58 L 232.73,227.84 L 233.59,229.23 L 234.51,230.75 L 235.47,232.39 L 236.46,234.15 L 237.48,236 L 238.5,237.96 L 239.52,240 L 240.53,242.12 L 241.52,244.31 L 242.47,246.57 L 243.39,248.89 L 244.25,251.26 L 245.04,253.67 L 245.77,256.11 L 246.41,258.58 L 246.95,261.06 L 247.39,263.56 L 247.71,266.06 L 247.9,268.56 L 247.96,271.04 L 247.87,273.5 L 247.62,275.94 L 247.43,277.14 L 247.2,278.34 L 246.92,279.52 L 246.6,280.69 C 246.6,280.69 259.37,269.24 249.06,242.42 C 249.06,242.42 244.64,232.19 233.1,217.32 L 228.93,222.19 z"
   id="path24"
   style="fill:#c7c4c9;fill-rule:nonzero;stroke:#c7c4c9;stroke-width:0" />
<path
   d="M 228.93,222.19 L 228.95,222.22 L 229,222.29 L 229.09,222.41 L 229.21,222.57 L 229.36,222.79 L 229.54,223.04 L 229.75,223.34 L 229.99,223.69 L 230.26,224.07 L 230.54,224.49 L 230.86,224.96 L 231.19,225.46 L 231.92,226.58 L 232.73,227.84 L 233.59,229.23 L 234.51,230.75 L 235.47,232.39 L 236.46,234.15 L 237.48,236 L 238.5,237.96 L 239.52,240 L 240.53,242.12 L 241.52,244.31 L 242.47,246.57 L 243.39,248.89 L 244.25,251.26 L 245.04,253.67 L 245.77,256.11 L 246.41,258.58 L 246.95,261.06 L 247.39,263.56 L 247.71,266.06 L 247.9,268.56 L 247.96,271.04 L 247.87,273.5 L 247.62,275.94 L 247.43,277.14 L 247.2,278.34 L 246.92,279.52 L 246.6,280.69 C 246.6,280.69 259.37,269.24 249.06,242.42 C 249.06,242.42 244.64,232.19 233.1,217.32 L 228.93,222.19 z"
   id="path26"
   style="stroke:#a8a8a8;stroke-width:0.3096" />
<path
   d="M 233.1,210.49 L 234.82,214.88 C 234.82,214.88 257.4,237.55 259.12,257.05 C 259.12,257.05 265.26,243.15 252.74,224.63 C 252.74,224.63 249.06,216.83 235.8,206.84 L 233.1,210.49 z"
   id="path28"
   style="fill:#c7c4c9;fill-rule:nonzero;stroke:#c7c4c9;stroke-width:0" />
<path
   d="M 233.1,210.49 L 234.82,214.88 C 234.82,214.88 257.4,237.55 259.12,257.05 C 259.12,257.05 265.26,243.15 252.74,224.63 C 252.74,224.63 249.06,216.83 235.8,206.84 L 233.1,210.49 z"
   id="path30"
   style="stroke:#a8a8a8;stroke-width:0.3096" />
<path
   d="M 236.29,200.98 L 237.03,204.4 C 237.03,204.4 261.82,221.95 265.02,241.69 C 265.02,241.69 269.43,225.85 254.95,210.49 C 254.95,210.49 249.79,203.18 238.99,198.3 L 236.29,200.98 z"
   id="path32"
   style="fill:#c7c4c9;fill-rule:nonzero;stroke:#c7c4c9;stroke-width:0" />
<path
   d="M 236.29,200.98 L 237.03,204.4 C 237.03,204.4 261.82,221.95 265.02,241.69 C 265.02,241.69 269.43,225.85 254.95,210.49 C 254.95,210.49 249.79,203.18 238.99,198.3 L 236.29,200.98 z"
   id="path34"
   style="stroke:#a8a8a8;stroke-width:0.3096" />
<path
   d="M 235.31,191.48 L 237.52,193.43 C 237.52,193.43 259.37,205.37 268.94,219.02 C 268.94,219.02 266,204.4 247.59,192.94 C 247.59,192.94 240.46,188.07 235.31,187.34 L 235.31,191.48 z"
   id="path36"
   style="fill:#c7c4c9;fill-rule:nonzero;stroke:#c7c4c9;stroke-width:0" />
<path
   d="M 235.31,191.48 L 237.52,193.43 C 237.52,193.43 259.37,205.37 268.94,219.02 C 268.94,219.02 266,204.4 247.59,192.94 C 247.59,192.94 240.46,188.07 235.31,187.34 L 235.31,191.48 z"
   id="path38"
   style="stroke:#a8a8a8;stroke-width:0.3096" />
<path
   d="M 232.37,181.73 L 234.82,183.19 C 234.82,183.19 243.66,183.68 249.55,188.8 C 249.55,188.8 262.07,191.23 265.75,194.16 C 265.75,194.16 264.77,183.92 247.59,179.78 C 247.59,179.78 235.31,177.59 232.85,178.32 L 232.37,181.73 z"
   id="path40"
   style="fill:#c7c4c9;fill-rule:nonzero;stroke:#c7c4c9;stroke-width:0" />
<path
   d="M 232.37,181.73 L 234.82,183.19 C 234.82,183.19 243.66,183.68 249.55,188.8 C 249.55,188.8 262.07,191.23 265.75,194.16 C 265.75,194.16 264.77,183.92 247.59,179.78 C 247.59,179.78 235.31,177.59 232.85,178.32 L 232.37,181.73 z"
   id="path42"
   style="stroke:#a8a8a8;stroke-width:0.3096" />
<path
   d="M 227.21,173.93 L 231.63,174.9 C 231.63,174.9 239.48,174.66 246.6,170.76 C 246.6,170.76 252,169.05 256.67,169.3 C 256.67,169.3 249.06,163.2 241.45,163.69 C 241.45,163.69 233.59,166.13 231.88,168.57 C 231.88,168.57 229.91,169.79 226.23,169.54 L 227.21,173.93 z"
   id="path44"
   style="fill:#c7c4c9;fill-rule:nonzero;stroke:#c7c4c9;stroke-width:0" />
<path
   d="M 227.21,173.93 L 231.63,174.9 C 231.63,174.9 239.48,174.66 246.6,170.76 C 246.6,170.76 252,169.05 256.67,169.3 C 256.67,169.3 249.06,163.2 241.45,163.69 C 241.45,163.69 233.59,166.13 231.88,168.57 C 231.88,168.57 229.91,169.79 226.23,169.54 L 227.21,173.93 z"
   id="path46"
   style="stroke:#a8a8a8;stroke-width:0.3096" />
<path
   d="M 219.85,165.64 L 224.27,166.13 C 224.27,166.13 229.42,165.64 236.29,159.3 C 236.29,159.3 238.99,156.87 244.88,155.4 C 244.88,155.4 234.57,151.26 227.21,155.89 L 219.35,160.28 L 219.85,165.64 z"
   id="path48"
   style="fill:#c7c4c9;fill-rule:nonzero;stroke:#c7c4c9;stroke-width:0" />
<path
   d="M 219.85,165.64 L 224.27,166.13 C 224.27,166.13 229.42,165.64 236.29,159.3 C 236.29,159.3 238.99,156.87 244.88,155.4 C 244.88,155.4 234.57,151.26 227.21,155.89 L 219.35,160.28 L 219.85,165.64 z"
   id="path50"
   style="stroke:#a8a8a8;stroke-width:0.3096" />
<path
   d="M 212.24,158.57 L 217.64,157.6 C 217.64,157.6 222.79,154.67 225.25,149.8 L 232.37,143.46 C 232.37,143.46 223.53,143.21 216.9,149.31 L 210.52,153.45 L 212.24,158.57 z"
   id="path52"
   style="fill:#c7c4c9;fill-rule:nonzero;stroke:#c7c4c9;stroke-width:0" />
<path
   d="M 212.24,158.57 L 217.64,157.6 C 217.64,157.6 222.79,154.67 225.25,149.8 L 232.37,143.46 C 232.37,143.46 223.53,143.21 216.9,149.31 L 210.52,153.45 L 212.24,158.57 z"
   id="path54"
   style="stroke:#a8a8a8;stroke-width:0.3096" />
<path
   d="M 203.65,151.26 L 208.31,151.26 C 208.31,151.26 211.75,148.34 216.16,140.78 L 220.58,135.41 C 220.58,135.41 211.01,135.66 203.89,142.97 L 200.95,146.63 L 203.65,151.26 z"
   id="path56"
   style="fill:#c7c4c9;fill-rule:nonzero;stroke:#c7c4c9;stroke-width:0" />
<path
   d="M 203.65,151.26 L 208.31,151.26 C 208.31,151.26 211.75,148.34 216.16,140.78 L 220.58,135.41 C 220.58,135.41 211.01,135.66 203.89,142.97 L 200.95,146.63 L 203.65,151.26 z"
   id="path58"
   style="stroke:#a8a8a8;stroke-width:0.3096" />
<path
   d="M 189.41,142.97 L 198.25,143.7 C 198.25,143.7 204.63,134.93 206.84,125.91 C 206.84,125.91 195.79,128.35 189.41,142.97 z"
   id="path60"
   style="fill:#c7c4c9;fill-rule:nonzero;stroke:#c7c4c9;stroke-width:0" />
<path
   d="M 189.41,142.97 L 198.25,143.7 C 198.25,143.7 204.63,134.93 206.84,125.91 C 206.84,125.91 195.79,128.35 189.41,142.97 z"
   id="path62"
   style="stroke:#a8a8a8;stroke-width:0.3096" />
<path
   d="M 183.02,137.36 L 187.2,141.02 C 187.2,141.02 195.05,130.05 191.86,118.6 C 191.86,118.6 185.23,123.47 183.76,129.32 L 183.02,137.36 z"
   id="path64"
   style="fill:#c7c4c9;fill-rule:nonzero;stroke:#c7c4c9;stroke-width:0" />
<path
   d="M 183.02,137.36 L 187.2,141.02 C 187.2,141.02 195.05,130.05 191.86,118.6 C 191.86,118.6 185.23,123.47 183.76,129.32 L 183.02,137.36 z"
   id="path66"
   style="stroke:#a8a8a8;stroke-width:0.3096" />
<path
   d="M 170.58,154.95 L 169.81,163.09 C 169.81,163.09 164.54,165.43 164.4,165.51 C 161.85,166.86 138.33,180.06 148.15,200.53 C 148.15,200.53 153.08,207.57 138.59,220.97 C 138.59,220.97 122.88,235.6 117.48,259.73 C 117.48,259.73 112.08,278.5 124.6,296.78 C 124.6,296.78 98.828,287.52 107.91,251.44 C 107.91,251.44 110.12,241.2 120.18,228.53 C 120.18,228.53 126.32,221.22 122.15,219.51 L 116.99,214.39 L 118.22,210.73 L 114.05,204.64 L 115.52,200.5 L 111.35,195.62 L 115.77,191.72 L 115.03,186.36 L 118.96,181.48 L 117.97,177.1 L 122.64,175.63 L 125.09,169.79 L 130.98,167.84 L 131.72,161.98 L 137.85,161.5 L 139.57,154.91 L 146.7,154.43 L 149.4,147.11 L 159.46,146.63 L 170.78,135.02 L 171.26,151.73 L 170.58,154.95 z"
   id="path68"
   style="fill:#c7c4c9;fill-rule:nonzero;stroke:#c7c4c9;stroke-width:0" />
<path
   d="M 170.58,154.95 L 169.81,163.09 C 169.81,163.09 164.54,165.43 164.4,165.51 C 161.85,166.86 138.33,180.06 148.15,200.53 C 148.15,200.53 153.08,207.57 138.59,220.97 C 138.59,220.97 122.88,235.6 117.48,259.73 C 117.48,259.73 112.08,278.5 124.6,296.78 C 124.6,296.78 98.828,287.52 107.91,251.44 C 107.91,251.44 110.12,241.2 120.18,228.53 C 120.18,228.53 126.32,221.22 122.15,219.51 L 116.99,214.39 L 118.22,210.73 L 114.05,204.64 L 115.52,200.5 L 111.35,195.62 L 115.77,191.72 L 115.03,186.36 L 118.96,181.48 L 117.97,177.1 L 122.64,175.63 L 125.09,169.79 L 130.98,167.84 L 131.72,161.98 L 137.85,161.5 L 139.57,154.91 L 146.7,154.43 L 149.4,147.11 L 159.46,146.63 L 170.78,135.02 L 171.26,151.73 L 170.58,154.95 z"
   id="path70"
   style="stroke:#a8a8a8;stroke-width:0.3096" />
<path
   d="M 118.96,222.19 L 118.94,222.22 L 118.89,222.29 L 118.8,222.41 L 118.68,222.57 L 118.53,222.79 L 118.34,223.04 L 118.13,223.34 L 117.9,223.69 L 117.63,224.07 L 117.34,224.49 L 117.03,224.96 L 116.69,225.46 L 115.96,226.58 L 115.16,227.84 L 114.29,229.23 L 113.37,230.75 L 112.41,232.39 L 111.42,234.15 L 110.41,236 L 109.39,237.96 L 108.37,240 L 107.36,242.12 L 106.37,244.31 L 105.41,246.57 L 104.5,248.89 L 103.64,251.26 L 102.84,253.67 L 102.12,256.11 L 101.48,258.58 L 100.94,261.06 L 100.5,263.56 L 100.18,266.06 L 99.984,268.56 L 99.927,271.04 L 100.02,273.5 L 100.27,275.94 L 100.45,277.14 L 100.68,278.34 L 100.96,279.52 L 101.28,280.69 C 101.28,280.69 88.516,269.24 98.828,242.42 C 98.828,242.42 103.25,232.19 114.78,217.32 L 118.96,222.19 z"
   id="path72"
   style="fill:#c7c4c9;fill-rule:nonzero;stroke:#c7c4c9;stroke-width:0" />
<path
   d="M 118.96,222.19 L 118.94,222.22 L 118.89,222.29 L 118.8,222.41 L 118.68,222.57 L 118.53,222.79 L 118.34,223.04 L 118.13,223.34 L 117.9,223.69 L 117.63,224.07 L 117.34,224.49 L 117.03,224.96 L 116.69,225.46 L 115.96,226.58 L 115.16,227.84 L 114.29,229.23 L 113.37,230.75 L 112.41,232.39 L 111.42,234.15 L 110.41,236 L 109.39,237.96 L 108.37,240 L 107.36,242.12 L 106.37,244.31 L 105.41,246.57 L 104.5,248.89 L 103.64,251.26 L 102.84,253.67 L 102.12,256.11 L 101.48,258.58 L 100.94,261.06 L 100.5,263.56 L 100.18,266.06 L 99.984,268.56 L 99.927,271.04 L 100.02,273.5 L 100.27,275.94 L 100.45,277.14 L 100.68,278.34 L 100.96,279.52 L 101.28,280.69 C 101.28,280.69 88.516,269.24 98.828,242.42 C 98.828,242.42 103.25,232.19 114.78,217.32 L 118.96,222.19 z"
   id="path74"
   style="stroke:#a8a8a8;stroke-width:0.3096" />
<path
   d="M 114.78,210.49 L 113.07,214.88 C 113.07,214.88 90.48,237.55 88.762,257.05 C 88.762,257.05 82.625,243.15 95.145,224.63 C 95.145,224.63 98.828,216.83 112.08,206.84 L 114.78,210.49 z"
   id="path76"
   style="fill:#c7c4c9;fill-rule:nonzero;stroke:#c7c4c9;stroke-width:0" />
<path
   d="M 114.78,210.49 L 113.07,214.88 C 113.07,214.88 90.48,237.55 88.762,257.05 C 88.762,257.05 82.625,243.15 95.145,224.63 C 95.145,224.63 98.828,216.83 112.08,206.84 L 114.78,210.49 z"
   id="path78"
   style="stroke:#a8a8a8;stroke-width:0.3096" />
<path
   d="M 111.59,200.98 L 110.86,204.4 C 110.86,204.4 86.063,221.95 82.871,241.69 C 82.871,241.69 78.453,225.85 92.938,210.49 C 92.938,210.49 98.09,203.18 108.89,198.3 L 111.59,200.98 z"
   id="path80"
   style="fill:#c7c4c9;fill-rule:nonzero;stroke:#c7c4c9;stroke-width:0" />
<path
   d="M 111.59,200.98 L 110.86,204.4 C 110.86,204.4 86.063,221.95 82.871,241.69 C 82.871,241.69 78.453,225.85 92.938,210.49 C 92.938,210.49 98.09,203.18 108.89,198.3 L 111.59,200.98 z"
   id="path82"
   style="stroke:#a8a8a8;stroke-width:0.3096" />
<path
   d="M 112.57,191.48 L 110.36,193.43 C 110.36,193.43 88.516,205.37 78.941,219.02 C 78.941,219.02 81.891,204.4 100.3,192.94 C 100.3,192.94 107.42,188.07 112.57,187.34 L 112.57,191.48 z"
   id="path84"
   style="fill:#c7c4c9;fill-rule:nonzero;stroke:#c7c4c9;stroke-width:0" />
<path
   d="M 112.57,191.48 L 110.36,193.43 C 110.36,193.43 88.516,205.37 78.941,219.02 C 78.941,219.02 81.891,204.4 100.3,192.94 C 100.3,192.94 107.42,188.07 112.57,187.34 L 112.57,191.48 z"
   id="path86"
   style="stroke:#a8a8a8;stroke-width:0.3096" />
<path
   d="M 115.52,181.73 L 113.07,183.19 C 113.07,183.19 104.23,183.68 98.336,188.8 C 98.336,188.8 85.816,191.23 82.137,194.16 C 82.137,194.16 83.117,183.92 100.3,179.78 C 100.3,179.78 112.57,177.59 115.03,178.32 L 115.52,181.73 z"
   id="path88"
   style="fill:#c7c4c9;fill-rule:nonzero;stroke:#c7c4c9;stroke-width:0" />
<path
   d="M 115.52,181.73 L 113.07,183.19 C 113.07,183.19 104.23,183.68 98.336,188.8 C 98.336,188.8 85.816,191.23 82.137,194.16 C 82.137,194.16 83.117,183.92 100.3,179.78 C 100.3,179.78 112.57,177.59 115.03,178.32 L 115.52,181.73 z"
   id="path90"
   style="stroke:#a8a8a8;stroke-width:0.3096" />
<path
   d="M 120.68,173.93 L 116.26,174.9 C 116.26,174.9 108.4,174.66 101.28,170.76 C 101.28,170.76 95.883,169.05 91.219,169.3 C 91.219,169.3 98.828,163.2 106.44,163.69 C 106.44,163.69 114.29,166.13 116.01,168.57 C 116.01,168.57 117.97,169.79 121.66,169.54 L 120.68,173.93 z"
   id="path92"
   style="fill:#c7c4c9;fill-rule:nonzero;stroke:#c7c4c9;stroke-width:0" />
<path
   d="M 120.68,173.93 L 116.26,174.9 C 116.26,174.9 108.4,174.66 101.28,170.76 C 101.28,170.76 95.883,169.05 91.219,169.3 C 91.219,169.3 98.828,163.2 106.44,163.69 C 106.44,163.69 114.29,166.13 116.01,168.57 C 116.01,168.57 117.97,169.79 121.66,169.54 L 120.68,173.93 z"
   id="path94"
   style="stroke:#a8a8a8;stroke-width:0.3096" />
<path
   d="M 128.04,165.64 L 123.62,166.13 C 123.62,166.13 118.46,165.64 111.59,159.3 C 111.59,159.3 108.89,156.87 103,155.4 C 103,155.4 113.31,151.26 120.68,155.89 L 128.53,160.28 L 128.04,165.64 z"
   id="path96"
   style="fill:#c7c4c9;fill-rule:nonzero;stroke:#c7c4c9;stroke-width:0" />
<path
   d="M 128.04,165.64 L 123.62,166.13 C 123.62,166.13 118.46,165.64 111.59,159.3 C 111.59,159.3 108.89,156.87 103,155.4 C 103,155.4 113.31,151.26 120.68,155.89 L 128.53,160.28 L 128.04,165.64 z"
   id="path98"
   style="stroke:#a8a8a8;stroke-width:0.3096" />
<path
   d="M 135.65,158.57 L 130.25,157.6 C 130.25,157.6 125.09,154.67 122.64,149.8 L 115.52,143.46 C 115.52,143.46 124.36,143.21 130.98,149.31 L 137.37,153.45 L 135.65,158.57 z"
   id="path100"
   style="fill:#c7c4c9;fill-rule:nonzero;stroke:#c7c4c9;stroke-width:0" />
<path
   d="M 135.65,158.57 L 130.25,157.6 C 130.25,157.6 125.09,154.67 122.64,149.8 L 115.52,143.46 C 115.52,143.46 124.36,143.21 130.98,149.31 L 137.37,153.45 L 135.65,158.57 z"
   id="path102"
   style="stroke:#a8a8a8;stroke-width:0.3096" />
<path
   d="M 144.24,151.26 L 139.57,151.26 C 139.57,151.26 136.14,148.34 131.72,140.78 L 127.3,135.41 C 127.3,135.41 136.88,135.66 143.99,142.97 L 146.94,146.63 L 144.24,151.26 z"
   id="path104"
   style="fill:#c7c4c9;fill-rule:nonzero;stroke:#c7c4c9;stroke-width:0" />
<path
   d="M 144.24,151.26 L 139.57,151.26 C 139.57,151.26 136.14,148.34 131.72,140.78 L 127.3,135.41 C 127.3,135.41 136.88,135.66 143.99,142.97 L 146.94,146.63 L 144.24,151.26 z"
   id="path106"
   style="stroke:#a8a8a8;stroke-width:0.3096" />
<path
   d="M 158.48,142.97 L 149.64,143.7 C 149.64,143.7 143.26,134.93 141.05,125.91 C 141.05,125.91 152.09,128.35 158.48,142.97 z"
   id="path108"
   style="fill:#c7c4c9;fill-rule:nonzero;stroke:#c7c4c9;stroke-width:0" />
<path
   d="M 158.48,142.97 L 149.64,143.7 C 149.64,143.7 143.26,134.93 141.05,125.91 C 141.05,125.91 152.09,128.35 158.48,142.97 z"
   id="path110"
   style="stroke:#a8a8a8;stroke-width:0.3096" />
<path
   d="M 164.86,137.36 L 160.69,141.02 C 160.69,141.02 152.83,130.05 156.02,118.6 C 156.02,118.6 162.65,123.47 164.13,129.32 L 164.86,137.36 z"
   id="path112"
   style="fill:#c7c4c9;fill-rule:nonzero;stroke:#c7c4c9;stroke-width:0" />
<path
   d="M 164.86,137.36 L 160.69,141.02 C 160.69,141.02 152.83,130.05 156.02,118.6 C 156.02,118.6 162.65,123.47 164.13,129.32 L 164.86,137.36 z"
   id="path114"
   style="stroke:#a8a8a8;stroke-width:0.3096" />
<path
   d="M 174.11,214.59 L 176.71,214.66 L 179.26,214.87 L 181.78,215.22 L 184.27,215.7 L 186.7,216.3 L 189.09,217.02 L 191.43,217.87 L 193.72,218.83 L 195.95,219.9 L 198.12,221.07 L 200.23,222.35 L 202.28,223.72 L 204.25,225.19 L 206.15,226.75 L 207.98,228.4 L 209.73,230.13 L 211.4,231.93 L 212.98,233.81 L 214.48,235.76 L 215.88,237.77 L 217.19,239.84 L 218.4,241.97 L 219.52,244.16 L 220.53,246.39 L 221.43,248.67 L 222.22,250.99 L 222.9,253.34 L 223.46,255.73 L 223.9,258.15 L 224.22,260.59 L 224.42,263.05 L 224.48,265.53 C 224.48,292.02 201.93,313.49 174.11,313.49 C 146.3,313.49 123.74,292.02 123.74,265.53 C 123.74,239.04 146.3,214.59 174.11,214.59 z"
   id="path116"
   style="fill:#fff;fill-rule:nonzero;stroke:#fff;stroke-width:0" />
<path
   d="M 174.25,218.55 L 176.6,218.61 L 178.93,218.81 L 181.23,219.13 L 183.48,219.57 L 185.7,220.13 L 187.88,220.8 L 190,221.58 L 192.09,222.47 L 194.12,223.46 L 196.09,224.55 L 198.01,225.73 L 199.87,227 L 201.67,228.36 L 203.4,229.81 L 205.06,231.33 L 206.65,232.92 L 208.17,234.59 L 209.61,236.33 L 210.97,238.12 L 212.25,239.98 L 213.44,241.9 L 214.55,243.86 L 215.56,245.88 L 216.48,247.93 L 217.3,250.03 L 218.02,252.17 L 218.64,254.33 L 219.15,256.53 L 219.55,258.75 L 219.84,260.99 L 220.02,263.25 L 220.08,265.53 C 220.08,289.83 199.56,309.54 174.25,309.54 C 148.93,309.54 128.41,289.83 128.41,265.53 C 128.41,241.22 148.93,218.55 174.25,218.55 z"
   id="path118"
   style="fill:#205ba2;fill-opacity:1;fill-rule:nonzero;stroke:#205ba2;stroke-width:0" />
<polygon
   points="130.72,278.47 164.35,278.48 175.12,309.37 186.65,278.61 218.1,278.7 192.17,261.23 200.82,227.93 174.95,249.8 146.57,228.63 158.45,261.59 130.72,278.47 "
   id="polygon120"
   style="fill:#fff;fill-rule:nonzero;stroke:#fff;stroke-width:0" />
<path
   d="M 175.57,249.11 L 176.49,249.14 L 177.41,249.2 L 178.31,249.31 L 179.19,249.46 L 180.06,249.65 L 180.91,249.87 L 181.75,250.14 L 182.56,250.44 L 183.36,250.78 L 184.13,251.16 L 184.89,251.56 L 185.61,252 L 186.32,252.48 L 187,252.98 L 187.65,253.51 L 188.27,254.07 L 188.87,254.66 L 189.43,255.27 L 189.97,255.91 L 190.47,256.58 L 190.93,257.26 L 191.37,257.97 L 191.76,258.7 L 192.12,259.45 L 192.44,260.22 L 192.73,261.01 L 192.97,261.81 L 193.17,262.63 L 193.33,263.46 L 193.44,264.31 L 193.51,265.17 L 193.54,266.04 C 193.54,275.39 185.49,282.96 175.57,282.96 C 165.65,282.96 157.6,275.39 157.6,266.04 C 157.6,256.69 165.65,249.11 175.57,249.11 z"
   id="path122"
   style="fill:#d02d4b;fill-opacity:1;fill-rule:nonzero;stroke:#f40019;stroke-width:0" />
<path
   d="M 319.05,157.71 L 313.8,167.57 C 311.17,164.62 309.2,162.97 310.84,159.36 C 312.48,155.75 319.05,157.71 319.05,157.71 z"
   id="path124"
   style="fill:#fff;fill-rule:nonzero;stroke:#fff;stroke-width:0" />
<path
   d="M 328.91,163.96 L 328.66,163.42 L 328.41,162.89 L 328.14,162.39 L 327.87,161.91 L 327.59,161.44 L 327.31,161 L 327.02,160.57 L 326.73,160.16 L 326.44,159.77 L 326.13,159.39 L 325.83,159.04 L 325.52,158.69 L 325.21,158.37 L 324.9,158.05 L 324.59,157.76 L 324.27,157.47 L 323.96,157.2 L 323.64,156.94 L 323.32,156.7 L 323.01,156.46 L 322.69,156.24 L 322.38,156.03 L 322.06,155.83 L 321.75,155.64 L 321.14,155.29 L 320.53,154.97 L 319.95,154.69 L 319.38,154.43 C 316.43,153.12 310.18,155.75 310.18,155.75 C 312.16,148.19 315.44,143.59 318.07,140.96 C 320.7,138.33 327.93,128.8 330.88,122.23 C 336.8,124.53 340.09,126.5 341.4,130.12 C 342.71,133.73 340.41,137.67 338.44,140.63 C 336.47,143.59 331.87,152.79 330.88,155.75 C 329.9,158.7 328.91,163.96 328.91,163.96 z"
   id="path126"
   style="fill:#fff;fill-rule:nonzero;stroke:#fff;stroke-width:0" />
<path
   d="M 25.793,157.71 L 31.051,167.57 C 33.676,164.62 35.648,162.97 34.008,159.36 C 32.363,155.75 25.793,157.71 25.793,157.71 z"
   id="path128"
   style="fill:#fff;fill-rule:nonzero;stroke:#fff;stroke-width:0" />
<path
   d="M 15.934,163.96 L 16.184,163.42 L 16.441,162.89 L 16.706,162.39 L 16.977,161.91 L 17.254,161.44 L 17.536,161 L 17.824,160.57 L 18.116,160.16 L 18.413,159.77 L 18.714,159.39 L 19.018,159.04 L 19.325,158.69 L 19.635,158.37 L 19.947,158.05 L 20.261,157.76 L 20.576,157.47 L 20.892,157.2 L 21.209,156.94 L 21.526,156.7 L 21.843,156.46 L 22.159,156.24 L 22.473,156.03 L 22.787,155.83 L 23.098,155.64 L 23.712,155.29 L 24.314,154.97 L 24.899,154.69 L 25.465,154.43 C 28.422,153.12 34.664,155.75 34.664,155.75 C 32.691,148.19 29.406,143.59 26.777,140.96 C 24.148,138.33 16.922,128.8 13.965,122.23 C 8.0508,124.53 4.7617,126.5 3.4492,130.12 C 2.1367,133.73 4.4336,137.67 6.4063,140.63 C 8.3789,143.59 12.977,152.79 13.965,155.75 C 14.949,158.7 15.934,163.96 15.934,163.96 z"
   id="path130"
   style="fill:#fff;fill-rule:nonzero;stroke:#fff;stroke-width:0" />

<path
   d="M 43.227,118.5 L 28.883,103.93 C 27.984,103.01 28.313,102.68 28.523,102.25 L 27.414,101.46 L 25.352,105.07 L 26.461,105.85 C 27.105,104.91 27.266,104.44 28.426,105.63 L 31.434,108.68 L 29.617,111.85 L 27.281,110.72 C 24.969,109.61 24.836,108.77 25.273,107.71 L 24.223,107.04 L 22.719,110.67 L 23.77,111.34 C 24.152,110.42 25.313,110.64 26.375,111.15 L 42.965,118.96 L 43.227,118.5 z"
   id="path134"
   style="fill:#205ba2;fill-rule:nonzero;stroke:#205ba2;stroke-width:0" />
<path
   d="M 46.66,112.77 L 45.719,111.69 C 45.645,111.8 45.555,111.93 45.457,112.07 C 45.176,112.46 44.898,112.91 43.961,111.82 L 32.82,98.949 L 32.52,98.621 C 31.727,97.766 31.988,97.285 32.359,96.758 L 32.543,96.504 L 31.582,95.391 L 29.086,98.93 L 30.023,100.01 L 30.23,99.723 C 30.578,99.227 30.93,98.891 31.867,99.977 L 43.113,112.97 C 43.988,113.98 43.871,114.26 43.363,114.98 L 43.195,115.21 L 44.156,116.32 L 46.66,112.77 z"
   id="path136"
   style="fill:#205ba2;fill-rule:nonzero;stroke:#205ba2;stroke-width:0" />

<path
   d="M 51.422,107.75 L 51.504,107.65 L 51.58,107.54 L 51.65,107.42 L 51.715,107.3 L 51.772,107.17 L 51.822,107.03 L 51.866,106.88 L 51.901,106.73 L 51.929,106.56 L 51.948,106.4 L 51.959,106.22 L 51.96,106.04 L 51.953,105.85 L 51.935,105.65 L 51.908,105.45 L 51.87,105.25 L 51.822,105.03 L 51.762,104.81 L 51.691,104.59 L 51.609,104.36 L 51.514,104.12 L 51.407,103.88 L 51.288,103.63 L 51.155,103.38 L 51.009,103.13 L 50.849,102.87 L 50.675,102.6 L 50.486,102.33 L 50.283,102.06 L 50.065,101.78 L 49.831,101.5 L 49.582,101.21 C 46.793,98.102 44.781,98.152 43.777,99.102 C 43.777,99.102 43.754,99.035 43.742,99.047 C 43.969,98.445 44.348,97.477 42.094,94.34 C 41.422,93.398 40.277,91.879 40.277,91.879 C 39.039,90.215 38.867,89.777 39.043,89.574 C 39.344,89.234 40.988,91.016 41.508,91.594 L 41.848,91.203 C 40.004,89.16 37.887,87.234 37.063,88.176 C 36.438,88.891 37.348,90.582 38.879,92.445 C 38.879,92.445 40.168,93.996 40.871,94.859 C 42.898,97.328 43.211,98.578 42.824,99.41 C 42.656,99.75 42.383,100.01 42.141,100.29 L 36.395,93.867 C 35.508,92.879 35.863,92.523 36.164,92.18 C 36.164,92.18 36.305,92.02 36.387,91.824 L 35.434,90.766 L 32.684,93.906 L 33.656,94.992 C 34.238,94.57 34.297,93.578 35.742,95.195 L 47.133,107.91 C 48.148,109.05 48.102,109.3 47.645,109.82 C 47.527,109.95 47.434,110.11 47.332,110.23 L 48.305,111.31 L 51.422,107.75 z"
   id="path140"
   style="fill:#205ba2;fill-rule:nonzero;stroke:#205ba2;stroke-width:0" />
<path
   d="M 65.063,95.496 L 60.047,88.781 L 59.637,89.105 C 63.234,94.348 63.031,95.215 61.285,96.574 C 60.648,97.07 60.441,97.152 59.715,96.223 L 54.848,89.977 C 55.961,88.941 56.859,89.359 59.262,92.219 L 59.703,91.875 L 53.082,83.383 L 52.641,83.727 C 55.531,87.535 54.883,88.16 53.922,88.785 L 48.531,81.871 C 47.824,80.965 48.148,80.633 48.629,80.258 C 48.668,80.227 48.992,79.934 48.992,79.934 L 48.086,78.773 L 44.703,81.406 L 45.609,82.57 L 45.863,82.371 C 46.363,81.984 46.758,81.801 47.684,82.988 L 58.426,96.77 C 59.531,98.191 58.977,98.246 58.578,98.645 L 58.344,98.867 L 59.246,100.03 L 65.063,95.496 z"
   id="path142"
   style="fill:#205ba2;fill-rule:nonzero;stroke:#205ba2;stroke-width:0" />

<path
   d="M 66.727,80.469 L 66.43,80.006 L 66.124,79.547 L 65.488,78.644 L 65.16,78.202 L 64.825,77.768 L 64.486,77.343 L 64.142,76.928 L 63.794,76.523 L 63.444,76.13 L 63.091,75.75 L 62.738,75.384 L 62.384,75.032 L 62.03,74.696 L 61.678,74.377 L 61.327,74.076 L 60.979,73.794 L 60.635,73.531 L 60.296,73.289 L 59.961,73.069 L 59.632,72.871 L 59.31,72.698 L 58.996,72.549 L 58.69,72.426 L 58.393,72.329 L 58.106,72.261 L 57.83,72.221 L 57.565,72.211 L 57.313,72.232 L 57.073,72.284 L 56.848,72.369 L 56.637,72.488 C 54.492,73.922 56.207,79.926 59.492,85.152 C 62.48,89.91 67.367,94.695 69.617,93.191 C 71.773,91.746 70.063,85.777 66.727,80.469 z"
   id="path146"
   style="fill:#205ba2;fill-rule:nonzero;stroke:#205ba2;stroke-width:0" />

<path
   d="M 77.637,87.617 L 77.743,87.549 L 77.846,87.472 L 77.945,87.385 L 78.039,87.29 L 78.128,87.186 L 78.211,87.073 L 78.289,86.951 L 78.361,86.82 L 78.426,86.68 L 78.484,86.532 L 78.535,86.375 L 78.579,86.209 L 78.614,86.035 L 78.641,85.852 L 78.659,85.66 L 78.668,85.46 L 78.667,85.251 L 78.657,85.034 L 78.636,84.809 L 78.604,84.575 L 78.561,84.333 L 78.507,84.082 L 78.441,83.824 L 78.363,83.557 L 78.272,83.281 L 78.168,82.998 L 78.051,82.707 L 77.92,82.407 L 77.774,82.1 L 77.615,81.784 L 77.44,81.46 L 77.25,81.129 C 75.109,77.488 73.039,76.961 71.793,77.543 C 71.793,77.543 71.781,77.473 71.77,77.48 C 72.137,77 72.746,76.223 71.16,72.715 C 70.684,71.664 69.859,69.945 69.859,69.945 C 68.977,68.074 68.898,67.629 69.125,67.492 C 69.512,67.266 70.789,69.363 71.188,70.039 L 71.625,69.781 C 70.203,67.391 68.48,65.027 67.418,65.652 C 66.617,66.125 67.16,67.93 68.301,70.066 C 68.301,70.066 69.266,71.855 69.789,72.836 C 71.297,75.672 71.332,76.902 70.746,77.551 C 70.496,77.813 70.156,77.977 69.848,78.156 L 65.43,70.656 C 64.75,69.5 65.195,69.277 65.582,69.051 C 65.582,69.051 65.766,68.941 65.891,68.789 L 65.16,67.551 L 61.625,69.633 L 62.371,70.902 C 63.066,70.684 63.352,69.793 64.461,71.684 L 73.211,86.543 C 73.988,87.867 73.887,88.082 73.297,88.43 C 73.145,88.516 73.012,88.633 72.883,88.711 L 73.629,89.98 L 77.637,87.617 z"
   id="path150"
   style="fill:#205ba2;fill-rule:nonzero;stroke:#205ba2;stroke-width:0" />
<path
   d="M 85.945,81.25 L 87.348,82.844 L 87.754,82.633 L 83.551,74.16 L 83.035,74.355 C 84.883,78.852 85.754,82.234 84.332,82.973 C 83.523,83.391 82.246,82.652 80.625,80.473 C 79.539,79.008 78.52,77.363 76.77,73.996 C 73.652,67.984 72.863,64.523 74.508,63.668 C 76.051,62.867 78.34,65.438 80.363,68.883 L 80.762,68.383 C 77.938,63.582 75.418,61.535 73.672,62.441 C 71.488,63.574 72.352,68.988 75.398,74.855 C 76.965,77.875 78.699,80.402 80.363,82.047 C 82.266,83.934 83.816,84.898 84.988,84.289 C 85.914,83.809 86.102,82.496 85.945,81.25 z"
   id="path152"
   style="fill:#205ba2;fill-rule:nonzero;stroke:#205ba2;stroke-width:0" />
<path
   d="M 95.496,78.742 L 92.066,71.102 L 91.594,71.32 C 93.621,76.555 93.934,77.855 91.645,78.941 L 91.395,79.059 C 90.914,79.285 90.594,79.547 90.02,78.336 L 86.625,71.18 C 86.773,71.109 87.031,70.988 87.031,70.988 C 87.984,70.535 88.922,71.32 90.445,74.328 L 90.953,74.09 L 86.34,64.359 L 85.832,64.602 C 87.082,67.27 87.496,69.102 86.578,69.535 C 86.578,69.535 86.027,69.797 85.98,69.816 L 82.238,61.926 C 81.648,60.684 82.297,60.484 82.902,60.195 C 85.094,59.156 85.969,60.152 88.992,65.348 L 89.453,65.129 L 85.496,57.336 L 78.59,60.613 L 79.219,61.941 L 79.477,61.82 C 80.152,61.5 80.465,61.352 81.293,63.098 L 88.641,78.59 C 89.285,79.949 89.086,80.047 88.73,80.285 C 88.73,80.285 88.25,80.551 88.102,80.621 L 88.734,81.949 L 95.496,78.742 z"
   id="path154"
   style="fill:#205ba2;fill-rule:nonzero;stroke:#205ba2;stroke-width:0" />
<path
   d="M 106.79,72.047 L 107.97,73.766 L 108.39,73.59 L 105.53,65.594 L 105.04,65.805 C 106.03,69.402 106.46,73.066 104.99,73.695 C 103.86,74.18 102.66,72.746 101.93,70.801 C 101.31,69.156 101.18,67.691 101.86,66.625 C 101.86,66.625 102.81,65.164 103.54,64.039 C 104.04,63.266 104.25,61.023 102.82,57.25 C 101.34,53.328 99.246,51.184 97.563,51.902 C 96.77,52.238 96.098,53.16 96.027,55.273 L 94.727,53.395 L 94.301,53.574 L 97.457,62.148 L 97.988,62.027 C 96.727,57.941 96.305,54.027 98.059,53.277 C 99.336,52.734 100.71,54.41 101.48,56.449 C 102.23,58.453 102.47,59.977 101.73,61.066 C 101.73,61.066 100.73,62.484 100.13,63.484 C 99.621,64.332 99.145,66.09 100.58,69.891 C 102.15,74.059 104.06,75.684 105.48,75.074 C 106.06,74.828 106.75,74.109 106.79,72.047 z"
   id="path156"
   style="fill:#205ba2;fill-rule:nonzero;stroke:#205ba2;stroke-width:0" />

<path
   d="M 113.71,71.102 L 113.87,71.034 L 114.01,70.956 L 114.15,70.87 L 114.28,70.774 L 114.41,70.668 L 114.53,70.553 L 114.64,70.427 L 114.75,70.292 L 114.85,70.147 L 114.94,69.992 L 115.02,69.826 L 115.1,69.65 L 115.17,69.464 L 115.22,69.267 L 115.27,69.059 L 115.31,68.84 L 115.34,68.611 L 115.36,68.37 L 115.37,68.119 L 115.38,67.856 L 115.37,67.581 L 115.34,67.295 L 115.31,66.998 L 115.27,66.689 L 115.21,66.368 L 115.15,66.035 L 115.07,65.69 L 114.98,65.333 L 114.87,64.964 L 114.76,64.582 L 114.63,64.188 L 114.48,63.781 C 113.67,61.555 112.79,60.266 111.77,59.316 C 110.82,58.441 109.89,58.547 108.8,58.992 C 108.34,59.188 108.01,59.391 107.61,59.559 L 105.2,52.953 C 104.59,51.273 104.71,51.016 105.27,50.781 C 105.47,50.699 105.68,50.613 105.88,50.531 L 105.38,49.156 L 101.48,50.766 L 101.98,52.145 C 102.13,52.082 102.28,52.02 102.42,51.961 C 103.07,51.688 103.32,51.766 103.98,53.598 L 109.77,69.492 C 110.32,70.988 109.8,71.102 109.39,71.273 L 109,71.43 L 109.52,72.836 L 113.71,71.102 z"
   id="path160"
   style="fill:#205ba2;fill-rule:nonzero;stroke:#205ba2;stroke-width:0" />
<path
   d="M 123.63,67.063 L 121.29,59.078 L 120.81,59.277 C 122.09,64.723 122.22,66.063 119.84,67.027 L 119.58,67.133 C 119.08,67.34 118.73,67.582 118.33,66.316 L 115.97,58.832 C 116.13,58.77 116.39,58.66 116.39,58.66 C 117.39,58.258 118.19,59.117 119.28,62.27 L 119.81,62.055 L 116.6,51.883 L 116.07,52.098 C 116.94,54.883 117.1,56.77 116.14,57.16 C 116.14,57.16 115.57,57.391 115.53,57.41 L 112.93,49.156 C 112.52,47.859 113.18,47.695 113.81,47.438 C 116.08,46.516 116.8,47.582 119.06,53.047 L 119.54,52.852 L 116.72,44.688 L 109.54,47.602 L 109.98,48.992 L 110.24,48.883 C 110.94,48.602 111.27,48.469 111.85,50.289 L 116.95,66.492 C 117.4,67.914 117.19,67.996 116.81,68.223 C 116.81,68.223 116.31,68.461 116.16,68.523 L 116.6,69.914 L 123.63,67.063 z"
   id="path162"
   style="fill:#205ba2;fill-rule:nonzero;stroke:#205ba2;stroke-width:0" />
<path
   d="M 129.85,62.277 L 130.88,64.027 L 131.32,63.863 L 129,54.934 L 128.46,55.066 C 129.31,59.766 129.45,63.238 127.9,63.816 C 127.03,64.141 125.93,63.258 124.81,60.898 C 124.06,59.313 123.4,57.555 122.4,53.996 C 120.62,47.641 120.57,44.098 122.36,43.434 C 124.05,42.809 125.74,45.637 127,49.305 L 127.49,48.848 C 125.74,43.738 123.7,41.406 121.81,42.113 C 119.43,42.996 119.13,48.496 120.88,54.695 C 121.77,57.891 122.93,60.609 124.22,62.441 C 125.68,64.539 127,65.68 128.27,65.203 C 129.28,64.828 129.73,63.539 129.85,62.277 z"
   id="path164"
   style="fill:#205ba2;fill-rule:nonzero;stroke:#205ba2;stroke-width:0" />
<path
   d="M 135.84,61.406 L 135.42,59.977 C 135.31,60.031 135.18,60.098 135.03,60.164 C 134.61,60.363 134.18,60.605 133.77,59.176 L 128.9,42.883 L 128.76,42.445 C 128.39,41.285 128.82,41.004 129.36,40.738 L 129.64,40.609 L 129.21,39.148 L 125.52,40.926 L 125.93,42.355 L 126.23,42.211 C 126.75,41.961 127.21,41.852 127.62,43.281 L 132.53,59.727 C 132.91,61.063 132.7,61.234 131.94,61.594 L 131.69,61.711 L 132.12,63.172 L 135.84,61.406 z"
   id="path166"
   style="fill:#205ba2;fill-rule:nonzero;stroke:#205ba2;stroke-width:0" />

<path
   d="M 140.65,59.402 L 138.07,37.758 C 137.91,36.379 138.33,36.305 138.72,36.07 L 138.32,34.664 L 134.82,36.449 L 135.22,37.855 C 136.21,37.453 136.59,37.156 136.8,38.941 L 137.29,43.316 L 134.15,44.676 L 133.23,42.527 C 132.12,40.043 132.5,39.215 133.4,38.828 L 133,37.426 L 129.93,38.754 L 130.32,40.156 C 131.1,39.816 131.79,41.125 132.31,42.266 L 140.19,59.602 L 140.65,59.402 z"
   id="path170"
   style="fill:#205ba2;fill-rule:nonzero;stroke:#205ba2;stroke-width:0" />
<path
   d="M 147.18,55.238 L 146.91,53.797 C 146.79,53.867 146.08,54.227 146.08,54.227 C 145.96,54.258 145.61,54.52 145.34,53.012 L 142.28,35.902 C 142,34.324 142.22,34.066 143.09,33.582 C 144.35,32.891 144.93,32.992 145.63,34.129 C 145.94,34.633 146.65,36.641 147.34,39.547 L 147.82,39.242 L 146.01,30.383 L 139.22,34.125 L 139.48,35.574 L 139.82,35.383 C 140.27,35.137 140.75,35.02 141.01,36.5 L 144.12,53.902 C 144.32,55.027 144.1,55.289 143.68,55.559 C 143.68,55.559 143.57,55.652 143.11,55.91 L 143.37,57.355 L 147.18,55.238 z"
   id="path172"
   style="fill:#205ba2;fill-rule:nonzero;stroke:#205ba2;stroke-width:0" />

<path
   d="M 163.8,32.59 L 163.72,32.06 L 163.64,31.535 L 163.54,31.013 L 163.44,30.498 L 163.32,29.989 L 163.2,29.488 L 163.07,28.997 L 162.94,28.516 L 162.79,28.046 L 162.64,27.589 L 162.48,27.146 L 162.32,26.718 L 162.15,26.306 L 161.97,25.912 L 161.79,25.535 L 161.6,25.179 L 161.41,24.843 L 161.21,24.529 L 161,24.238 L 160.8,23.971 L 160.59,23.73 L 160.37,23.515 L 160.15,23.328 L 159.93,23.17 L 159.71,23.042 L 159.48,22.945 L 159.37,22.909 L 159.26,22.88 L 159.14,22.86 L 159.03,22.849 L 158.91,22.846 L 158.79,22.852 L 158.68,22.868 L 158.56,22.892 L 158.45,22.925 L 158.33,22.968 L 158.21,23.02 L 158.09,23.082 C 155.62,24.496 154.71,31.207 155.51,37.184 C 156.24,42.629 158.63,48.238 161.22,46.754 C 163.71,45.336 164.6,38.66 163.8,32.59 z"
   id="path176"
   style="fill:#205ba2;fill-rule:nonzero;stroke:#205ba2;stroke-width:0" />

<path
   d="M 169.94,39.922 L 170.09,39.815 L 170.25,39.698 L 170.4,39.571 L 170.54,39.434 L 170.69,39.288 L 170.83,39.132 L 170.96,38.965 L 171.1,38.789 L 171.23,38.602 L 171.35,38.405 L 171.47,38.198 L 171.59,37.98 L 171.7,37.752 L 171.81,37.513 L 171.91,37.264 L 172,37.003 L 172.09,36.732 L 172.18,36.451 L 172.25,36.158 L 172.33,35.854 L 172.39,35.539 L 172.45,35.212 L 172.5,34.875 L 172.55,34.526 L 172.58,34.166 L 172.61,33.794 L 172.63,33.41 L 172.65,33.015 L 172.65,32.608 L 172.65,32.19 L 172.64,31.759 L 172.62,31.316 C 172.48,28.891 172.03,27.566 171.35,26.664 C 170.73,25.832 169.85,26.129 168.74,26.855 C 168.27,27.164 167.92,27.465 167.51,27.734 L 167.11,20.285 C 167.01,18.477 167.18,18.129 167.77,17.664 C 167.96,17.504 168.18,17.332 168.38,17.176 L 168.3,15.691 L 164.31,18.871 L 164.4,20.352 C 164.55,20.23 164.7,20.109 164.84,19.992 C 165.52,19.457 165.71,19.469 165.83,21.445 L 166.79,38.809 C 166.88,40.438 166.38,40.66 165.95,40.941 L 165.57,41.195 L 165.65,42.723 L 169.94,39.922 z"
   id="path180"
   style="fill:#205ba2;fill-rule:nonzero;stroke:#205ba2;stroke-width:0" />
<path
   d="M 181.59,44.508 L 182.17,36.949 L 181.61,36.477 C 181.14,41.684 180.84,41.738 178.1,39.418 L 177.81,39.168 C 177.23,38.68 176.8,38.414 176.81,37.074 L 176.85,28.363 C 177.02,28.465 177.33,28.641 177.33,28.641 C 178.47,29.297 179.01,30.723 179.09,34.145 L 179.7,34.492 L 179.74,23.738 L 179.14,23.391 C 179.11,26.324 178.66,27.902 177.56,27.27 C 177.56,27.27 176.91,26.891 176.85,26.859 L 176.89,19.301 C 176.9,17.926 177.62,18.566 178.34,19.113 C 180.96,21.074 181.34,20.223 181.86,26.551 L 182.41,26.898 L 182.2,20.531 L 173.96,14.34 L 173.95,15.809 L 174.26,16.039 C 175.06,16.645 175.44,16.926 175.43,18.855 L 175.35,35.477 C 175.34,36.98 175.1,36.773 174.65,36.453 C 174.65,36.453 174.06,35.984 173.88,35.836 L 173.88,37.305 L 181.59,44.508 z"
   id="path182"
   style="fill:#205ba2;fill-rule:nonzero;stroke:#205ba2;stroke-width:0" />

<path
   d="M 187.73,48.48 L 187.86,48.568 L 187.99,48.647 L 188.13,48.717 L 188.27,48.778 L 188.4,48.829 L 188.54,48.869 L 188.68,48.899 L 188.82,48.917 L 188.96,48.924 L 189.1,48.919 L 189.24,48.902 L 189.37,48.872 L 189.51,48.829 L 189.64,48.772 L 189.77,48.701 L 189.83,48.66 L 189.9,48.616 L 189.96,48.568 L 190.02,48.516 L 190.08,48.46 L 190.14,48.4 L 190.2,48.337 L 190.26,48.27 L 190.32,48.198 L 190.37,48.123 L 190.43,48.043 L 190.48,47.959 L 190.54,47.871 L 190.59,47.779 L 190.64,47.682 L 190.69,47.581 L 190.74,47.476 L 190.78,47.366 L 190.83,47.251 L 190.87,47.132 L 190.91,47.009 L 190.95,46.881 L 190.99,46.748 L 191.03,46.61 L 191.06,46.467 L 191.1,46.32 L 191.13,46.167 L 191.16,46.01 L 191.19,45.847 L 191.21,45.679 L 191.24,45.507 L 191.26,45.329 L 191.28,45.145 L 191.3,44.957 C 191.67,40.813 190.23,37.613 188.83,36.727 C 188.83,36.727 188.86,36.676 188.85,36.664 C 189.45,36.746 190.43,36.898 191.2,33.313 C 191.42,32.238 191.76,30.434 191.76,30.434 C 192.13,28.484 192.34,28.148 192.6,28.293 C 193.07,28.539 192.89,31.008 192.82,31.789 L 193.35,32.074 C 193.58,29.293 193.54,26.23 192.27,25.551 C 191.3,25.031 190.68,26.609 190.37,28.973 C 190.37,28.973 190.11,30.949 189.96,32.031 C 189.54,35.152 188.82,35.902 187.94,35.699 C 187.57,35.605 187.19,35.363 186.82,35.164 L 187.58,26.656 C 187.7,25.328 188.21,25.672 188.68,25.949 C 188.68,25.949 188.9,26.082 189.09,26.133 L 189.22,24.703 L 184.98,22.152 L 184.85,23.609 C 185.57,24.215 186.34,24.031 186.15,26.203 L 184.63,42.973 C 184.5,44.484 184.28,44.469 183.57,43.969 C 183.39,43.84 183.21,43.742 183.05,43.637 L 182.93,45.082 L 187.73,48.48 z"
   id="path186"
   style="fill:#205ba2;fill-rule:nonzero;stroke:#205ba2;stroke-width:0" />

<path
   d="M 194.88,53.824 L 203.63,35.645 C 204.21,34.559 204.61,34.91 205.07,35.125 L 205.46,33.805 L 201.5,31.66 L 201.11,32.984 C 202.18,33.664 202.66,33.82 201.92,35.227 L 200.08,38.781 L 196.68,37.176 L 196.98,34.316 C 197.27,31.488 198.02,31.18 198.98,31.641 L 199.35,30.242 L 196.03,28.668 L 195.66,30.066 C 196.5,30.465 196.45,32.039 196.32,33.34 L 194.38,53.59 L 194.88,53.824 z"
   id="path190"
   style="fill:#205ba2;fill-rule:nonzero;stroke:#205ba2;stroke-width:0" />
<path
   d="M 207.56,60.465 L 209.81,52.289 L 209.29,52 C 208.28,55.152 206.91,58.582 205.35,57.715 C 204.94,57.48 204.79,57.09 205.04,56.051 L 208.98,38.875 C 209.3,37.547 209.63,37.574 210.32,37.914 C 210.52,38.012 210.7,38.105 210.87,38.188 L 211.2,36.828 L 206.66,34.578 L 206.34,35.938 C 206.48,36.008 206.79,36.23 206.85,36.262 C 207.55,36.609 207.92,36.723 207.6,38.023 L 203.6,55.348 C 203.38,56.238 203.1,56.449 202.64,56.195 C 201.14,55.355 201.52,51.816 202.12,48.098 L 201.61,47.816 L 199.83,56.148 L 207.56,60.465 z"
   id="path192"
   style="fill:#205ba2;fill-rule:nonzero;stroke:#205ba2;stroke-width:0" />
<path
   d="M 213.35,63.266 L 213.67,61.867 C 213.54,61.805 213.39,61.734 213.22,61.652 C 212.75,61.43 212.24,61.227 212.56,59.828 L 216.29,42.777 L 216.37,42.336 C 216.59,41.164 217.11,41.34 217.74,41.629 L 218.05,41.77 L 218.37,40.332 L 214.16,38.398 L 213.85,39.801 L 214.2,39.961 C 214.79,40.23 215.25,40.547 214.93,41.949 L 211.17,59.129 C 210.88,60.453 210.6,60.379 209.74,59.977 L 209.46,59.844 L 209.14,61.273 L 213.35,63.266 z"
   id="path194"
   style="fill:#205ba2;fill-rule:nonzero;stroke:#205ba2;stroke-width:0" />

<path
   d="M 226.3,55.891 L 226.45,55.386 L 226.59,54.877 L 226.73,54.362 L 226.85,53.845 L 226.96,53.326 L 227.07,52.805 L 227.16,52.286 L 227.24,51.768 L 227.31,51.253 L 227.37,50.742 L 227.41,50.236 L 227.45,49.737 L 227.47,49.246 L 227.48,48.764 L 227.48,48.292 L 227.46,47.832 L 227.43,47.384 L 227.39,46.95 L 227.33,46.531 L 227.27,46.128 L 227.18,45.743 L 227.09,45.377 L 226.97,45.031 L 226.85,44.706 L 226.71,44.403 L 226.55,44.124 L 226.38,43.87 L 226.2,43.642 L 225.99,43.442 L 225.78,43.27 L 225.54,43.127 L 225.29,43.016 C 222.57,42.008 219.01,46.766 217.23,52.406 C 215.6,57.547 215.35,64.285 218.21,65.344 C 220.95,66.355 224.48,61.625 226.3,55.891 z"
   id="path198"
   style="fill:#205ba2;fill-rule:nonzero;stroke:#205ba2;stroke-width:0" />
<path
   d="M 225.38,68.359 L 237.08,54 L 232.3,65.586 C 231.18,68.313 230.54,68.645 229.47,68.453 L 228.91,69.816 L 232.4,71.25 L 232.96,69.891 C 232.07,69.352 231.82,68.57 233.09,65.484 L 239.79,49.148 L 239.3,48.945 L 226.43,64.441 L 230.65,51.145 C 231.55,48.691 232.09,47.941 233.11,48.184 L 233.54,46.813 L 229.94,45.332 L 229.5,46.734 C 230.55,47.379 230.71,48.18 229.75,51.34 L 225.34,65.27 C 224.88,66.391 224.09,66.238 223.59,66.035 L 223.34,65.934 L 222.78,67.297 L 225.38,68.359 z"
   id="path200"
   style="fill:#205ba2;fill-rule:nonzero;stroke:#205ba2;stroke-width:0" />
<path
   d="M 240.17,72.281 L 239.95,74.387 L 240.41,74.574 L 243.55,66.793 L 243,66.566 C 241.36,69.852 239.21,72.758 237.6,72.082 C 236.36,71.57 236.38,69.66 237.11,67.734 C 237.73,66.113 238.63,64.988 239.9,64.754 C 239.9,64.754 241.65,64.438 243,64.195 C 243.93,64.027 245.63,62.605 247.04,58.879 C 248.52,55 248.3,51.91 246.46,51.145 C 245.59,50.781 244.42,50.926 242.93,52.359 L 243.16,50.055 L 242.7,49.859 L 239.4,58.273 L 239.91,58.59 C 241.68,54.762 244,51.691 245.91,52.488 C 247.32,53.07 247.27,55.281 246.51,57.297 C 245.75,59.281 244.91,60.531 243.57,60.742 C 243.57,60.742 241.8,60.98 240.64,61.23 C 239.65,61.445 238.08,62.32 236.65,66.078 C 235.07,70.199 235.5,72.777 237.06,73.426 C 237.69,73.691 238.73,73.707 240.17,72.281 z"
   id="path202"
   style="fill:#205ba2;fill-rule:nonzero;stroke:#205ba2;stroke-width:0" />
<path
   d="M 255.25,78.996 L 254.86,81.098 L 255.31,81.309 L 259.53,72.844 L 259.03,72.531 C 256.53,76.707 254.31,79.422 252.75,78.68 C 251.86,78.262 251.62,76.77 252.34,74.145 C 252.83,72.387 253.52,70.57 255.14,67.141 C 258.04,61.02 260.38,58.328 262.19,59.188 C 263.89,59.988 263.28,63.395 261.78,67.102 L 262.46,67.133 C 264.55,61.969 264.57,58.684 262.65,57.773 C 260.25,56.637 256.34,60.539 253.51,66.516 C 252.05,69.59 251.11,72.512 250.86,74.855 C 250.57,77.539 250.8,79.391 252.09,80 C 253.11,80.48 254.32,79.859 255.25,78.996 z"
   id="path204"
   style="fill:#205ba2;fill-rule:nonzero;stroke:#205ba2;stroke-width:0" />

<path
   d="M 270.15,75.328 L 270.4,74.836 L 270.65,74.337 L 270.88,73.833 L 271.11,73.324 L 271.33,72.813 L 271.53,72.299 L 271.73,71.785 L 271.91,71.272 L 272.09,70.76 L 272.25,70.252 L 272.4,69.747 L 272.53,69.248 L 272.66,68.756 L 272.76,68.272 L 272.86,67.796 L 272.94,67.331 L 273,66.877 L 273.05,66.436 L 273.08,66.009 L 273.1,65.597 L 273.1,65.202 L 273.08,64.823 L 273.04,64.464 L 272.98,64.124 L 272.91,63.806 L 272.82,63.51 L 272.7,63.237 L 272.57,62.989 L 272.41,62.767 L 272.23,62.573 L 272.04,62.406 L 271.82,62.27 C 269.37,60.984 264.94,65.422 262.04,70.922 C 259.41,75.934 257.78,82.691 260.34,84.039 C 262.8,85.332 267.21,80.922 270.15,75.328 z"
   id="path208"
   style="fill:#205ba2;fill-rule:nonzero;stroke:#205ba2;stroke-width:0" />
<path
   d="M 267.12,87.445 L 278.64,73.848 L 271.49,89.973 L 274.35,91.77 L 275.13,90.52 C 274.7,90.207 274.36,89.918 274.36,89.918 C 274.01,89.66 274.27,89.094 274.9,88.094 L 284.02,73.547 C 284.64,72.547 284.96,72.32 285.57,72.664 L 286.11,72.965 L 286.89,71.715 L 283.13,69.398 L 282.37,70.617 L 282.64,70.824 C 283.29,71.316 283.63,71.41 282.69,72.906 L 272.72,88.816 L 281.66,68.75 L 281.24,68.488 L 266.73,85.387 L 266.87,85.105 L 275.39,71.027 C 276.82,68.754 277.9,67.992 278.81,68.527 L 279.55,67.184 L 276.43,65.359 L 275.7,66.676 C 276.6,67.551 276.12,68.66 274.55,71.156 L 266.97,83.727 C 266.16,85.031 265.71,85.012 265.28,84.766 C 265.07,84.645 264.86,84.52 264.66,84.406 L 263.99,85.641 L 267.12,87.445 z"
   id="path210"
   style="fill:#205ba2;fill-rule:nonzero;stroke:#205ba2;stroke-width:0" />
<path
   d="M 278.09,94.313 L 290.8,81.723 L 282.16,97.371 L 284.86,99.402 L 285.75,98.227 C 285.34,97.879 285.02,97.559 285.02,97.559 C 284.7,97.273 285.01,96.73 285.72,95.785 L 296.01,82.07 C 296.72,81.129 297.05,80.93 297.63,81.32 L 298.14,81.664 L 299.03,80.484 L 295.48,77.863 L 294.61,79.016 L 294.86,79.242 C 295.48,79.785 295.8,79.906 294.75,81.32 L 283.49,96.32 L 294.24,76.895 L 293.85,76.598 L 278.06,92.254 L 278.25,91.984 L 288.01,78.965 C 289.62,76.816 290.76,76.102 291.7,76.754 L 292.5,75.59 L 289.29,73.359 L 288.5,74.496 C 289.41,75.477 288.93,76.668 287.16,79.023 L 278.46,90.621 C 277.54,91.852 277.1,91.824 276.71,91.559 C 276.53,91.43 276.33,91.293 276.16,91.172 L 275.27,92.359 L 278.09,94.313 z"
   id="path212"
   style="fill:#205ba2;fill-rule:nonzero;stroke:#205ba2;stroke-width:0" />

<path
   d="M 287.61,102.77 L 305.01,89.793 C 306.1,88.98 306.34,89.391 306.7,89.691 L 307.72,88.629 L 304.74,85.781 L 303.72,86.844 C 304.48,87.703 304.89,87.957 303.47,89.008 L 299.83,91.727 L 297.21,89.223 L 298.85,86.891 C 300.46,84.586 301.35,84.57 302.09,85.285 L 303.11,84.223 L 300.55,81.773 L 299.53,82.84 C 300.18,83.461 299.38,84.777 298.65,85.84 L 287.23,102.41 L 287.61,102.77 z"
   id="path216"
   style="fill:#205ba2;fill-rule:nonzero;stroke:#205ba2;stroke-width:0" />
<path
   d="M 293.86,107.97 L 310.02,100.43 L 301.34,108.81 C 299.3,110.77 298.61,110.76 297.77,110.04 L 296.75,111.03 L 299.19,114.12 L 300.21,113.14 C 299.66,112.19 299.75,111.34 302.05,109.1 L 314.88,96.723 L 314.54,96.293 L 296.13,104.9 L 306.04,95.531 C 307.89,93.68 309.61,93.07 310.43,93.766 L 311.44,92.781 L 308.83,89.797 L 307.8,90.801 C 308.46,91.855 307.18,93.352 304.96,95.566 L 294.87,105.13 C 294.07,105.93 293.39,105.4 293.01,104.97 L 292.81,104.76 L 291.84,105.73 L 293.86,107.97 z"
   id="path218"
   style="fill:#205ba2;fill-rule:nonzero;stroke:#205ba2;stroke-width:0" />

<path
   d="M 302.66,118.69 L 302.83,118.93 L 303.03,119.17 L 303.13,119.29 L 303.24,119.4 L 303.35,119.51 L 303.47,119.62 L 303.6,119.72 L 303.74,119.82 L 303.88,119.91 L 304.03,119.99 L 304.2,120.07 L 304.37,120.14 L 304.55,120.2 L 304.74,120.24 L 304.94,120.28 L 305.15,120.3 L 305.38,120.32 L 305.62,120.32 L 305.87,120.3 L 306,120.29 L 306.14,120.27 L 306.28,120.25 L 306.42,120.23 L 306.56,120.2 L 306.71,120.16 L 306.86,120.13 L 307.02,120.09 L 307.18,120.04 L 307.35,119.99 L 307.51,119.93 L 307.69,119.87 L 307.86,119.81 L 308.05,119.74 L 308.23,119.66 L 308.42,119.58 L 308.62,119.5 L 308.81,119.4 L 309.02,119.31 L 309.23,119.21 L 309.44,119.1 L 309.66,118.98 C 311.13,118.21 312.79,117.1 314.54,115.65 C 318.14,112.68 320.36,109.67 320.59,107.44 C 320.69,106.52 320.55,105.64 320.09,104.93 L 317.26,100.57 L 316.19,101.45 C 316.88,102.85 317.42,102.51 315.2,104.33 L 303.62,113.87 C 301.7,115.45 302.02,115.06 301,114.02 C 301,114.02 299.91,114.9 299.92,114.91 L 302.66,118.69 z"
   id="path222"
   style="fill:#205ba2;fill-rule:nonzero;stroke:#205ba2;stroke-width:0" />
<path
   d="M 174.17,207.65 L 176.19,206 C 176.19,206 177.03,205.61 176.35,205.23 L 174.16,205.23 L 173.25,205.23 L 171.06,205.23 C 170.39,205.61 171.23,206 171.23,206 L 173.25,207.65 L 173.68,207.99 L 174.17,207.65 z"
   id="path224"
   style="fill:#ffd300;fill-rule:nonzero;stroke:#ffd300;stroke-width:0" />
<path
   d="M 170.93,151.79 L 168.71,151.79 C 168.71,151.79 167.32,93.422 173.71,72.598 C 180.1,93.422 178.71,151.79 178.71,151.79 L 171.63,151.67 L 170.93,151.79 z"
   id="path226"
   style="fill:#fff;fill-rule:nonzero;stroke:#fff;stroke-width:0" />
<path
   d="M 173.34,205.12 L 171.06,205.12 C 171.06,205.12 171.9,201.31 171.07,195.88 C 171.07,195.88 165.35,173.15 170,153.21 L 170.05,152.36 L 171.09,152.36 L 173.68,152.36 L 177.36,152.36 L 177.42,153.21 C 182.06,173.15 176.35,195.88 176.35,195.88 C 175.51,201.31 176.35,205.12 176.35,205.12 L 174.07,205.12 L 173.34,205.12 z"
   id="path228"
   style="fill:#ffd300;fill-rule:nonzero;stroke:#ffd300;stroke-width:0" />
<path
   d="M 171.16,195.47 C 171.16,195.47 173.5,195.01 176.35,195.88"
   id="path230"
   style="stroke:#dc3e00;stroke-width:0.3096" />
<path
   d="M 170.8,194.45 C 170.8,194.45 173.5,193.99 176.35,194.87"
   id="path232"
   style="stroke:#dc3e00;stroke-width:0.3096" />
<path
   d="M 170.78,193.47 C 170.78,193.47 173.75,193.03 176.6,193.91"
   id="path234"
   style="stroke:#dc3e00;stroke-width:0.3096" />
<path
   d="M 170.17,192.55 C 170.17,192.55 174.12,192.11 176.97,192.99"
   id="path236"
   style="stroke:#dc3e00;stroke-width:0.3096" />
<path
   d="M 170.17,191.53 C 170.17,191.53 174.11,191.14 176.96,192.02"
   id="path238"
   style="stroke:#dc3e00;stroke-width:0.3096" />
<path
   d="M 170.17,190.52 C 170.17,190.52 174.36,190.08 177.21,190.95"
   id="path240"
   style="stroke:#dc3e00;stroke-width:0.3096" />
<path
   d="M 170.17,189.5 C 170.17,189.5 174.41,188.92 177.26,189.79"
   id="path242"
   style="stroke:#dc3e00;stroke-width:0.3096" />
<path
   d="M 169.52,188.63 C 169.52,188.63 174.53,188.05 177.38,188.93"
   id="path244"
   style="stroke:#dc3e00;stroke-width:0.3096" />
<path
   d="M 169.52,187.62 C 169.52,187.62 174.6,187.18 177.45,188.05"
   id="path246"
   style="stroke:#dc3e00;stroke-width:0.3096" />
<path
   d="M 169.52,186.6 C 169.52,186.6 174.95,186.21 177.79,187.09"
   id="path248"
   style="stroke:#dc3e00;stroke-width:0.3096" />
<path
   d="M 169.34,185.85 C 169.34,185.85 174.9,185.05 177.75,185.92"
   id="path250"
   style="stroke:#dc3e00;stroke-width:0.3096" />
<path
   d="M 169.34,184.83 C 169.34,184.83 174.9,184.15 177.75,185.03"
   id="path252"
   style="stroke:#dc3e00;stroke-width:0.3096" />
<path
   d="M 169.16,183.54 C 169.16,183.54 175.38,182.93 178.23,183.8"
   id="path254"
   style="stroke:#dc3e00;stroke-width:0.3096" />
<path
   d="M 169.21,182.51 C 169.21,182.51 175.43,181.85 178.28,182.73"
   id="path256"
   style="stroke:#dc3e00;stroke-width:0.3096" />
<path
   d="M 168.71,181.67 C 168.71,181.67 175.56,181.09 178.41,181.97"
   id="path258"
   style="stroke:#dc3e00;stroke-width:0.3096" />
<path
   d="M 168.71,180.65 C 168.71,180.65 175.58,180.3 178.43,181.18"
   id="path260"
   style="stroke:#dc3e00;stroke-width:0.3096" />
<path
   d="M 168.71,179.64 C 168.71,179.64 175.69,179.24 178.54,180.12"
   id="path262"
   style="stroke:#dc3e00;stroke-width:0.3096" />
<path
   d="M 168.71,178.62 C 168.71,178.62 176.22,178.03 179.07,178.91"
   id="path264"
   style="stroke:#dc3e00;stroke-width:0.3096" />
<path
   d="M 168.71,177.6 C 168.71,177.6 176.22,177.01 179.07,177.89"
   id="path266"
   style="stroke:#dc3e00;stroke-width:0.3096" />
<path
   d="M 168.71,176.59 C 168.71,176.59 176.22,176 179.07,176.87"
   id="path268"
   style="stroke:#dc3e00;stroke-width:0.3096" />
<path
   d="M 168.71,175.57 C 168.71,175.57 176.22,174.98 179.07,175.85"
   id="path270"
   style="stroke:#dc3e00;stroke-width:0.3096" />
<path
   d="M 168.71,174.56 C 168.71,174.56 176.22,173.96 179.07,174.84"
   id="path272"
   style="stroke:#dc3e00;stroke-width:0.3096" />
<path
   d="M 168.71,173.54 C 168.71,173.54 176.22,172.95 179.07,173.82"
   id="path274"
   style="stroke:#dc3e00;stroke-width:0.3096" />
<path
   d="M 168.71,172.52 C 168.71,172.52 176.22,171.93 179.07,172.81"
   id="path276"
   style="stroke:#dc3e00;stroke-width:0.3096" />
<path
   d="M 168.71,171.51 C 168.71,171.51 176.22,170.91 179.07,171.79"
   id="path278"
   style="stroke:#dc3e00;stroke-width:0.3096" />
<path
   d="M 168.71,170.49 C 168.71,170.49 176.22,169.9 179.07,170.78"
   id="path280"
   style="stroke:#dc3e00;stroke-width:0.3096" />
<path
   d="M 168.71,169.48 C 168.71,169.48 176.22,168.88 179.07,169.76"
   id="path282"
   style="stroke:#dc3e00;stroke-width:0.3096" />
<path
   d="M 168.71,168.46 C 168.71,168.46 176.22,167.87 179.07,168.74"
   id="path284"
   style="stroke:#dc3e00;stroke-width:0.3096" />
<path
   d="M 168.71,167.45 C 168.71,167.45 176.22,166.85 179.07,167.73"
   id="path286"
   style="stroke:#dc3e00;stroke-width:0.3096" />
<path
   d="M 168.71,166.43 C 168.71,166.43 176.22,165.84 179.07,166.71"
   id="path288"
   style="stroke:#dc3e00;stroke-width:0.3096" />
<path
   d="M 168.71,165.41 C 168.71,165.41 176.22,164.82 179.07,165.7"
   id="path290"
   style="stroke:#dc3e00;stroke-width:0.3096" />
<path
   d="M 168.71,164.45 C 168.71,164.45 175.86,163.66 178.71,164.54"
   id="path292"
   style="stroke:#dc3e00;stroke-width:0.3096" />
<path
   d="M 168.71,163.44 C 168.71,163.44 176.05,162.69 178.9,163.57"
   id="path294"
   style="stroke:#dc3e00;stroke-width:0.3096" />
<path
   d="M 168.71,162.42 C 168.71,162.42 175.96,161.53 178.81,162.41"
   id="path296"
   style="stroke:#dc3e00;stroke-width:0.3096" />
<path
   d="M 168.71,161.41 C 168.71,161.41 175.57,160.56 178.42,161.44"
   id="path298"
   style="stroke:#dc3e00;stroke-width:0.3096" />
<path
   d="M 169.18,160.29 C 169.18,160.29 175.79,159.4 178.64,160.27"
   id="path300"
   style="stroke:#dc3e00;stroke-width:0.3096" />
<path
   d="M 168.97,159.28 C 168.97,159.28 175.29,158.43 178.13,159.31"
   id="path302"
   style="stroke:#dc3e00;stroke-width:0.3096" />
<path
   d="M 169.36,158.23 C 169.36,158.23 175.29,157.41 178.13,158.29"
   id="path304"
   style="stroke:#dc3e00;stroke-width:0.3096" />
<path
   d="M 169.36,157.21 C 169.36,157.21 175.29,156.4 178.13,157.28"
   id="path306"
   style="stroke:#dc3e00;stroke-width:0.3096" />
<path
   d="M 174.84,155.54 L 175.2,157.33 L 175.52,159.13 L 175.79,160.94 L 176.01,162.76 L 176.19,164.57 L 176.33,166.37 L 176.44,168.16 L 176.51,169.93 L 176.54,171.69 L 176.55,173.41 L 176.53,175.11 L 176.49,176.78 L 176.42,178.41 L 176.33,179.99 L 176.23,181.53 L 176.11,183.02 L 175.98,184.45 L 175.84,185.82 L 175.69,187.12 L 175.54,188.36 L 175.39,189.52 L 175.23,190.6 L 175.08,191.61 L 174.94,192.52 L 174.8,193.35 L 174.67,194.08 L 174.56,194.71 L 174.46,195.23 L 174.38,195.65 L 174.31,195.95 L 174.29,196.06 L 174.28,196.13 L 174.27,196.18 L 174.26,196.2 L 173.2,196.2 C 173.2,196.2 177.94,174.6 173.78,155.54 L 174.84,155.54 z"
   id="path308"
   style="fill:#ffd300;fill-rule:nonzero;stroke:#ffd300;stroke-width:0" />
<line
   x1="169.83"
   y1="153.32001"
   x2="177.41"
   y2="153.32001"
   style="stroke:#dc3e00;stroke-width:0.38699999"
   id="line310" />
<line
   x1="170.91"
   y1="205.12"
   x2="176.35001"
   y2="205.12"
   style="stroke:#dc3e00;stroke-width:0.38699999"
   id="line312" />
<line
   x1="170.91"
   y1="205.59"
   x2="176.35001"
   y2="205.59"
   style="stroke:#dc3e00;stroke-width:0.38699999"
   id="line314" />
<path
   d="M 168.2,135.89 L 168.2,136.59 L 168.2,137.28 L 168.2,137.96 L 168.21,138.63 L 168.21,139.28 L 168.22,139.92 L 168.23,140.55 L 168.23,141.17 L 168.24,141.77 L 168.25,142.36 L 168.26,142.93 L 168.28,143.49 L 168.29,144.04 L 168.3,144.57 L 168.31,145.08 L 168.33,145.58 L 168.34,146.06 L 168.35,146.52 L 168.37,146.97 L 168.38,147.4 L 168.39,147.81 L 168.4,148.2 L 168.42,148.58 L 168.43,148.93 L 168.44,149.27 L 168.45,149.59 L 168.46,149.88 L 168.47,150.16 L 168.48,150.42 L 168.48,150.65 L 168.49,150.87 L 168.49,151.06 L 168.44,151.06 L 162.65,151.06 C 162.11,151.06 161.68,151.5 161.68,152.04 L 161.68,152.04 C 161.68,152.57 162.11,153.01 162.65,153.01 L 169.65,153.01 L 169.85,153.08 L 169.84,153.28 C 168.96,157.08 168.43,160.98 168.17,164.82"
   id="path316"
   style="stroke-width:0.61940002" />
<path
   d="M 179.15,135.74 L 179.15,137.14 L 179.15,137.83 L 179.15,138.5 L 179.14,139.16 L 179.14,139.81 L 179.13,140.45 L 179.13,141.07 L 179.12,141.68 L 179.11,142.27 L 179.11,142.85 L 179.1,143.42 L 179.09,143.97 L 179.08,144.5 L 179.07,145.02 L 179.06,145.52 L 179.05,146.01 L 179.04,146.48 L 179.03,146.93 L 179.02,147.36 L 179.01,147.78 L 179,148.18 L 178.99,148.56 L 178.98,148.92 L 178.97,149.26 L 178.96,149.58 L 178.95,149.88 L 178.95,150.16 L 178.94,150.42 L 178.94,150.65 L 178.93,150.87 L 178.93,151.06 L 178.78,151.06 L 184.95,151.06 C 185.49,151.06 185.93,151.5 185.93,152.04 L 185.93,152.04 C 185.93,152.57 185.49,153.01 184.95,153.01 L 177.44,153.01 L 177.55,153.07 L 177.57,153.28 C 178.45,157.08 178.97,160.98 179.24,164.81"
   id="path318"
   style="stroke-width:0.61940002" />
<path
   d="M 184.52,151.08 L 184.57,151.08 L 184.62,151.09 L 184.66,151.09 L 184.71,151.1 L 184.75,151.11 L 184.8,151.12 L 184.84,151.14 L 184.88,151.16 L 184.93,151.17 L 184.97,151.2 L 185,151.22 L 185.04,151.24 L 185.08,151.27 L 185.11,151.3 L 185.15,151.33 L 185.18,151.36 L 185.21,151.39 L 185.24,151.42 L 185.27,151.46 L 185.3,151.5 L 185.32,151.53 L 185.34,151.57 L 185.36,151.61 L 185.38,151.66 L 185.4,151.7 L 185.41,151.74 L 185.43,151.79 L 185.44,151.83 L 185.45,151.88 L 185.45,151.92 L 185.46,151.97 L 185.46,152.02 L 185.46,152.02 C 185.46,152.54 185.04,152.96 184.52,152.96 L 163.08,152.96 C 162.57,152.96 162.15,152.54 162.15,152.02 L 162.15,152.02 C 162.15,151.5 162.57,151.08 163.08,151.08 L 184.52,151.08 z"
   id="path320"
   style="fill:#ffd300;fill-rule:nonzero;stroke:#ffd300;stroke-width:0" />
<polygon
   points="31.004,112.52 32.563,109.8 39.027,116.32 31.004,112.52 "
   id="polygon132"
   style="fill:#fff;fill-rule:nonzero;stroke:#205ba2;stroke-width:0" /><path
   d="M 49.422,107.74 L 49.408,107.75 L 49.394,107.77 L 49.38,107.78 L 49.365,107.79 L 49.35,107.8 L 49.334,107.81 L 49.318,107.82 L 49.302,107.82 L 49.285,107.83 L 49.269,107.83 L 49.251,107.83 L 49.234,107.83 L 49.198,107.83 L 49.162,107.83 L 49.124,107.82 L 49.085,107.81 L 49.046,107.79 L 49.005,107.78 L 48.964,107.75 L 48.922,107.73 L 48.88,107.7 L 48.837,107.67 L 48.793,107.64 L 48.75,107.6 L 48.705,107.56 L 48.661,107.53 L 48.616,107.48 L 48.571,107.44 L 48.526,107.4 L 48.481,107.35 L 48.392,107.26 L 48.303,107.17 L 48.215,107.07 L 48.129,106.97 L 43.156,101.42 C 43.297,101.16 43.488,100.94 43.68,100.73 C 44.781,99.469 45.816,99.266 48.473,102.23 C 50.137,104.09 51,105.69 50.449,106.47 L 49.656,107.57 C 49.656,107.57 49.457,107.7 49.422,107.74 z"
   id="path138"
   style="fill:#fff;fill-rule:nonzero;stroke:#205ba2;stroke-width:0" /><path
   d="M 60.844,84.289 L 60.346,83.486 L 59.855,82.67 L 59.377,81.848 L 58.921,81.027 L 58.702,80.619 L 58.491,80.214 L 58.288,79.812 L 58.094,79.415 L 57.911,79.023 L 57.738,78.637 L 57.577,78.259 L 57.428,77.888 L 57.293,77.526 L 57.172,77.173 L 57.066,76.831 L 56.976,76.5 L 56.902,76.182 L 56.846,75.876 L 56.808,75.584 L 56.789,75.307 L 56.79,75.045 L 56.812,74.8 L 56.856,74.571 L 56.922,74.361 L 57.011,74.17 L 57.124,73.999 L 57.19,73.921 L 57.262,73.848 L 57.341,73.781 L 57.426,73.719 C 59.32,72.449 63.023,77.594 65.41,81.387 C 67.727,85.074 70.816,90.629 68.84,91.949 C 66.984,93.191 63.504,88.523 60.844,84.289 z"
   id="path144"
   style="fill:#fff;fill-rule:nonzero;stroke:#205ba2;stroke-width:0" /><path
   d="M 75.594,87.039 L 75.576,87.049 L 75.559,87.057 L 75.541,87.064 L 75.523,87.07 L 75.505,87.074 L 75.487,87.077 L 75.469,87.079 L 75.451,87.08 L 75.415,87.079 L 75.378,87.072 L 75.342,87.062 L 75.305,87.048 L 75.268,87.029 L 75.231,87.007 L 75.194,86.982 L 75.157,86.953 L 75.12,86.921 L 75.083,86.886 L 75.046,86.849 L 75.009,86.809 L 74.972,86.766 L 74.936,86.721 L 74.899,86.675 L 74.863,86.626 L 74.826,86.576 L 74.79,86.524 L 74.754,86.471 L 74.719,86.417 L 74.648,86.307 L 74.579,86.194 L 74.511,86.081 L 74.445,85.969 L 70.629,79.484 C 70.828,79.285 71.074,79.141 71.324,78.996 C 72.734,78.164 73.84,78.273 75.883,81.742 C 77.16,83.914 77.676,85.621 76.93,86.176 L 75.871,86.949 C 75.871,86.949 75.637,87.012 75.594,87.039 z"
   id="path148"
   style="fill:#fff;fill-rule:nonzero;stroke:#205ba2;stroke-width:0" /><path
   d="M 111.07,69.063 L 108.11,60.934 C 108.11,60.934 108.72,60.609 109.11,60.449 C 110.49,59.879 111.63,60.32 113.11,64.387 C 114.66,68.637 113.81,69.48 112.51,70.016 C 112.15,70.164 111.65,70.652 111.07,69.063 z"
   id="path158"
   style="fill:#fff;fill-rule:nonzero;stroke:#205ba2;stroke-width:0" /><polygon
   points="134.81,46.172 137.52,45.004 138.71,54.754 134.81,46.172 "
   id="polygon168"
   style="fill:#fff;fill-rule:nonzero;stroke:#205ba2;stroke-width:0" /><path
   d="M 157.05,36.34 L 156.94,35.422 L 156.83,34.49 L 156.74,33.553 L 156.67,32.618 L 156.62,31.694 L 156.6,31.238 L 156.59,30.788 L 156.59,30.345 L 156.59,29.909 L 156.6,29.482 L 156.62,29.064 L 156.64,28.657 L 156.68,28.261 L 156.72,27.878 L 156.78,27.509 L 156.84,27.154 L 156.91,26.814 L 157,26.491 L 157.09,26.186 L 157.2,25.899 L 157.32,25.631 L 157.45,25.385 L 157.59,25.159 L 157.75,24.956 L 157.91,24.777 L 158.1,24.622 L 158.29,24.492 C 160.48,23.242 161.68,29.156 162.26,33.5 C 162.82,37.715 163.32,44.035 161.04,45.34 C 158.9,46.563 157.7,41.184 157.05,36.34 z"
   id="path174"
   style="fill:#fff;fill-rule:nonzero;stroke:#205ba2;stroke-width:0" /><path
   d="M 168.09,38.066 L 167.59,29.23 C 167.59,29.23 168.23,28.738 168.63,28.484 C 170.04,27.555 170.95,27.855 171.2,32.273 C 171.46,36.895 170.46,38.031 169.13,38.895 C 168.77,39.137 168.18,39.797 168.09,38.066 z"
   id="path178"
   style="fill:#fff;fill-rule:nonzero;stroke:#205ba2;stroke-width:0" /><path
   d="M 186.35,45.898 L 186.31,45.867 L 186.27,45.833 L 186.23,45.796 L 186.2,45.757 L 186.17,45.715 L 186.15,45.671 L 186.12,45.625 L 186.1,45.576 L 186.08,45.526 L 186.06,45.474 L 186.04,45.42 L 186.03,45.365 L 186.02,45.308 L 186.01,45.25 L 186,45.19 L 185.99,45.129 L 185.99,45.068 L 185.98,45.005 L 185.98,44.941 L 185.98,44.877 L 185.98,44.747 L 185.98,44.616 L 185.99,44.484 L 186,44.352 L 186.01,44.222 L 186.02,44.094 L 186.68,36.699 C 186.97,36.785 187.27,36.941 187.56,37.102 C 189.26,38.012 190.13,39.754 189.77,43.703 C 189.55,46.18 188.96,47.574 188,46.996 L 186.64,46.172 C 186.64,46.172 186.4,45.934 186.35,45.898 z"
   id="path184"
   style="fill:#fff;fill-rule:nonzero;stroke:#205ba2;stroke-width:0" /><polygon
   points="196.51,38.867 199.43,40.254 195.55,48.668 196.51,38.867 "
   id="polygon188"
   style="fill:#fff;fill-rule:nonzero;stroke:#205ba2;stroke-width:0" /><path
   d="M 218.91,53.063 L 219.19,52.201 L 219.49,51.339 L 219.8,50.485 L 220.12,49.648 L 220.29,49.239 L 220.46,48.838 L 220.63,48.447 L 220.81,48.065 L 220.99,47.694 L 221.17,47.337 L 221.35,46.992 L 221.54,46.663 L 221.73,46.35 L 221.93,46.054 L 222.12,45.776 L 222.32,45.517 L 222.53,45.28 L 222.73,45.064 L 222.94,44.871 L 223.14,44.702 L 223.36,44.558 L 223.57,44.441 L 223.78,44.352 L 224,44.291 L 224.22,44.26 L 224.33,44.257 L 224.44,44.261 L 224.55,44.273 L 224.66,44.293 L 224.77,44.322 L 224.89,44.359 C 227.29,45.246 225.89,51.195 224.59,55.297 C 223.34,59.277 221.15,64.938 218.64,64.008 C 216.28,63.133 217.47,57.637 218.91,53.063 z"
   id="path196"
   style="fill:#fff;fill-rule:nonzero;stroke:#205ba2;stroke-width:0" /><path
   d="M 263.55,71.75 L 263.99,70.911 L 264.46,70.072 L 264.93,69.243 L 265.42,68.432 L 265.67,68.037 L 265.92,67.651 L 266.16,67.273 L 266.41,66.906 L 266.67,66.551 L 266.92,66.209 L 267.17,65.881 L 267.42,65.568 L 267.67,65.271 L 267.92,64.992 L 268.17,64.732 L 268.41,64.491 L 268.66,64.272 L 268.9,64.075 L 269.14,63.901 L 269.38,63.751 L 269.62,63.628 L 269.85,63.531 L 270.07,63.462 L 270.3,63.422 L 270.52,63.413 L 270.73,63.435 L 270.84,63.458 L 270.94,63.49 L 271.04,63.53 L 271.14,63.578 C 273.3,64.715 270.71,70.563 268.61,74.563 C 266.57,78.441 263.29,83.922 261.03,82.738 C 258.91,81.629 261.2,76.211 263.55,71.75 z"
   id="path206"
   style="fill:#fff;fill-rule:nonzero;stroke:#205ba2;stroke-width:0" /><polygon
   points="296.24,90.605 298.49,92.754 290.7,98.609 296.24,90.605 "
   id="polygon214"
   style="fill:#fff;fill-rule:nonzero;stroke:#205ba2;stroke-width:0" /><path
   d="M 304.01,115.53 L 316.51,105.27 C 317.75,104.25 317.85,104.01 318.74,105.38 C 319.35,106.32 319.63,107.09 318.99,108.31 C 318.05,110.11 316.53,111.66 313.3,114.32 C 310.93,116.28 307.93,118.51 306.14,118.69 C 304.64,118.85 304.05,118.24 303.54,117.53 C 303.05,116.86 302.62,116.68 304.01,115.53 z"
   id="path220"
   style="fill:#fff;fill-rule:nonzero;stroke:#205ba2;stroke-width:0" /></g>  </g>
</svg>
